<mxfile host="65bd71144e">
    <diagram id="iK9O6zpl0unEknwgo6_2" name="Page-1">
        <mxGraphModel dx="693" dy="601" grid="0" gridSize="10" guides="1" tooltips="1" connect="1" arrows="1" fold="1" page="1" pageScale="1" pageWidth="850" pageHeight="1100" background="#FFFFFF" math="0" shadow="1">
            <root>
                <mxCell id="0"/>
                <mxCell id="1" parent="0"/>
                <mxCell id="75" value="" style="shape=image;verticalLabelPosition=bottom;labelBackgroundColor=#ffffff;verticalAlign=top;aspect=fixed;imageAspect=0;image=data:image/png,iVBORw0KGgoAAAANSUhEUgAAApcAAAFmCAYAAAA4SrGwAAAgAElEQVR4Aey9h3MbR/Y1+vvTXr2v6qt69eq9DfZ6bSXLu7ZXTmsry3K2JVvRliUri0EkSDEqkQoMIJUsiaREikHMOUcQJHI8X90eNDAYDkCABEiQvCwd9UxPT0/P7TPTB7fD/I/f7weDbcAcYA4wB5gDzAHmAHOAOZAIDvxPIjLhPJiMzAHmAHOAOcAcYA4wB5gDxAEWl+y5Zc81c4A5wBxgDjAHmAPMgYRxgMUlkylhZOJfrPyLlTnAHGAOMAeYA8wBFpcsLllcMgeYA8wB5gBzgDnAHEgYB1hcMpkSRib+tcq/VpkDzAHmAHOAOcAcYHHJ4pLFJXOAOcAcYA4wB5gDzIGEcYDFJZMpYWTiX6v8a5U5wBxgDjAHmAPMARaXLC5ZXDIHmAPMAeYAc4A5wBxIGAdYXDKZEkYm/rXKv1aZA8wB5gBzgDnAHGBxyeKSxSVzgDnAHGAOMAeYA8yBhHGAxSWTKWFk4l+r/GuVOcAcYA4wB5gDzAEWlywuWVwyB5gDzAHmAHOAOcAcSBgHWFwymRJGJv61yr9WmQPMAeYAc4A5wBxgccniksUlc4A5wBxgDjAHmAPMgYRxgMUlkylhZOJfq/xrlTnAHGAOMAeYA8wBFpcsLllcMgeYA8wB5gBzgDnAHEgYB1hcMpkSRib+tZrYX6s+vx/xItF1EOv1E33d5ea3Vsu93Pvm8xP7DLI92Z7MgaVxgMUli0sWlynAAQCBegB8PnqYAT+giMtA6PX54fb4QCEd9+rAR+cFAB+duBDy+GIh5aV3Da/fDzVIyMkXMN2Hz+cL7sv4UKgqHyUW9x2KW6xMoXxC11TO8Yvr0rWpPOryRdtWl10/b/V1eJttxBxgDjAHYuEAi0tVwxiLwTgNP1iJ5gAJLLvdjs7ObrS1daKtrQPd3b3o6e1HR1cPevsH0Nndi4mpGZDgG5uYwvDoOBwujxB/pB+lCAyKSx1RKYWm3xebmJN5LgwXijdpEyHufHRxuoYeV0LXFok04lIbp+QTOiea+CRRLsDiMoLt9eqD4/R5ynZhuzAHlsMBFpe6DSCTajmk4nPj44/X60V3dzeuXEnD0aPHceLErzh48Bt8sXM3Dv18BEeP/4rDvxxDyZ176BsYwenzF3HmwiWMTZmColIKQCkuye3p9y70WpLADIpLH3kZw4UbnS/zkHmGh4qw9Ph8wjuo7X72inif8LoSD7ReTHE9RXsqOlLlaSXhKP+kiKR9uR0tpHx9XoIylEB6K9VeTCqzLLf6OPM1Pr6yvdhezAHmwGIcYHHJ4pK9HKvMARJQTqcTfX39wntJHszffz+D//73C1Q/eIT+wRG0d/RieHQSkzNzyMzNR/q1fIyZ5kD60e0DPCQSyYPpDcCjiEgRKRWbUGoBcRkQmZpDYZ5QyjNcWCr7ilNUUYJq8UbxavEmLhewbbhHUxGM8tpSVJI4lH8ejx9ut1cIRjpOxyiOIIWk1+uH10PqVDnL4/bC66Fu8VC5aZv+qGyUvbp8JDBlt7iSSvl/sZcmH+eGlTnAHGAOROcAi8tVFhZM0OgE3Qj2kd49pVsXcLk8yMjIwp7d+9DZ1SO0k4fElRewu71o6epFU08/5lxezFqdGBqdxNSMGTMmC0ZHJ9HTM4iZmTkhyJx2D6bGZzA6PIGZqVm4HB7FcxnwWrooj9l5jI5PYWx8GhabMygw1SJNikyXxwuT2YyhkWGMjo9j3mYLCjYScHMWC8YmJ2GxWjE7a8b09DRcLrf4AaMITEXAOZ1uTE2bMDw8homJaTicLni9ynhSi9WGsbEpWK0OzM9bMTQ0hpGRCdhsTlF26W11u30wmy0YHRnH+NikSCsEqUpcur0+mMxzGBoZw/DoKOxOJ9xeb2hMpteLmZkZjIyMYHh4GPPz8wu8rRuBg3yP/B5iDjAHEskBFpcsLtlzmSIcINnl8fhAwutqZjZ2796Ljs4eIfbcHsU7OW224sS5yzhy7jJGZucxYbbj8NFT+O33C7hVUoYTJ8/g+x9+QXpGDvr6RtDU1IErV7Jw6NBxHD/+OxpetSoeTh9gd3hQ/eApzvxxCT8dOobDP59AXsFNjE2YhCeUxCUJRrfHL85xuLyoe9mAM2fP4YdDhwUyDTlo7eyC1emC2+/Hwz+f4psffkRB8Q1cupKBc+cvYWhkXChKciJSXnanG1XVj/HbqT/w3Q+H8P1PP+P6rVIMjkwIL+yTZ3X49oefcbPkPq4aruG7Hw/j0JFjKLpxG2arHU7yavr8aGzuRFpGDn786ReBcxcuo6unHw4niUeAhPCL+kac/uM8vvnuBxw9fgK3S+9gYGhYHHO53Xjd2oZLFy/j8OGfcejQz8jNvYahoSHQUAUp+uN74dJkJu8KINqkqWQ3kvpDFRT+eoXHWfkJQemSXRbOn23MHEhFDrC45JcfNwApwgFqkOWYxMzMLOzatQftHYq4dAXE5cycHQd+PIJPv/4BPeMzGJm2YO/+7/H++58iO7cYj/6sw82Scuzd/w0OHz6BzKw8VD94hgePavD9j0dw5NgpzJhtsDk8qHr4HAe++hGG3GLU1DWipLQC+w58i/TMa5izuBSBKbqSAZfbi4ePn2Hv/oO4eDkdj/+sQdWjJzh87AT2ffUtmto64fID940P8fbW93DoyAlUVD1CU0t70BtKgo88iX8+q8O+A18jMysXz2vrUXLfiLOXM/DoWR3m7B6U3KvEW1vew+Fjv+H23Qo8elqHguJb2LnnANKzcmCat2Ha7EBO/i1kGArx5/N6GB88xYGvfsDJU+cwNWMRs+qN1Y9x4OC3uJx2Fc9qXqC86gF+/f0Myiqr4PL68efzGnz33Q9IT8/E82e1KC+vxI8/HsKFCxdhNpuX+FyQ6FsOYhWmqSUu5WQq8jS/qKsXk9I8Ho/UmEu0JYuGVBQNXCbmZSwcYHGZIsIilsriNOv7oZbiksYVXr2arYjL9oDnkrrFfcDEzDy+/uUk9v9yAgNTZgyOm7F337f44fuj6OodhtMLmCxOXLh8FR9/shPP6xrh8fnh8vhQRQLs4A9o6xzAyLgJPx87hUO/nER33whm5xyYNs0j51oxDn79Izq6BoLjOMnjOG2aw89HTuLIsV9FOhKKdK3G1x34dOde5BbdxqzNg/tVT/DWln+jtKwabq/i8RT3FRj36PZ4UVZRjc937sO9MiNmzFbM2d0YnZ7DpNkOqxu4U/EA2z/8BHcrH8Hq8sHuAWbnnUjLzMXHn+1Gc2sPHB4/RqesGJ6Yw9SsE5MmG4pvleGTz/ejubUX45Oz+Prbn3Dy1zMYHZ+GS9jPh8GxCYxMTInhBWcvXcH33/+Ejo4uzM/bMDs7h5KSO/jiiy/Q0tKyJM+lHFuqflbj84DGI0z1PYjRJj4t/xg9gwuvSz+KaPyrw+7Es2e1yM7ORUNDI1wul7BjfDZY38+5mhu8zXW9XjnA4pLFJXsVUoYDSqMdLi67lUk1NEbSD8zMWvDNzyew56ejGJg2Y2zagk8+2YMTJ/7AtHledGPb3X5czsjB/q9+QE//iJjIQl3JJDR37v4Sjc0dQjzu2vMVCGfPp+HS5SxcuHQVx06cFl7PhsY20YVNIpK6xvsHx7Frz0FcunJVeD09Xh9cPogZ6199/zNOnL6IcZMNpeUP8Zc3N6O24XVwopGYTBMYB+nx+tHR2Yffz5zH19/+iJO/n8XZy5m4U/kQI1Nm2DzA7ftV2Pyv/6C+pQMOL4RH1O4Fbt2txAc7PsezumbMWlwoLXuMC2nXcP5yNs5evIpDR07h/R1foOZFMwaHp7Bpy79w6fJVmOdtwoY094cEMQlN8n5+99PP2LHjE5w7ewHnz1/ElcvpOHz4F3zwwYd49uxZXOKSBLTd7sDg4CA6OjrR2dmJrq4udHZ2oaOjQ+xTXHQo6WlC12Lo6uxBV2dfTOjs7ENi0IvOzh50dlIYjo6OXrS1dgo0Nr5G1tVcHDt2UtiRBOZ6bUD5vlgcMgf0OcDiMmWEhX4FMXE3kl3CxaUYc9nercyOJs8QiSKzFV8fOoZd3x1G34QJI5Pz+HDHTpz87Txm5qxwA0KgpV29hi+//lEsXUQC0eHyo/ZFE77YdQD1jW3Ce7l7/zf44fAxPK1twKumVjQ0tgrh2fy6C5NTc3DTzPOAuBwcmsS+A9/hSrpBeCRJ6JJIG5kw4eC3h3Du8lXMzDlxp6waf31zM142toHEHOVBHlf1zHOXx4/JaTMam1txveQujv52Fp/v/RpXsvIxNedEacUjbNr+H7xq7RLC0u0HLE4fbpRW4N//UcTl09pmfPTZfly5WoDndc2oefFadJN//N99qHn5GiOjM9iy7X1kXr2GeatLjBmVIpeGGFjtbvxy9IRY8unR4z/xqqFJoLGpGU1NTZidnRVduos/f0qdUbfw2Og4Hj9+gqLCYuTnF6KwoAh5eQW4di1fhLSdOBQiL4/yX2kU4to1feTm0v0VoajwBi5dTBPCnZbXWvoQg4307PO9Lv6ssY3Wko1YXLK4ZK9CSnFAWXInJ+cadu7cjc6OnuDsbhKXMyYrvjt8HHu/+xlDk7PCc/nBji9w4tR5TM1ZQaPcbB4/0rPycPCbn4LikgQdjW/87PM9aGhqw/iUGadOn8f+g9+hs3tAzJ6mrnOazDMxZYbTRetZKl5LEobTJgt+P3MB33x3CIPD4/D6SDj68eRpHT765AsUXS+BxeZBZdUT/P3Nd/CioUXxuKpmblN+1EU/MjaJ1vYuZSymz48JkxUnTl/Ap7sOoG9sGjfuGfH3Te+i+E45ZixOIVLHpmZx/Lez2LXvGzS39aLg+h2QkHzd3ieOT5tsyMwqwI5PdqP+VTvM8w4cPfY7fjx0DL39IyBB6XJ70N07gKGRCTFMgMZi7ty9F41NLWJMKZVtanoGk5NTS5rQQ12/VqsN8/MWWCwqaPdVx2h2+txc/DCb55FqoGEF83NWjI2No6CgCOfPX0BbW3uwa3wtNYxcVhZyzIHlcYDFZUoJi+VVJj8M68N+1C1uMORi//6D6OrsDYpLcr+ZZiz4/qdj+PrHoxidMmNsyoIPP96J47+ehXnOqnSBu/3IzikUs8b7B0aEECRh1/CqGTt37UVTUyvsDjde1jfi4Fff4sjRE7hztxyFRTdw4uTvqDQ+EMfJO0njLZVZ3l68fNmIb7/7ESdOnsLNW3dw42Ypvv3uJ3FOd0+/mERD5779zha8rG8K81bS9Qk05vLPZzVi7GZaRjZK71Wg8MYdfPXDzzh9IR3jZhtulVXhrW3/xo9HfsWVrGu4fvsufj97UUzoKblbgSmTBU+evcAn/92NcxcycPN2GTKv5uPQz7/ii51f4nltI2x2L+peNOPLr37Ab6fOo/RuBfILb+LQz8dQYXwouvZJ4P546Gcc/uUoim/cEqCZ8PfvlwlxSDPG432mhLszzv/ivUaqpleGBthRXV2NwsJCMUSAx1quj3dSqnKOy5W6/GJxyeIy7gaUH+jkPtAkLh8+fCwm9QwPjSlrO4qvzwA2qwvF10uRV3gL07PzmLU4ce5SBm7cvIv5ebvoOqe1K6uMD1FQcB3DQ6NiAgZ129JYwEuXrqCrqwcej1csedTe3oHc3DwcP34C586dx9279zA2NhHoEg6pJKpzu92JV6+aRDfvieMncfLkbygtuYuhoRGRF12jufk1fv31FNrbu3S//kNCdWZ2Dk+ePsflK5liktCxk2dw624F+kYmxYSem/eNeGf7B6h4+BS5RTdx5MQp/HH+MiqrHmHWbIPd6cPsnA00G/z30+fFUkr37lfhZX0LcvOuo7NrAA6nHza7By2vu5CdU4DjJ0/j99PnhIgeGZ0Uwtfp8qCtowuG3Dz8cvQ4Tp0+g9sldzA4uJyliJLLjVR+9ogtDocD7e3tGBsbC75XWGBuXE6kMl+5bMnlJYtLFpfBRoAftuQ+bLHbF2LW7fycBfTVGZpRQ59sFKEXYjFxq11ZKogm6szOWzFvsYEmywhPI42xtDthnp2HzUaCU/HAuZwusUg4CQDZ4NNyMfRdcxoXR126iy0fQ+c5nS7h2bNZbXC73WLxcxIWdMzhcIrxipEmcSifi1SWJLLanZiz2DFvc8Du8oImItHEnRt3K/DOtvfR1t2PmTmbEJJ0v9RtL8dvUkjLKZnnrWKxdafTA7fbDyetcRn4SpH4HKSPBI9LLLZutdlF2anMdJ8ksGnBehLNVqtdwOlQZjfHXlepwhkuB9cZc4A5kDocYHHJ4pLFZcpxQPncIQk2KSq99I3HQB+1WAqG1p+kbmYa+0gTZuTyMJQs8E1xP/VDi5XQA2HIERm2PIwqOrgZ6SVNAlIKU0oT7W9hHsoyO1Jgyq5yOdHG6YFYduj2fSO2vvchOnoGQJN55G1Eu5w8JmwTsIUUl7RMDv3J8obfg7KEjkjrVSbnLCz3yrywZRlX6/p83ZWpZ7Yz23kjcIDFZcoJC37wNsKDF/0epciRoZYTSrwUZxTSZJTgd7KFuFLOIUEqruXzw09Q8V0tEtXxyd1WC0wqs6J/lXsASGA+q3uFM+cuYXhsUgjLgKZWFKLmf+qKj1Te6MfCRXKkPDg+sn3ZNmwb5gBzIBIHWFyqGttIRuJ4foBWngORhOX6q4twkQw4nD7RXS6XLwqMCNDIytDuytfN+qsDtiHXKXOAOZBIDrC4ZHEZ0fOTSKJxXvziisQB8rhKgSlmqJO3lcZwBrya0TyXJDEj5cvxzDnmAHOAObA6HGBxyeKSG2fmwKpyQBmDqXTrS0EZ8ksuvsWNx+o0Hmx3tjtzgDkQiQMsLllYrKqwiERMjt9ILy35PW15z3JIgBIuJi+ZK9JuHDIXmAPMgdTgAItLFpcsLpkDq8wBFpfcIKZGg8j1wPXAHEgMB1hcsrBYZWGRGCLzC4HtyBxgDjAHmAPMgdTgAItLFpcsLpkDzAHmAHOAOcAcYA4kjAMsLplMCSMT/2JMjV+MXA9cD8wB5gBzgDmwmhxgccniksUlc4A5wBxgDjAHmAPMgYRxgMUlkylhZFrNX0l8bf6VzhxgDjAHmAPMgdTgAItLFpcsLpkDzAHmAHOAOcAcYA4kjAMsLplMCSMT/2JMjV+MXA9cD8wB5gBzgDmwmhxgccniksUlc4A5wBxgDjAHmAPMgYRxgMUlkylhZFrNX0l8bf6VzhxgDjAHmAPMgdTgAIvLNSEu5RdMZJga5OGHmOuBOcAcYA4wB5gDzAEtB1hcpry4VAQl4IMCf/BTy9rK5P3Vf8CDlaPa4HpZ/XrhOuA6YA4wB5gDK8cBFpcpLy6JDNJjKcOVIwg/jPHZWqUpg5tsw/hsyPZiezEHmAPMgbXNARaXa0Jc+uHz+cLAD15qPnhBRana4LpKzbrieuF6YQ4wB5gDyeEAi0uNuFRpghXfZJInh+QraVc90qzk9flaa59DXIdch8wB5sBa58CGEJc+vx8SVGE+P4L7Mp5COrbaf+ryhLYBKpoWyn3QvaQiQjYP3UfkOK/fD6/PF4aF56XifYaXSY8/+vUT2RYL73s104bfn/69JC6NluOhfW5sltrY6HFyvcct1VZ8Hj9nzIHEcGBdi0v5AvXBDy+BBIwfAm6/H26fLxx+PzyrDsDjV+D2URkJEPD4AILcd/uBpAKAaxG4ASQCMV0nxvuV9lssTIbt5LQrdUico58tBMk/UTb44YkBCm8lf/XDUP76x2PJQ5uG7kHmm6iQ7l/aRvA58DyK+MCPpJCg1PygohMDfxHT6PwIW0tp5f2pQ2356Zg2jvcX2kRtw0RuR7O1z0dDmEKIljZVj6nLL7dTtazro1yJEXOpJorXnbiULReRjv68AOwA5gGYA6EJgB5mAaw2qIyrXQb19fXsJOPU6RKxTfe+HMgyLCePpZ47F+CWBQDB6gdsARD/9GADoIZemljiKA9HAOr8lrsdy7WjpXHq3DeVk86hsmnPpWNOP+AiBJ5dIWrpP58iHuiZls+28oRvrP/1GtONZQG+27gtEPjBFfd5fEJMFtB7JtXvqEjHQ/EsLtfGYts+wOdTGqhZjw/dJguMnT242dKKouZWFLS0If91O/JaWpHX/DocLa+R39K6SmhDfkt7ZLzuQMHrDhQGUNTSAYHXHShagE4UvU4+il93Yim4/roTEjded+JWWzdKO/twt3tA4F7PIO73DumA4vVxr28QseBu7yAk7vUOIhZEumZZ7yAI5b2DqOgdRGXPIB4MjuLx0ASeDE3gz6EJPB4cEyFtE55SqImTx2IKhyfw5/BkWJ4i35FJPB1ZGB9TnoGyadM+HZnCs9HpMDwfncbzMX3UjM2gZmxaQKYRceMzqA2gfmoOjTMWNJqsaDJZ0TxrQzOFpnk0z8yhcdqM5ulZtE7NYnDOhhmbC3NWJyxWF6wUWmzrGlarHRI2qwMCNgdsAdjtTkg4HC44HG6xr2y7gsdkmo0akj2cTndCQbZW8vTA6VyrkPcQKaT7omMeuF3eIFwpfb9uSP4nKpQ2UNez2h4Ltt1euDXwuH0Q8Pjg8Xjh9dBqLws97KnmcUxUedaN51IZpwa4fIoXZ8Tpwb3XHfjGkI+3jpzEW6dO463TZ/HG6T/wd8LvZ/D33ykMBx1fHZzDG7+fw99/P7sIzuGN0+fwxpnzAm/+cQELcRFv/hEb/vHHRfzjzEW8tYL455mLILwdwDtnL2HTuSvYfP4KtpxPw5YLadh6MT0IEUfxOth6Pg0SesejxYnz6FqLQXUNeS11uO18GiS2X0zHexcz8O9LmXg/ANqW+x9cysQHF/Xx7wsZkHhflebDi5lQg84P7l/KxIcCVwP5ZuCDi4nBfy5nYceV7DB8lGbAx+kBZOTgo3QDPrqSjU8ycvGJ3E8z4KO0bHycniPig+nTDfjv1TzszC7ATkOhEmYXYHdOEXYZCrArOw9fZOVid/Y1HCq+haKaF3jVP4zOwVH0D09gYHAMgwOjGOgfWQKGMdA/lDQMDg5DItp1BgdC6WR6ipPnyLihwREMDalA+4MjyjUCedBxOnd4eDQ87dAIBijPgaENjGFhL2HHgO2Wu011s9w8VvJ84oUagk/RbCH5FkijPjeVt8OeE3kPCQhjveeRkTHoYXR0XNi/v38Q3d29mJycEY4vcoeGi0z2XKao51KZTEBjtmjsH3VHts3MIf3BU2z/7Sz+evRXvHMhHe9m5WK7IQ/bsq5hW1Yu3s3Ow7bs/DC8ayjA9lVDId41FGFbdmEEFGBbdgG2ZhdgSxgKsSWboIrPKsCWZWJzVgESiejlyceWrBA2X80HQR2nbOdhS1Y4tmblQQttmkj72vOWur/tah602Ho1D1sz80DhloxcbMnICYC2cxekp/OD6TJzsTXzmkgj8qG8NNiWlb8gTptmufvbsuh5yRcI5XUNWzJzg9icmYvNGblhZZHnbMm8ptx/ZugcyofiKY9NGTnYnJGDTWkGbEk3YEuGAVszDfggJw8HS+/hekcPuqxOjFvdmJ53YNZsx5zZhjmzHeZZ6xJggXl2flUxZ7Zgbk4Ds6pc5nmYAxBpA8dmZ+eghclkFnEULsQcTKaNDDNmZmaTi+lZzKQ4pqdMIIhyCnvEYJfpWUxPmzA1FYLMJ1XDZNSD3r1OTc4gFoyPT6K3tx/19a/w7FkNXtTVCwFKY1hZXGqW6EmUq3Qp+ahnz9KkA9qXFUShmJhBYxX9wJ8DYziYnY+/Hj6ON89cwNar17AtpxDbcoqCeFdsF2Nbjga517FttZFzHdtybkTE1pwbWClsybkBPWzOuY5ICKW/ji05xUFszSlGJGwxFEENbTr1Me22Nu1y97X5J2tfr5x619qaUxTRbnp5JDwutxhbCVHqj47Rs7Q1u0hgS1YhCJuzFajva7OhCO9kF2CToUhgc45S99uvXce/C2/io1t38MW9MnxTWYWi3n50uryYcPkw53DBanPBZnXrgOJjgRM2a4rD5oRNIkpZ7TYXFITuJxQnj61MGCyvzRkok/511eloO9nlTfm6jlK/q1n2ZNfLWs5fr17sNrfgssPuBmFuzoaB/mG8ePEKNTUv0N7WhY72boyNTYrJXlK7hLyX7LlcNc+lFJckTJUZrSFvJU3YsfiBLrMV2Y9q8J8zl/DG8dP458UMbM7OxyZqvBZpGBdrOFf2+PUVE49LFalbsq8jGrYarmOroTg6VHWiFh+0rWtvjQCV5+imVeUd73GZrzaMNR/teZH29fLTS6uXLhXj3qX6DohLCiOJS3oWN6tA++9eu44Pikvw2Z1y7Co3Yq+xGl9XVaOgtw/tbi/GXT7MB8WlBzarGiQ2YxGWnIbtxBxgDiyNA4qAjP6usVqcGB2dxOvXnaitrcerhhb09w9jYnwG3V39GBmZEOIyJCpl9ziLy1UTlyQqlcUcQ6KSZpPS7FKapftiZAbf5xbhH4dP4J0zl/AudbHmFOHtnGK8nUMeNBJsi3tfNmqaBR5crUdXs68WEbFsL5a/No9tBo1HOVB3KyG+9K5BcbFyI9L52ni9/LRp4rmuXn4rGUfikupNXZfyfiKVg3oJ3iu4if9cL8Xndyuwx/gAe4zV2Fv1AF9XVyOvpwcdbh/GXYDFToKSXu5qYSnjltZgcEPLdmMOMAdi4UA0cUnHzGYbenoGhLfy+fOXaG/vwfjYNGZNFkxPmYPiUum5laJShiwuV01citGvPqoAZZ1Ahx+wAui1OFHw/BU+Im/lL79i8/l0bKexh4ZCpdsttxibcpWu2UgNHMfHL7qlaIg1XMzG2nwipdemo/1IaZcar3eNeK4T6XxtvF75tGniua5efisZR+JSDdFNHvhRoAw1uYFtuTSko1gMPSFv5b8Kb+Lj23ex834l9lYqonKPsQp7KqvwVVU1crsVcTnhBKx2H+wLhCWLy1gaRk7DAoo5kHgOkKgkb+X4+DRaWjrwou4VmpvbxGTDqSka7zuHmZl5FpdLGQu5Ui6A428AACAASURBVOdQt7iH1sCj9fH8ytjKpul5/HanEn//8SjePHkW72Zcw3s0xi8wlkuM6WJxmXDxJQWLnhCKFCfPiRRqz4s1HZ0XKe1S47Vlkfux5ifTLxbq5ad3jl66VIxTC0vhxVT1FKjFJd3jttxi/LvwFj4tvY/dFUbsr3qAfVUPhMeSxOVeYxW+qn6AnO5etHt8EOLSxuKSBULiBQLblG0aDwekB5NC8kr2dA8IUVlX14Curj5MTJhgmpkXoONym9JRtzh7LldxMo8cXykHvdJHOeiLNCQsaYHrPrsLJU2d2JVmwD+O/Y7N5zOwnWa0BsZ7qcdziW32XCZcgC1P3NAQBT1ID2q0YzJNKFzLgkxrx/V0L8q9yQlyiteSPJfb82/iwxul+OxuOXZVVIlucKU7XOkSF55LoxFfVVcjp7tbiMtxpw8Wm7Y7XO5HHwcVT8PBaVloxMsBq1h/de3aTZZfHcZrg42QXopKh90Dy7xDdHm3NLeLsZXkrRwaHMP0tHmBqGRxuYpiUt/7CfjpU4ceZSY4ja2c8frRMDmL3+9V4Z1jp/GXo6fw9qVMsTQPzUqlhlmM91LNUJazlbWNOO+HxNlat8V6EmTr6V6IVyQmJd69dgPvFdzGjpt38Tl1g5O3svphwFtJwlKKSyP2CHFZhdweEpdejDl8mLeRiOQxlxuhIed7XLtidb3XHS2BRl5I8lRSN3h3dz/GRqcwMz0XFJbSYylDEpiK53KcPZf6gm9lBp0q4yuVz73Rt4epG3zc48fd113Yl5mDt46fxjvnMsSknW2GAmzNKRSeOVrihMSl3uSRtS6guPyRxfB6EmTr6V4kZ+meSGC+X1SKj2/TbPAH2FNJolIRliQytcJyj7ESX1UbWVzyLHheCYA5sKocII8lCeb5eTuGh8bx6tVr1NbUo7mpDUNDY0JUTk8rYytJeJKglKJShLQ/q3Sfj4ywuFy1iTvB8Qj0CUf6LrMPaJ82I636Mf5NX6Q5eQpb0rLEYuK0bqUiLElcJn7snWwcOYws7FLBNutJkK2ne5HcoPGWJCw/La3ErnISlI/DhKUiLquFt5I8liQs9xgrwsQldYuz55K9WevdK7ba90dd46tdhlS6vuwKp9neXZ19qK1tELPBu7r6MakZWylFpV7InssU6RonUUmTd0xOL5609+BQbgE2H/8Vmy9cxnuGa3g3Jx/bDIV4N5e63RYKn/XYQMuGejVD7fqEC8a2atYupPQrUd71VN+x3otMF8m+8nikMNJ5iY6nrvAPikvx2R0jdlc+wt6qJ9hb9SgwzlKZHa6IS6UrXArLPcbyMHE54fLzUkTc8LPwYQ6sHAdsymLoQ+StbGjB8+cvxPqVoyOTwlspu8FJOOoJSnUci8ski0sxiNJPH24nKF3soTjlqzseWmLIB/TP2ZD38Ck+O30O7546g/fSMsQnG7caAl/byaWuNsLC9SsjNagcH/4VnHjtQcMO5FdVFgspbbz5x5J+Kw190GALLdgtEbiuWCdTrLtYhG2a9Mr52gXeF+Ybug6lDVxDN6/wc2O5j4hp5H1owyTZM2I5AtfTtVUMPxroudyed1MZX3mvMtAN/hj7qh9jd6UcWykn8yz0WkpxeY3WufT4MEmey+A6l3ICjxyD6YJ6MkK07VTyinBZ2EvGHEgdDtCSQrI+LBaHEJAd7T2oqalHQ30zenoGMTmpzASn5YViFZckLFlcJltc+rwAISAwlUXR/YDyD7R2pcnjQ93AKH40FGDLkRPY9scFvJeZhS1Xc7DFUIDNhkIBWiBdQejzgnLyjjokkSNEUXYRNseM0Gfr5Ofr1nu4mMhI5nH1otvL2ZafHKRwqwpyFQGZtzqd+IoMfaaQPleYXRi+AHggXhwLfM5Qe67evrzOUsJY85PpIl1DHo8U0j3pcZrqWR1P+9priDgdgSl/6Mlu8E9KaHwlCUjqCiev5SMhLHdXkJgk0DFFYJL3cm8VeTKrsLfKiL1VlfjqQRXyenvR6fJh0ubBvEU2RNQIOIKwWh2wWJwxQf/TkVKsyvw5lI0sh8yFjcIB2QU+Z7ZhcHBUCMqnf9ai9XVncMIOeSOlWIw3XDihZ2XmsEhH3mqE/7NyF5VeS8VzCZ8yI5yWGrIB6Jq1oOhZHb44fwXvnDyDbZdo0k4uNmVfw6acfLxtKMQ79F3inABi9KQJcZlVhM1ZxTEgvHFVN7S8rS9Ilm0XlYgTomcF9zdlFyJWrHTZknq9wDe/F6875ceZ/JFGYSRxSeOet+ddx4fXqRu8QkzcIS+lFJYkMgUCnsvdldQVLgWmDJXxlsJzSeKyrxcdLg8mrB7MzUvPQri4pG/9xiouOR3bijmwsTmg9lCqhTPxgj7T2N7WLWaC19c3iRnetBi6nKhDHst4RaVMz+Iyid5Ln98Hr4AfHhpYSetXUje434+G0SkcL7qFd4/9iq1nLmJbeg62B2aCbzIUYFNOASiUnksZbjUUQg2a5COhjle8L/RpusWQnO5capAZ+jbQesZ4f6G3MNE2IW9uTKCZ3oFnisY4S9DHCgjbDUUKcovxr7wbgW5wI3aWVWN3xUOVp1IRlsp4y9As8ZC3kjyWIa/lviojvn5YjXwSl043JgKeS+ldsFrIW2kHCctYxSU1JCwsNraw4Prn+icOqEUlbZNHsr9vGA0NLaIbnLyVtOA5rVspx05KkbjUkMVlUsWlMq7SG5iwQ98GH56dR3ndKxy8kIZ//ngYb588hXfOXsQ/zl7BP86n4e/n0/DGhXS8cYHCNLxxPg1vXkgP4q0L6fjnxXS8JXEhDW8FoY7PwFsXQvjHhQxIaOPfvJABwhsRII/LMNZ0Mj2Hin2lHWQ9hIXnM/APCVVdhaWh+AhpZN7B8HwG3pQI1G/wmHpfpqFQFa+9rvoYbWuPr+T+kssibRchVJ6L9NDzdP4K3hJIwz/Pp+HtC+l452IG3iZcysB2Qz4+LL6Nj27dw46bd/DRrTvYcbM0hFtKHMV/dIuWJSrBxyW3NbiFj0tuCuy8W4L0lma8nDGhd9KM0fEZsXDxeCAcG5vE+NgUlH0TxsckKJ2EjKNwRngmJiamMTFOCOxzyLZgDmwYDtCnGumb36OjUxgbm0Jf7xBet3Tg5YtGMXGnt3cQ5K1cqoiMdB6LyySKS9n9Tk5Llx8Ym7PghvEh9p34He99fwjbjh7H28dO4J8nTuGNI7/ib7+cxF9/OYm/Hf1V4C9HTkJCxv39yEkoOIG//aIgFKcck/GxhHQ9cc1ffsPfjvyGvx3V4Jff8NdffhVpgukorU66v4m0Sn4yXw717UF1reA3kN2WDiWfv/xyEgJHqL5kfgqnJK/UdRHpeqG6pnNlPms//OuR3/CXI78GQfvE4fA44jk9U8cF3jhyEmq8eew3/OPE7/j78d/w/x//DX85dRZ/P38Zf7twBX9V4S8XLkON/+/cRfzlPOE8/nLhPP56UYtz+OuFs3jz4ll8f/cObr5qwqOXzXhWUy9mbD57WgcaC/X48VM8fvwMT57U4OmfFCfxAs+evhQIxcljtXj6J6Un0DaDbcAc2IgcoNnfNTUvxTuE7r+trUt4K2miDnWDk0hUT9qJJBpjjWdxmVRxqYy1JHHpBdA/PomSR3/imvEhDA8eI+vxn8j68yky/3yOjCc1C5D++DnUyHj8HITMKLj65DkkMp88g4KnyHjyFBmPnyLziUTgmMizFhmPa5HxqGYhKF6LR3ppddJpz+P9kC31bL2MuLRHNVAjPZjXc2Q8eobMADIe0b5OPa/ruFqkP5aoQfrjSKgVz2DmkxoQQs9eDa48rhW49Og5fqt8iG9u38POm3fw35t38NmtO/iEvJO372DH7RLsKLkdjlsl2CFwCztu3dTgBnbcuoGPbt/Af2/fwKXGBtRNTqN7bAqDwxNiEWNauJgWMx4aGhWLGA8PT2BEBVoqRI1ox9TpQttTYeeH4sPz5Xi2B3NgbXOgv38EDQ3NaGvtEutWqrvASVhK0CLpErGKSW06FpcrJC5dPmBwYhrVL1/B2NiCssZm3G1qxh1CcwtKWlrDUNrSijstbWG429KKuy2vY0JpC+UZC16HXVdbDt4Pr5dl26O5FSXNbShpbk8OWtqU+mxuRakA1e9rlAZA2yUiTSCdhnfRjyXYFguunaT8g7aQNgkPS5paIVHaRMdeC5Q0vQbhdnMrbjW3CdxsbkVW7UscN1bjq/IqHKioxv7KauwVs8GrsdtYhV1VRuyqqhTYLRZJD80W311ZATWUdS5pUk8lDlZXIq+3Gx1OFybtbswHZoSHBuTTjHFl/JQci6kdS0X78hiHbraFbePZgL6FLcHPQHj9k5ikLnFaIH1mZi74ZR0pDKWglKGMX0rI4jKp4tIr1rcU3eI+YGhyBlUvGlDZ2Iyyxibca27G3WYSl80obYoNlD4W3GlqQiwobWqK+dqxlpHTxVaXy7dTC0qb9KBcv6SpGSXNTTqg+EUQIx+Xfw8rYythC7LHIihtbkEQLS2gH2nqH2q3mpthqKvDscoqfF1ZjQPGB9irmgGuFZe7jEbsNpLoVITnbmMlIuGAsRzXerrQ7nBi0uaCxRa+LAxN6tETk9HiuHENb1zZHmyPjcwBWnaopbkdnR294hONJDaXIhxjOYfFZdLFpU8sb0mzxAcnp2GsewmjSlySsIyEkqYmaFHa3AQ9LEgXl7gkgRlCSVMjSgVCcerjcpvSKWmjp5PpOYxmJ7I5HZfhwrQhW0dOE7JxY0BUylBPZDbhdrNyXIZBMZpidRu694V2kfcs+agNyabi+dAV2uF2KW1pRjTcbGqEobYWxyqN+KayCvurpGhUlhbSE5e7jNVQQF5NxaOpeDdDHk6K/7K6Qngu2x0uTNrcsGi+ThLyYIaLThaXLJg2smDie4+d//S98KamVuG5TKawJPHJ4jKp4lJZ59Ln94sxl9Qtbqytw4OmJpS9eoV7zY2400Jo0hWY0Rq5mI4t0piKPIS4eIWSZsZatkFpU+Lrr7SFhGfi811KnrGUhdLoga5H9okJzZRHZIEpxeXxykp8XWkELSEkBSN1gRPU3eLkuQwKS3EsIC616YS4rAwuRTRl98Bic4sv8ciubhlSYxp5cfTwY0rDS13lWqgbJA93H2/A7mMWZepnYH1vyx+gJC4bG1+zuEyS7luxRdTh90P5Kg9AyxGRuKyoqYOxsRH3GxVxeVc0ZrIRp3ClkRriYSmCg8/huksOB8KfQfLqEm41NeBWcxMMtXU4WmnEgcpy7K6qUIlLEo4hsSlFpxCYC+IXpvuyyii+0NPl8WHK7oPF6om7G1w2IqFQuwC7/NLPwrXvQufE7hnlc9hWzIG1wQH6McHiMrlfCVo5cUmDLQViFZcsFpIjFtiubNelc+B28yvcImjE5X4hLsuD4jIoJoNd37ILPLYweeKShKQWa6NBZOHC9cQcSBwHRLd4Y6sYcxnLuMnlpOFu8SS5R2mNy+C3xH1rS1zebmqIqTuUGl0CCxe2wXrmgFpc3lZ5LhMuLquVb4sn1nOZuIaJG3m2JXNgbXOAxSV7LlmwsWhlDqQIB9TikiY8yW5xFpdru6FlocT1t9E4wOJynYrLgfGpRcZcsgdsPXvA+N7WJr+lh566xVlcsiDZaIJkvd0vrbogQd/dXsoqDGvVJiwuN4K4bGoUs8XDJ/SszcaXRRPX23rngDL8oxG3Gl/BUFOLoxWVIM/lHiNN6oltTOViYzK/5G7xBExgYvG7VoUPlzv53GVxyeKSu0RTpEt0vYsmvr94fhg04nZgnUspLveSuDSyuGRhkHxhwDZmGy+XAywuWVyyuGRxyRxIOQ7QEkVNyKkNeS5ZXHKDv9wGn89nDq0UB1hcsrhkYZFywiIeDxenXZ8eURaXK9UI8nVYcDEHEs8BFpcsLllcsrhkDqQcB1hccoOf+Aafbco2XSkOsLhcd+LSr3yhZ3wSlc/rUNXYiLKmRtxvbsRd8a1warTY28U2YA6kNgekuKzBkfJy8YUe7hZnYbBSwoCvw1xbLgdWUlx2d/VjZGQctOY3LfsdjuSKPOWaK3+Nlf9CD31b3O/H4NgkjM/rUB0mLptRKr4BzsIitYUF1w/Xj1pcluHLynKwuOQGf7kNPp/PHFopDrC4TK7gZHHJXlL2FDMHlsABFpcr1QjydVhwMQcSzwEWlywul9DwsWeNPWvMgeRyQIrLWhwpT47nMr+vD50uP6bsPlisHl730Zr4BpZFC9t0o3KAxSWLSxaX7FljDqQYB5SF1JWliJInLvvR6fKxuGRRyT8smAMJ5wCLSxaXLCxSTFgk1yPGHsc1Y9+WZuTW1OBYRXlSxlzm9/Wjw+llccnCIuHCYqN66/i+Q55qFpcsLllcsrhkDqQcBxpRGhCXx8vK8GVF4if0sLgMNYQsCtgWzIHEcoDFJYtLFhYpJyzYu7hmvItJ444iLq/V1ILFZWIbPRYRbE/mQPI5wOKSxSWLy6QJBBaJLBKXyoGVEJc8oYdFRvJFBtt4Y9qYxSWLSxaXLC6ZAynHgeSLy7zeXnR5eLY4i5+NKX643pNb7ywuWVyysEg5YbFUbxeft648pWLMZS2OJWkpIhaXyW1cWbywfTcyB1hcsrhkccnikjmQQhwobXoFQklLM3JqWVxu5Aaa750F6lrlAItLFpcsLFJIWKwrzxvbdUnPFotLFhRrVVBwuZm7kgMsLllcLqkBZBHEXdDMgeRwQIpLsRQRey55DUZeh5M5sAY5wOKSxSWLS/awMQdShAOlza9wJ9Atrqxzyd3i0hPCIXvFmANrhwMsLllcsrBIEWHBnsDkeALXkl2luCwhgckTethjtQY9ViwA144ATGZdsbhkccniksUlcyCFOEDfFb9F5WFxyeKSxSVzYI1ygMUli0sWFikkLNaSl43LujxPqxxbqbUji0v2/CTTo8R5M79WggMsLllcsrhkcckcWAUOaMWl3GdxyY3/SjT+fA3mWTI5wOKSxSULi1UQFlpvFe8vzwu4Fu0nxaQsu9xXi0v6tjgvos4iIJkigPNmfiWDAywuWVyyuGRxyRxYBQ5IMakVl7RPApMm9JC4PF5Whi8ryrHXWI7dxkrsqlo66HzCweoqKF/o8WHK4YPF6uGxbWt0bFsyhAHnyYJzuRxgccnikoXFKggLKSg43Hgey1jqPBnikkTl3ioj9lcZ8U11FQr6etHt82HK6YUlxYWV1eqCxeIMgvaX2/jx+WxD5kByOGC3uUHisrHxNTo7emGamV+AWZMFS4U6v5npOfT2DGJ4eBx+Pwk6aJBckadcc+Wv8T8rdWH4/BDw++H1+zE4Ngnj8zpUNzairKkR95sbcbe5GaXNTSwmWUwyB1KcA0kXl1VVyO/tCYlLW3IaGW682a7MgY3HARaXyRebLC5TvBGPxYvEadi7uNIcSLq4NBpR0NuNLp8XE04P5mwusDdw44kAFn5c58nggBSXTY2twnM5k2TPZXdXP3suk+XJZM8lC6CVFkB8veRxLtni8tuqKhT1Ure4F+NOD8w2V8p3jSejEeQ8WVwxBxLPgaC4bEq+uJyeMoPE5cgId4sHxgUk1m3K4jJ5DT2LKLbtSnMgGeJyV5VRjLk8YDTih+oqFPd0o9vjwYTDg1n7yolLq2rsZDwNOzVYaqjPleMx9byv6vGa6nN4O/Gigm3KNiUOrKS4nJoyo6d7ACMjEzzmMhneSxaXLIBWWgDx9ZLHuYSLy+oq7A5M5jlYfh9HjZUo7e5Cp8WGwVkLxk3zmJw2g7wAC0DxMYAG1seCBfnrXVMnTp339PTcwnLqnKO9ljoP3o6tvthOibOTlo/rcZ/4QhNuJidNqKl5icZXrzE0OIbhoXER0rYeoh0fHBgN5iHTUUiTeOhY6+tOdHf3wW53weMhx516Uk9iHXnJ0G9LyZPHXPKYS548wxyImwOJFpd7qqqwr6oaX5aV43CVEVfr6/HnyCg6pkzoGZ9C/8gEhkYmxMuaXthLwcjIJGKBzDuWtDLN2OgUtJDHKFwsz8WOq/Pi7djqke3EdorEAXpWh4bG8PDhU9TVNohxlx3tPWhr60Jrayfa2roFKG4xtAfS0jkybXt7j8iT8nv5shHPn79AZ2cvHA4XXC4vi8ulqNVI57DnMnleJPbQsW1XmgOJFJe7Kyuwv9KIr41VOPnkKYo6u1BnmkWfzYEJixMz83bMztkwRzAvxPycHbFA79zF4vTyXeycaMf18qO4aOfwsYV1zjZhmyyHA/TMmUwW1L9sEoJycnIWkxOmBZianIUa0dLQsYkJk0hP2+S5pO7w7u4B8cPTanUootKn9lrSNnsul2UEFpcsgFZaAPH1kse5RInL3VWV2FtRga8rKvHbk2e41TuAVqcbQ24vphw0S9wtZonbA+Ok1GMa492Od7xdtPzjyYvykekj5SmPc8hjApPFgUjc08Yn6/qpki/dr8PhUda5fPUaXZ19C9a4VK9Tudg2DYGRaWZnLaK7va93SOQ7MjwBq9UJrwfwLRCVUmSyuGRxyd2ncXefssBLnsBbTdvqics9xgqQWIzlCz3ySzx7jZX41liFs7UvUTE8iXaHByMeYMrpg9nugSWwBFE0cZnMRkvb8NL+cq6nl99y81xOefhcFrMbkQP0zNEi6q8aWuJaikiKSG04a5oHYXRkEr29gwIzM3Nwyy7wiMKSPZfLEpbk9mXP5foUGaspcPjaq8cpPXG5y1iBnVWVQXxRRfsV2KXCTmMF9hgrcaDKiIMVlfip6gGyGl/j6eQs+t3AhAuYsfsxb/fBavPCZvOEzcDWE2cbsXHke2ZRyBxYGgfkO4TsJ8VlmPdxkS/zkLCUk4LoPBKRExPT6O8bREd7F4aHx2CzOUUXOCC9k5HC9em1JM3HE3rYG8neSOZA3BzQF5dqYVmJL6or8Hl1OXZWhUBCcz95KyuNOPbwMfLbu1E3M49Bpx+Tdh/mbIDV5ofN5oPd5g0gusDkRnZpjSzbje22ETkgxaXF4hCff1R3i8vF1CN99lGKSjouRObMHEaGx9Hd3Yu+vgGYTGa43Z4NLyxZXLKoiFtUsLdw9byFqWT7xcSl4sGswBcBcbmrqhy7q8qxz1iOb42V+PXxE5T0DqDZ4sKw0w+Tww+r3Q+H1QeHxQeb1SOgCEwWlxtRBPA9s/hNBgekuKQJgk2BRdSlWJTd3ZHEpXnWGhxfSRN9+vuHhbAcGRmFw6FM2CFvJf2FLzek3V+/Hks5QYk9lywwWWAyB+LmQCzikryU5LUkYbnHWI4DlWX43liOC3V1qBgcRofNhTEnYHYAdpsfLqsfbiuF0mMpQxaXyWhkOU8WbxuRA0FxaVbEJXkuI4lJvXjqBqeJOt1dfejvH8LsrBkeD3kr/fD5fIEhhFoxqd5f/8KSPZcsKuIWFankPeOyrJ4XVSsuD1aUY5cx1C1OnkspLvdUVeBARRkOVVUhs6EBj8cn0e1wi/GVJjt1gfvhtPqEqCRh6Qh2h6vFZWSBuREbSL5nFobMgaVxYDnikhaVp0XRe3oGMD4+CafTJcRkwFmpmpuiFpPq7Y0hLFlcsrhkcckcWBIH1OLyRFkZvq4ow24jja2kGeM0aacCu4xl2PugEl8ay3Hs8SNca21D7fQM+p0eTDr9mLP7xfhKp9ULl9UDl9UNJy0TovmMomwMKOQGdWkNKtuN7cYcUDgg3ye0TqbsFpfd4dqQPJdms1VM4KGZ4H19gxgcHIHZbIHH4wt0f28cwSi7vGMJuVucxcWSxAV7DVfPa5gKtleLy+NlZfiqskyMqaRucBpbuddYjr2VZUJYnnj6J4q7utEwZ8Ogy4dppx/zDgiPpd3mg1MKS6siLCOJS24cWSAxB5gDy+WAnrjU6/6WQpM+E9nfNyyE5eTkNJwOF/yKrmRxGWUBeBaXLC5ZXDIH4uaAVlweqLyPXVVlYowlicv9leX4quw+fn36FKX9A2i1uzHsAWbcgMXhg50Q6P4mMamFbADU4XIbFT6fhQlzgDlAHKD3ymKey6mpWQwNjqK7u1+Iy7k5K3w+f0BQyo5w6vJmz6WeDVZPXI5Pwvi8FlWNjShreoX7zY2429yE0uamuBu6VPDkcBk2tidvo9W/FJd5NTU4UXYPX5bfwd6q+9hXXY59FffwTWUZLtW/RNXoBDrtbky4gRmHDxY7rV0p16+kcZSeBcKSPZcsAFgEMgeSxQESlg678oUe6haXSxFJ7yUtNzQxMSM8lbTEEHkr7XYaW6keO8niUk9QquNWRVyS+B8cn0BlTQ2qGl+hvJnE5SvcbW5EaUsji8t16kkjQXJLA4qLRZjpnavNa7X3qYyx3k8s95zaaehZbUZezXOcLLuHryvu4mDVPXxlvI+jTx4gu6UZNTOzGHQD0y6I8ZXzYhZ4SEzSV3eEF4E8CQFID6baYym3k9XYcL4sZJgDG4cD8n1CX+hpbFQ+/yiXGKJvjA8PT4gJOwMDw5iftwZFJclJtcCU8lItqHg75MVdFXHp9QMD4+Mor3mOysZ6lDU34H5zQ9zikoSoFtEaZBausQm5aDZczjE98RerGItXXN5uacRqoESHk/FwVM++2vNTZ78JebU1+K38Pr4vv4sfKu/j5JOHKO7uxEvzPAYcPkzRxB2bXyw1ZLd6YbNGn5QjRaYUnhut0bdYnOJb6tHum9JIREu30Y9ZyZYxYKPbKd77D9o08OMw0vlWqyto/0hpViueBCaJS+m5pG+Cj4/PgL4J3tc3hOmpWTgd7gViUi0uQ9shQcXiMmSLFReXZHwSl/1jY0JcVpC4bGrAvaZ63GlqQGlT7AJIr5HVa5xvNzbE5B3TO5fjYq8Pra1KNV5J6dlTh9pzou2rz4t1m8ReJMg8Ih2neJmGwmjp5DE9Ti6I09gl2j2TDRecH4OAXalzCupq8EdlOY5U3Mf5509RNjiAdqcLI15g0u6H2eaDlTyWFi9iEZfJYxU/0AAAIABJREFUbGykxyLWMJlliZS3umx6adTH5bZeOo6L3RMn7Ugh2y02u9GPm1hsFWu6WPJaShp13cptyoe2aRH15uY2tLV2YWBgFO3tPRjoH4Fl3gGvN9xLGRKSevEhQcXiMmSLlROXgdrx+f2gGfz9o6Mof/4M5fUvUNbwEvdfvcS9xnrcbWzAnaZXsYHSalDaWI8FeFWPUsaK2uDOq3oQtHYveVUPNbTHI+7r1esS4wRn6IfMEs+Pfh7lGwPEDyn6MaWChsuS2zHlF8s1A2lK6MfWEkE//u40K88nlb2wtgaXq43IfVmHx6Oj6HN7MOkBph0+mG0eWAJf2pFf3FlKA5Goc2TjslhI47G0kOdEipfHZcMl9ynUnhPPfqz5xJounmuvt7TSRtr7WqyO5HkcuoUoS4QdtHWQ6H2nwwuCw+EJh52+/KUIaOoKp27xhvpm9PYOYnJiBk6HBz4v4PX6xYzw6KKShGZITPF2uC1WTFxKw5O4dHm8GBgbx+P6elTW1aKq/iUq6utQVv8C9wkvY8O9F3XQgvKQuPeyDndf1OL+y7og5DF1qD7O2yFbLccWZS/rILGcfLTnqutNva1wpg5U5xLac+W+PK4O1XnRNvFQfVxuU7w2rTxG4d36FwL3Gl7iXkO9Bi9Dx19S/hoEzpV5aMOF+dUH81On1b12vf6179fXY6m4+6IOJTU1KKmtxdOeXnSYzBgwWzFismB8eh5ThKl5TIfBDFqIOG5MmzEtETifPr+mRrQ8KR0dl6E2LcXTIP6J8RlMTJiCmJwwBc+h2aNKuvDjlIbGai0AxWsxaYLIZ0pJL64ZvG74takc6vPV5dJuL5ZOllFeW4a0zAodk/nJfOg+ZRoKxb0FyhNWLk06Ok/mETWdyDP82sEy6NhS5iXKFah3KjuVTdRr0J6mQB2GbEnlUZ9H2/JaSjgTLLP6nsW26n7kfYn8iAsaqI/LbW0a2lfbMphOa8cA1+Rxdaibp4YrlD7WdDJvYaMpsyiftLc8JkMljXLv0u7StmH3FeF+ZNqwUNpR1nuQZ8rzKK8tny+tDWUdBp+liVB9htez5DlxYwbjY9NobGxFd1c/rJZ4vZUsLKWmixSuuLhUCgLM2+zoGx5BZ/8A2gcG0DrQj5b+fjT396Glrz9GUFoN6HyBfrzuV0D7wW1tevV+fz9aqBwJhLwuh4G60Ng2HrssqGt13S1hu7mvD00S/X1o0kIeU4faNLQfdrwfTf0xoK8fTVronjeApj4V+gdiy183r0C51PktY7uxl+5hAG1DI+ifnEHf5AwGx6cwMjaFsdHEgRoB2XDQtoT2GjJeL4wlrTYN7Yu8xqcxLjE2rXtvMp22nBHzVN0HnauXLnj9QNpIaWJJp2cTGafNV8ZrQ2067XXV6bVp1cfU29p02jy1x2khawmqEykSZJ7a9GH5UR1GsKWID+Qn61CbtzyXQnUaua0+LrflMXUoj4WFetdWlVedVp2X3FYfl9vymDqUxyKFlDbSMWlvdX666eO4F71r6dVhWD1Gq8NIz9XYVOgZVpWP7sluD42t9Pn0ur21ceEeukjiaqPHr4q4FLOuAOHBdHt9cPt8cPp8cJFX0++H0xcbXD4/XHReFLgpz0DewW1NeoqXkGVIVOj2Ax5G0AZkD5cK8dnHDw8Nq5B1qqpHGa8OF6tvwTXiW5Kgvk/aDruO4LjCe+J+JKjzcFIePkLg+QiUW50m7DoyXSDUphNpRX4y3/hCmR/VodsHuLyAxwvRrUSLDNOLOhZQWi3U51HXlN6f6LJSnauXhuJkOpmn9lpyHxGuEylfEU/nRELUE/lgoi0guzATma/khjbUu4Y2De3rcUMvnR7HJW+16WO+tk5CbV7qfSqr3FefKuIWeTbkeXr3oc4rFbapjPQuUN+XsLVmqSH9OBaWsYrmVRGXwUoDQM+fFjThZzHQckbUxR7rja5eOu2vng2wr67QmB7YWG0Sub59Ph8WIAI/FqTz+XR5FH86vxBWNGZHvriCXA+8uOmYeLFFKNtCnsZqm9VOF7luwu9Jr5zLOVcvvxWMk43UYmGMz4FsfMN4ozlXpqEwWjo+trh9kmbDxfggj2vqNtXrTM29xWwXT9pUv2+lfLG+pzgdvfNTTlzSDyRFOC4ehjdaXKFLt8fiL+F4H/5gJcYsoharv8SXMd57Smz6xe43mceTYctYy6t37eWcq5ffCsZJkbBYuMZERGK5voL1kSp2XowP8niqlJfLofNDLdb3EqfT0x6rIi61v2i0+3oF5Tgm8FrkgOT2Wix79DJrBUOs/NSeR/vLOVcvvxWMkyJhsZAbb53GewXrie3P9o+bA7G+lzid3jt8TYtL8bTE6uaMIZ2egTiOHxzmQCI5oCcoYs1f79xVjlOLStXYy+AYNHk87oZtle+Ly8tibMNzINb3EqfTayNZXKpFZ8weFCaTHpk4Llm8oDGhekjW9ZKZr55oiud6eudzHHdjMweYA8ngQDzvJk6r1gCrIi7VBeDthYQMjldUC99FttmOC+249myi93Kk+/LqQIrN5N237NKPJVwbttazr15cMmyqd5144pJRJs5T4W2s9bBR7RWrfTZquo3Ki+j3zeIyxbyVSxGW8py10MAHhzKkmN1Tw3aRXs6KkPT5vAgHxS98wGOd5a53rjouFlEp06jPS93tSPbVxi+06fLvSXuNePaTUR7OM1SnsdbFRrVZrPbZqOk2Ki+i3zeLS53GOfTSiW68ZKQLiq9FPJVSUAbDFLoPWiJKIhk2Wr956r+cF6zVpV7qaQnbyek+W/lnJX4e6Nt3oT2ScS+xXlsvXTLKw3mG+KNnc704tlnIZnq20LNZpDi988Pj1tYP1/CyR7fTxkjL4jKFRBkRcr2ISy8LTF2vYvSXjv6LmMVlol7G+vaVj10oTNT11PnEem29dOp8eDv6M7QU++jZXC9uKXlvpHP0bBYpbiPZZWPe67oXl9E8aNrpgIl/acVOqiWLSrWHM0WEsrS5z+8DQX8yioyP3UarWT+JvnbwUxjiszHiiwDBqAUzjeWM40ih+E0Sjx0jvfCXEx/P9VcnLYn0kIAMbctHKHSMyif5uZRQ7/5C1wtdJ964UI9A6BlLbFwsPE/0teU1dStn6caK2bjaS0TiiSzneg6pbvXuT9aN3rFQXMwm171GKB/9MvDxtWWXdS0u5UuQvvZDDQi9ROg/8QDJFiWOUE3uYHd0HOenzDkRXiDq+0vMNrXm9LkavQkpMo4a77X10Cy3vAoP6NuIgc/1CILqfKpqCV3eKcOxVH0uVFyTIkIpqsJBej8owlLyM94wEp/jaXgD7yr1j4nAO4zeXdQrkCxEEhdqziejDJTnakE0DFq+qniivvf1vK3YP9RWhkS3/I6rQkL187Ke7ZG8e6Pne/23eetaXFIF0gNDodLoKi9tejj82pfJYvsaMsTViGvO1SNWXPlFKmuU68jxK7qh+CxSosRNKJ+g2cVbKpIHKJ5Gd+09kLLBlMMEQg1Z4CPcXq/yrdNIdRqXwJQ8XywM1VGiutz1OJ1KcfL5p/uVphbiUrWvNKZSXEbiayzxkqfxcFtJG60+lOcpfmEpORhLGK3OpOEoTSx5rYU0yv2Gf25Y8CLgjFA4Ea0eZV1HCqOdm1rH6LlQHDHKvYj6Drah4e8MmTb8M83xczNZP5JSLV96FkLPFtW7en99bq87cSnFU+gFCHh8PvHQuHyA3Q/YEIAfsNN2IHQAcEYAHUsq/IDTD7hUiFQWdbzDDwShKiPdF0HekwvAcuAGQBB5yLLK/cAxmcZD+3QfAVvSPulX8acRsrrf4I75xZ5aL+dIDRG9iANO88CG8nLx+qiRJn4CHgqhA4qPB3p5aOJkPSUjVPNX5k88kNurHdKzQs8FlckbEJaCmwFeCgFH9aL3rfqY4uhcifj5SUShMlDZqN6lveSzRM8+PdPy+V4sjPWdFfZOUb1H5PnyOJVDlkUe0wtlellevTQUp063Utt6ZSE70vW9AV6I33yBjoXI76hooiD+uo/0/lgQLx2JSwgX5KV51xLvgs9FQGwSB6nO6dkhG8VS/3o23ohxxCvSG2Q7Nwl10uhieE407qyPY+tWXJKQEQ23H7D6/Bi1OtBlmkP7nA2t8w40m61oNlvQMm9F0+y8sm224HWMaKFzY0Cs+bXOWtButgbRNmsBxbWaF6JtzqobT9dqNVvRSsfn6T5taLfa0W6xo9PqjAIXOq1udNs86LF7g+i1e0HoC4C2u61u9Fg96La4g+ih89SwetBrcQkMWJwYtTph8/rhdvvhdvjgdniDcDk9cDrd6xouuj+HCxS6XB44XB6YnW6MWe3oM8+jd96KPosdfTYH+u3OMPRZHeizOBMLq1Nci66XEFB+OmXsmbeD0GtxiLB73g5dzNnRPWdD9xylVfLqt7qQSPRZXei1udBmtmDQ6YHJB8w5/bA6/LA7fXA6fZBcdDicWB5ccDiWAjdsTh9m7W6Mmm0YMNvQN29X7GBzo8/uQQ89d1Y3uuKCC13WxKA7QfkkqjzR86F32kKoz+m00rvPiY45G0YdXpg9gNUF2B0+OBweFdyaOo3GEVdS32dL5ZbDQe9Zet9GhsPhhc3hhdXpg9Xlg9Xrx7THhyHintWFHrtboNfuRq/dJdBtc6LL6kC3zYWeNYAuK5U3OehzeKBAaUe77GQzF/osNkw4nMqPWtGxtD4EZDQP7LoUl9I5Rt6zQZMFRU9q8VNuIfZlGPBFRg4+zcjBx+nZ+DgtCx8FIPbTs7EjPSsqPkrPAmGxdLEc/0/aVUjsuJKJj9Oz8ElGtlK2wHXk9SKFO65cRRBpSrk+ojwyDPg404BPr+bgs6xcfJZ9Df8N4PPsayD8NytXwdU8fJ6Vj52GQuzKKcJugeJAKPeVcFd2AXYSKL0W2QWg47uy87E3pwAHcvNxqPA6ch79ibqeQXT1DaOvZwj9PYPo6xlEL6F3AL29/RHR1zeAxaDkQfkkApHKEmveofP7evtB6O8dEOjrGUBv/xDa+gZR0dCEcyV38WNuHr7JzcfBnDx8mZOPA4Zw7DfkY392QQwoxP7s2HDAUIhEYr+hAPuy9bE3Ox/75HEK9RDh3Eh5xhafj3107QD2GvKwPzcfXxddx9XnL/B0cByvh6bRNTCJ3v4J9PWPoq9vCP0Cg+jvSwzCuTuIvj6JEK97+wbR00fPxxBqWruRb3yCE7nF+CE7H19n5+FLg2LDvdmF2JNdhD3ZxcvGbkMxlopdhmJILDWPFTkvpxh7cq5rQPddFMQu8c7Lx8GC67j84Bked4+gZWAKXX1j6O0bEZwgXiiguqN6k3UYLQzVbzgHEhG/kJv07uvpke8e7buK0g8L9PbSOzccCu+H0Ufv574x9PSPo2NgHO0j06huasf50kp8S++M7HzsySlQYMjDngB2Z1/D7uxc7M7O2/DYY8gHYbchH7sMediZk4udWVn4KjcXNxteYdrvFz0P6m5y9XY0sbbWjq0hcRnezSDH/4SHShej3QeYvT40TU7jj3uV+NeZC9j0x2Vsu2LA1is52JKWG0AOtlzJweYANqXngPBOWmTINDJ8Ry99IB+ZRoYL0kZIJ9Kn5WCThDZdWg42p+eKssq8I4e50F43mG8g/3fSDOH3fCUH70TA5oxr2JqZJ0DbEnT9zRkhvHvVgP9cK8CeG7eQ2diMxnk7RuYcmDFZMTtthXnGCrPJglmBecyaEgvTzDwIMzNzwbxNJiVOHtMP52CaMWtAcbGdO2ui683BbJrD/IyCuVkrZmdtmDHbMGay4fHrLvx68w4+vZyJDy5n4L0rmXj3SpbCzzTiZw42B0Db0bA1LUdweusVyelYwuh5RrveWjhGttt0OQubr2RjS5oBWzNysDXTgA+uFeDT69dx4dUrvLTa0D/vwITZgelZO0wmC0ymOQE9Lupxh7ilhYn4NmPG7MxsIKRtggWzM8R9C2an52GansfczDzmTFZMzlgxZLKhfnAcmQ+f4WB2AXZczMD7V65i65VMbLmcic1XruKdK9kCm1TvrNC7LHK907tCi03i/UHvEAXiePC9uEheabnBd6Z8dyYj1L6nxL7q3rXXDEsfId2mNAM2pWVhU3o2NhMyDNhuuIZPC4txtuYFnk/NYcDqweScCyaTDaZpC2ZmQojtPaB6V9A7ZyWh954S71blXSvLL3g7S+9c4iWV14LZWTumZh0Yn3Oge9qKhx0DOHW7DJ9dzsaHVwz4d5oB29IM2HwlC5vTsoUNyY5BUFwacTQrDMLm6QZsSiI2pxnEs07Pe0xIz8EWgja9jKf2TBcGbE7XgriUpfBJ2CMLm9Ku4m9nL+J/HTmK/+vwYbxx6jdcrK3BgN8Pi+hVVTyX6nHJa008LlbeNSsuaeyIevA7dYGTp9LiB3rn7CiufYX9GTl474+L2J6eg23ZhdicXYithiKBbdlFUGNrdhGWBMovp3hJ2GIoQiSo89RLI4/rHVPHxZpOfc5StjdnF2CLoQBbc4vwbv51fHz7DnaVVeJrYzWyOjrR5PBgkrohbV7YLV7YbR7Ybe4VAXVvrcy1XLDbCE44rE44LAqsNg/MNLRgah5VTR04dfMuPr+ag/8Y8vDBtSJszykU/NmWUwyCrLNYwqWcE0u+azmNsImhENsMhdieW4R/5V3H+8U38fm9MuypKEdmdxde+/0YdfswS12Adg9sgXqjuouVKzabGzarKwx2qwt2q1PAQTwQcMFp9cBh9cJh8cBu8cBm9cBp82HO5kO/yYZH3YM4V/4Qe3IKsSPrGt435ONdQx62CBRgS04RNgcg6sZQHPHdsZTnV+ZJ78dI528OvOsiHU92PF0/nmvovc+3GKgdyMPWnHz8q/AGPrp1B5/dvYe9ZeW42NiMFzSMxw3M2nyw2nyw0/sqDCvzzoqVg5HSLeBl4F0r461WF6wijrjvhsXqwbzDjzGrF68nTLhd34JjN+5i19U8fJRVgA+yC/EvQyHezSlS3lG5xdico0WIo5KrC9Noz0nM/rbcYsSKrbnFEMgpxhaBIvF80TMm33tKvF7ZdO4xtxCbcgqwyZCPrdeKsCk7D3+5mI7/dfJ3/O9Tp/GPq5l4NycL5xteol9HXMrJnouJtbV2fE2LSxKUclwlDRY2eXxoGJ3B2btG7DhzCdvPpeH9q9fwnnwpBcgkCbTNULw0QRmHEI3nZRhrWhLJsaZdmXRUngJso4a88BY+uHkHn5dVYH/VQ3xT/VARl04vJl1+WGw+2Kw+WK0eWK1u0EtOvvCWE8qXbKQ85HEKI6VJRLzD5gaBrkMvb4vdA7PDh57peZS+bMIvhTfw34xsvJ+di23ZJB7ysdlQiE2GIug1npKr0UK9Fzi9HKOds96PUSNIwvL9glvYceMOPi29j10VldhfVYnMHhKXwAiNvbRTw+qC1eqAxWITsNEYYQ0vRWNsccIaA2wWJwiK0HTBYSF44LQoApNEy5zDh2mbDx2T87j9qg1Hb9/Hzqw8fJCVJxrxrdn52JydLxqsTSSIAvzQ40ginnH5o1vmFUlkRoqX5yU6VN93pGck0jWl8yAoMkU7QD/kCrA9vxg7bpZiZ1kl9lRU4UClEReEuHRgxOVXxKVV+RFAPwRCSO77Q8u7RO3L95/Mj/hssZDA9GLe7oPJ7sOozYu6oQlkP6nBt9eKxfCx/1zNw7+yCrA9u1A4aLZQ20d2JGGp4uSi2wuEqJ5wW3pcPO+z4PvSUCTeu5JXwXuIs6z0fApxmVOAt67m4v/54yL+75On8f+eu4T3iq5jR2kJ/pWfi7P1L1hcpqZCDu8Wp1lXNLuWZq5ZAYy6/bjb2I4D6bl4//Ql7MjIwQfZ+fiX8AAEfm2pG1z6Fa4jEiO9qFIpfrXFZfj1SVgW4t1r1/HB9VJ8WlqOz8uqsKuyCnurHuCrqge42tGJRpcXE27A4gBsNsWDabV7EyYu5UszWihfsDKMlnYpx0hMkLD8P+y9h3cbV5L/+/61d955b/f99vd7e/a3u+OsaFtWZlbwrD0zDhPW47GtZEXmHJFBREoMsiiJBBoMipTEnBMiA/B9p+7tCzRBMAMgKbXOKd1Gd6PZ6K6u++m6VXXJEzDvX8C0P4TxwAI8w+Mobb6PP1TU4OSdAnxaVIJDpRU4UFqFT5jXMvbGvBUjKfYVb9nvOlCK60HtkYp6HKvV4bTOgmxLE3LsTchzNuG804HCly/QDWBoYQlTgQXM+4MMLgkw/b6g7H3evodKvGDE2iUEmReMXq4imAlGMBxYxoM3I7jlbMGFilocKyjBp8XlOEijK8XcQ6f8PYmWN2uTEtm5jdYRmG20T6q30++jDp86fyH0eTO/mwAo6tWXgehgWR0OVpCd0uKEzogzJivXC0eTDJcSHvkXMLwkey5XQCWNfpAXc6VebMdO7IXvEFzO+RYxF4hgKgS88S7A1vsSPxutyC0qw8mCEnxeXIEjxeRBr40K3XMxurKX7I6415tpEz1LidZtRs/YPmU1eL+oAv/fr3fwf/7wM/7pl1/xXlEZjmkNOGU247hRj8OVpbjSyeGSsscFY9GwuOq53PW6TDG4ZN5KuVwGZX12jEziWmMTTl6+hU+v3Max/HJ8WlSJg0UVOFhcgYNkaEr4kGNU+chrKQ+RK9tNK9QmjdzbeDzlg0hDEYcr6/F5nR6njTbk2O4hy96ETJsdOQ4nvnQ2ofDZc7gXlhhczgci8PmW2TCM10/ey+R4LrdqsKmTSPwdWp9INj5PgksaAp8PLLHh1hF/CO19b3DHfhcXistx4k4hPi8sweGScjYsR2B5gMnacBnVV+WLUYJl5X7KZeW9epeWP6vW4rSuEVlmJ/Lszch13GVwec5p555LGS6nAwuY84fg83OwTA5cEkzGhKDE54/wjjwQRt+0D9bup/jJaEFWcTk+LyzFoZIKfEJhJQnu7XrrUmFfhAcnFcfeyjHjwVJ4mLZyDLEvXcNDFQ34nGKdTRZkWBzItDmRbW9Cjo17Lq9LXXhMcCmGxePgknsv17IbG9uHxPYm/d8jmzvvW8S0fxnj/jC6R6ZR1+7Cn2u1yCwqw4niUnxewsHyMAsviY2C0PWka8k8l7KHT0Dmenq6H7cJ3VG2iX7HewXl+H8v38D/9eNl/Ov1fByu0eC4zoxTRjNOGg34wqDFoYpiXO58hFeRCCsjxktC8XqxKlymCS4FyRPZr0jWYbWF+IQvVIuM6kfRsJbW1YOLheU49MuvOHq7CJ8VV+HT4mrQQ3GwlAt1tomUItE6pSLt1WVx3hudn9iP2vX2Ve63meUDZfUsvoW8lUertTiuMeGs2Y5sK3mI7jK4zLLbke10ck/RixdwhxYxtgDM+WhYfFkxzJR+45ocI09Dpzy2LuAjbwbF7oUxGwhjKhTBa28Ijid9uGS0Iqe4AieKyrknoKQKBxlErA2Uie6BEhjFcqL93q11dA1j15H08nClBp/V0jB4IzJNNuSQ15JBhAO5TjtynBbceN6LLkQwsrCMGRZvRsPi/H4mGhLfmr7w41AHTmEf895FzHlp+D2CkVAYnaOTKH/wEN/UNeB0UTk+K6awHe7FZjHLW7BVqbjXAhSoTcXxt3JM5blElzf9Ui9CdapxoKwaR2s0+EJr4mBptSPTRnDpQIbNgRxnE/Jsdlz3dMMVXMLIIjBNL8BeAknlkDgtbx0uvd4Q1pKt6db2bCXpto9eoKj1LWLWu8i854PeJdx/OYRrjU5QVYqThSUs3vez4gocLqnEIYpZlj3A8fctej/iQs3i93vbPtMonRCyPf9+qxj/9z+u4J9/+ZUNjX/eYMQXWjNO6M04aTAyuDxu0OJwZQkud6hwGXXZCtdtOluRPSXAkmbSYZwpFzympJ25pTDcQ1O4bnbi1NVbOHTlBg7ll+IQxdIQVNLbFhtuFO3mDeV6ELYfttGQtZDNnO92Hv4DZXXMW/lZrR6nDFZkWZwMKnNsSrh0IMvpxDkHDUO+hLRACT3AvC/ME3qiiQ3bM5jpMMrr/w0ZLr2LPEHDH8F8AJgIRvB0ch6azi78tYEC4stwrKAMR8iLXlSJT4qrWKLJtq67nPCTCC6Fsd/Ocffvd2JwSR70IxRf2WBmHvQsqwO5NifymE46ke1wIMdhRXYcXM4m3XvOXzgYWPqW4A1EMB0A+ucX0NI3gF/td/FlRTVOF1PYTjmOlMovGyVyQtwegLq9rA+bsWliHxoZOEQhB/U6nCEvsZUDZZbdASGZpBfOJuRSzKXkYXA5vJBcuFzfjqTe/nGo5GA571/GdDCCvpkgjNIz/F3biCx68S0owdHiMjYMzsByE6Mqe1lPUnduZHOq8UFhOf7n5Zv4f/5xBf92swCHqutxTGvEFzoTjusJLk04pcLl3izmyabgkoGSZqqg2XV8YWAkuASzuxd51/Lx4Xc/4LMbBThaVIFDZdUsm/Lj0moI+aiML29F0YRh2g/tViByvd+zlevDDXY9jtUbcNbkYMPguY57ICGvJfNc2mhY3IFsZxODy+KXL+FZWGZw6ZXhMpY1m3rjmirjTh5L8mzQb5oLAJNBoGd8HlX3O/A1BcRT3dRCDpYHWDY9f+tlYRhJhggBl9Ru7X7u5/25oadEssOVDTihNSOj0ck86Ll2gksH8sgzZSeAoJbD5fXnPcxzObywjOTDJSXvUKLaEhsGnw4Cb+YWWEf+t3oDcorKWf3ZYwIsi6vYcDh5LfeC53Kv6856dky5jX4Hhescq9fLsZVkm5oYSJJdEpLl5OtyrTZcf2vhcgFeiq/0LWEmFMGTiXlUtD3CH6oaWJ3jY0VlOEr6WFaJg6VcWLhOWezlba/rRfrOrwa/u1OCf/7pGv7pH1fwYXElA8pTRgtOGMxMjutNOKE3qnCZTq/kZv6W8FxSXKWoNkRTJ00tA67hCVzSmnHsp6s48NNVfHqbsm7JfU+xSjyDjcoJEFwSWArZSocQxg0fAAAgAElEQVRLXjkhn5TW7euOWvk7BHzs6CFk8ZUNOEaldEx2ZNsIKimeLQaWYlg80+EEGW7yXBJcdi/G4DLo5SVZCDBTA37kVUwutIpA/pXHXWKlZGaDwKgvjPZXYyhwPMCXxdU4U1CBz1mmZQUOFVXhEznDn67/VsI0hJcyUbuje7kpCCX935vPAAcJGvKswdFqDU5SfCVL3GlmLziJ4DLbbkGmo3HFsHgq4JJeOCi2eDwQYSMs5S0P8XVlA84UlOE4lRkqIg9ReWyUhY20UKIEdeb7Gfb3xrkfLG/A0WodjmvMyGyklwr+0pttcyaGy6a7zHMp4DLZw+IrbUZy7dJmju31L2I2FMaIbxFtfYO4YbuLcyUVOFFYhk8LS3GkuIzFgVOSoYDLWEhZLIHnXdZN6kvJmfOv1+4wqPy36/nM7pzQNYLA8qSxkYkAzFMGEytxddpkxAmjFofLi9Vh8c0AYKr34XGX8nymAAaDFFvZjYsFJTjw959x8NpNZqAPU/xaaRUzytT5cojkcCkA80PmvdwbRi+dDye7FmX1+Li0bkU9sq2Atjhf6sjJYB9hBtuEDDN5LAkqZbCUh8O5EW9Clt2JDLsD2U13kUdw+aoPXQq4pDqXqfNcJit2bmUnEA+XfNgzjCl/GMPzy2h52o+rRicuFNfgVEEZjhVV4DBLKKtkZTwOyhnA27n+4j6kvyWwrN8SDKfrHEkn2VB4dQOLr8yyOtlLDn/RacIquKThT7s1CpdSZJnFXCYbLpmHyL+MkflFtD0fwK8mJy4WV+I06QR15sUVOFRcgQPFlay0C8vKlpMk0nXt3ua/c6hCg2P1ZpzS29jLhhhV4e1dZDtiXkvyXtILcHZTE8hzSaWIOv2LLOZyJokxl5sBwFTuMxtYwqtZP/SdXfiGSqEVleCzgmIcLeJQeaSkHCQHV8Al9a2xupaJXm7367rt6P97+RX4l0s38U8/XcWHRRXsZZYqo5w2WHHaRHBJyTsxOW0047SJJ/SocJnihB1EaLb25TihdWFEZCFvJU3uHhKZ4AA6RydwxezAZ5ev45Ofr+Hw7SIcLpLf+jdw21NHTkKZ4spyCust79cHJvF5r/Y6Jd4vLpOeeVD4kCPVhDtYUYtPa3WsE8+w2JFtpxhLXt6FWvGZWibktXRQQo8D5xx2FPf1sWHxsYUwvH7htVxk9f+Sb1QJLinzdzPeSxrW3qxQcWxK3FnCvHcJs/4wJvwRPJ8MQNvRi7/UmZBRQN4AqlVYicMMHqoYQFB5mShEsAB5XitOVClY756wfbZRFob+3prCqidQBYX15ZNiqgOboBZsgioL4rds1CqHLreyHOsQuHfvkFxS5rTBjGyqTEBD3wqhdXw9bSOdJbEiw96IGy+esFJEY4vhLQ6L03A3LzhNRae58M9zfkoOouzbZTyb9EHv6sX3tTQMXo1ThVVMJ44Wc704WMzjLGliB/JoK68ZeS/fTYm3Qes7BMiTRF510iHSDfrMhsFpVMXsQLaN7BK3UVG7ZHdGYy1FzCW1bIjcasNVqQsdckIPFben0IaVCT1bT+ZJnn0Tdk1Z1YAK/pPQxA28RJLfT3G+y5gPhpm3cjIYhjQ8iaJ7v+G/KutwsohecHgSGXfMVMm5CjQcTo4aUR6N6oFSzgJN8lCXWEpqcSiR0P7R9fJ3o5/X+M4OtzP7qrCTa9k+9qytGh0gHRLCi7HzpJ0a0OQg/3a9EP/88zX87xsF+KxWi1OGRpw2WqLCs8JNOGlUiMmEkyae0HNCzha/pCb0pCYGczVYLgNhDpfhSJjVeloEQDWgZgH0hxZg7H2O3Pxi/Odf/o4Prt7GocIKHGBJERS7xmugibIZ67WsNpfc2RJYJlI88izFK2iq67il6viJft+66+Lhm3VwZFwqcaSSB8SflWvCKY3yWsuUJZ5ptyHbaWdwWdLXxxJ6xhaWQEM0FJPGC0uv9A4mxxBvxXPJYyZXdiDxHQrVt6OyMlQcnUooLWMuyBN3uscodqkTX1dqcJKgkuqqFlexYXBer5DXLGQAIUOEAAflvf+4qBprisJgKr+z3jLda9LnnUoqnoetAKXYNwaWtThYXsuGo45rjchstMoAaUOOfaVk2azItFMdw9j6LLsNGXYLbrx4yuFyIbIFuOS6QsBBSRGUmDbvJ6G4zTAmgxFQ9u2j/nHk3/0NF8pqcbKoAseKq3G0uJbVr2RQSWBJSV2yUIKXUsRw5LvWJnrBUt73+GUBlbSeXjQ+rdXipM6EzEZ6meDxlWvZp/j1zJtps+OS24PHwSVWioheFlbbhVTYq80eMwaV/OWZ6rHSDFC8ti5Vq/DLBdFnAmFMUMUK3wLsT17hZyoRV1LFMsFZ3efSSlZIPpaTIEqicaAkqIxJDXPMxGBxYzgku7OV/ZOx79q2auXzlRguY7+XwmzYb6falQVl+JfL1/Evl37FB4Vl+ILN5hSDytNGgkwaFicPpQIsjSacoOFwkwEnTQacMupYKaJLaimiVMElZecQUCokEoYYAhdgOQXAPTnHvJUH/34Z7/3jCj6+VYiPCyvwIcWuldXhY4p/KK2NFtYVBXYTtQSdZIDIeCk75Hhjptz2NiyvC5MKrxb91mgNUBky2dsqxbJV8WkcM8xWZFu5tzLeMCf6nOMkDyaVfbHjPHku5Wzx0RAVF6fs6sXo7CXJAcrNGuj4/TYHl9TJ+LxLmPctYyYIjATC6Biexh1nGy6WVuNkfimOFpThQFEFzwaPu76kf8KLLlrly9DHbCo/KheVSBIXsxbgFd++DbpLv0H5uwRYsNJXNVQAm2LpyDMpvJUxgBQwmeWwgUR8plYJl10ARkNb8VyuhEsCSpoikGY2mQiE8WouBHvPS/yD4vwKy1lsJY2wUNkpZntKyEPJk3eibRxYKiFzry8LOKZWnKtynXK92L52S3CzvqdS6ACz5WX1UW/locoGucauFRQaQSMpVNM0x0HhObGs8PWWqR5vjs2OyzRDT2ARQ1Qybc/B5WrPJU1ZyqYgDSwzbyUVRCf7NB4Eusa9qHoo4Y81DThD4Rj5pThYVM48kx+XVeEjJjwvgULIuJcyBllKuIzvKxN9jo4Gltaxe5lon1SuS2j32AjLymdO+VIS0ykZKOXrQDNjkZfyf/zyK/7t+m0cra6XvZQcJgVUsqFvowmn4sCSQHMFXJp0rBSRCpcpGh5nXkryVCqEFxLlc4JT3crh0CKMnmfIvVOGj364hIM3C3GIOuxSmltXUbhVBkyebMCHR9ZbJtA6VEKueiHkSYh5dvibUx0O0jBLnKyAgA0gQbnvbiwrO2T2EG3g9RL7i4eMHv5D5fU4wgy2DqcNjci2kieAjO8W4JKMtd2OXMdquJxjxcs5XO4uWBJobg4uvd5lzPkimPRF0O9dwt0Xw7hqvYfzZbU4U1SFY0VVbIpRun7KaykMLq2LTjm2xWWh94la8bdS1dJLBk2juJHQfrFhpWQsx64j/TYa8qRYus/rjCzGKVr6ioEEzQTFdU3ZktecZMU6hx1ZThtuvniGncClNxgBeYdoZpORYBiesRnUPpLwfY0GGfklLLbysBxXybPAafrGqlXCIFMBZ2vDVwzg9so+AiSV5yPWCc+sctv6yxwu4+Fjbb2uw4Hyenxao8dxrRlnjBRfSTaHRLxwJB4Cj4fMbKoq4HCyygLkuSS4HNyzcKkclQnB6wuxmcDmAjxhZzLE7dP916O43fQbLpbX4XhBKY5SGFlxJa9KICe7Ui5CLOE1EVSKdSJRdvULcrxNUtq4+G2p/sz+dsLRzPjnjjub4nVLVGt4L78U/+vKLfzPKzfwQWGp7K0UUEllzoRQwo4Rp4w09L3SaxkPlyeMMly61DqXKatzyQtWxoqjE1xSQXQaCn8y5cWvjQ4c+fESPvjHVRwprMBhmmCesr/L6/BhWS0+IpGL6PI3FTlmScQurdFSbFO8MLikmDN52ydFVfiYDD3zMJCXYXPyUVEVti3FVfhQFort2PZx5HP4mH6DQug3CRG/M76lIVsWe0cQUVaLz6p1ONFgwlkaSrE6kUcB8HJMG03nGG+cE31mngAZLi84ebY41bkkz+V+gUs+9znNIETDoGFQSZlnE35oH/bgb3Vm5BZX4VRRBb4oqsRRVluVG2GmozJkss6yhF5+KLEqXuhFZmODvd4+DLwUQBtvMHf6mcNlbDKCtYZqRU3ZmLdDdEyrWz4jUWwYbvVnOTtVfs6pMPqRKi2ONRBEOJBtvcu86JT5y7J/GRyshEgCSiVcRr2X5M102nDr5fMdwSWVdJkOhjHgDaGtbwA3aYaXolKcLijGcTkT/BM2Zzzv2AgiE8Hl/l23cq7z2It0Yoje+HdSybjVz0Ii/eWxlVwfThscyGwk+3SXJXORJzsWa7s5ryXBZZ6D6qHSsLgbD/0hDIYSey5pXvm1iqFvd/1OXrApxGjOv4TZYBhTCxT/7YW+owc/1JuQU1iOY3eKcaSgCEdYog5/FgVQflBWDQJMAZnCexn/DFP1FSU0rrdMffQHZbX4sIz31/R5LVnvONvalhAsKXQu/tlLDJdUUug/bhXhf125iX+/WYCjNQ1ybKUZZ0yNTAgmBVCeMtJMT3o27L0ZuDxUWYJLKlymZlhcZJgTYNIyTXkUDEcwHVrEvScv8KeSSgaWR3+9g88Ky3GUCuDSDAEU/8eGluROjtbRDDxMqnC4eHtC5WEOFVUyiR2Djrv28Y6UVCOREFwcLanB0dINhPaJl9IaHJG/92lpDZjE7xN3bNp/M0LnEz2mYvlocTWOyEIzGdF1PlJei89qNHzKPLkoeh5NmedoYtM45rAi1A5WjJoKUq8QJwXFO5Dl4AY9O+q5dOBikxMi5nI0xKdGZIkxPkUQ+jplg0SgOrU7McSJvsvnCqb5gmPxVWIdxS9R8hHNujPlX8bTcS9q2zrwfUUDcvPLcaagnCXvHKOSQ0XV+LSkFkcpKJ28vyTRAPU6HCrmcpjaknrmQWdezdJaHFRI7DvK7ydepu8p91ceJ36bcr+tLB8uqWEzXZGObCT8WaXndX3Z6DjR7RSrWFqLz6u0OKW1IMNMyRlUZugeS9bIcdxFLtUoZHpJ3vWVQ+AMLh0r12fTPk12Bpc0t/hYiArfU6waxdXG5oxmw42rdJLXrvRREerAEl7PzMPR/QS/aPTIu1OA03cKcLKoFJ9TIWo2HE5zMnMhr9GBktVCALrrQvF38eeRaB3tE10f/xKuHHpMcLz448d9ZtcmWrSbv3iIFxmuT9x7Ts/V0SoNTmgotpISdrg+UIwlvfgqvZakF2SjmE1a0VKyYUzIVuURYLJhcYLLIKiIOpWSCrD54Ll94HYhpiNKfUn7cmARgcAi/MEwyIs+4V9G98gEqlva8ZfqBuQWlSKjuBzHaWrRkgp8SjMU0YgUjQCwkQjelx4qqwUTlrRTjcOlSuF9zGFhz9ZK6olbT6N/JGsmAaVymzwyKUaMaNpnmlAlXvg14DpFHksqiP7v1/Pxr9du4aOSCjbjXCxhh7yWZlazkryUpwkqjTyW8qSAS5a4E+e9pHVyzCV5Lg9VluGS67E6/aMAwVS0IsbSt7CIJ4MjKLM4cez7v+F3f/gGB/5xCQev3MCHV28y+fjaLQj58PINrJab+PDyLXx05XZCoW1sO+2jkE+u3IZSlNuUy8p91ls+cPUOEsl63/n4ym0o5ZPLt3FAIet9d63fm2g9/Y01j3X1Dj66dgcfXi/AJ/klOFJeg89rNTim0eMLnRHHtHoc0+qYfK7R4HNNPT7T1LOWllcL7aPF5w0afF5fj2MN9TilacDVzk7cGx1H78gk3gxOYKB/DMMDoxgaHMXAwCgGB1fKwMAIhMRvS+7ncQwOTjAZGpoEyfDwBIaGxtly/+A4Xg9N4H7XU9zQmJB3+SZO/PwrPv3lGg7/8isO/HyDycc/3cBHJD/fwAc/38B7v9zC+5duM3lPbj+4dBsksfW38LvLN1fIe5du4v04+d0vN/CfP19fJf/x83VsJIm+l6p1dJ7rCf3d//jpV/zHT1c3Je9fuoEDN4pwpLASx6o0OFanxzGNkc0N/VmDDp+TaDT4rKEugR5y3fyUttUrpKEOx/QN+NH1GK0zc3g+PoM3QxNMB0nf+t8MM0mkY6QT/QNjePlmBG2eXpRZ7Pjj7Xwc//FnfHH5Gj6/dgNHrt3AgV/JdpENu4GPrsWWP7h6A0p5/+oN7F+5ifev3lLIzn4Lv17c5gvbT+0Hsnz06x18fLMAn9wpweGyam6jGvT4XEP2yYAvNLoVcqyBPJvcXq20UQ3cPpGNEkL71jfgi/p6fNfcDOvQMHrHZ9A/PIWhoSkMDkxGbcTg4BizVcI2pbNV6iS3T+MYGp7Ci9ejuPtYwqXqWmT+cgVf/HwJRy5dwieXr+Cjy7/iw0vX8f7lm3jvym2QffndL9fxHhPqT3n/qGw/uHwL8fLh5dv48PKdPS1kZ//zl1tMfvfLLdDn9y5RezMq71++hfev0LW4gfeu3cR7v97Gv125jv/x0yX856+3caSiliWFnTXbWKJOLLaSknYIHgkYY9Ao4HGj9oRRj0OV5SpcpgIolcfkRdKB4ckp6Jx38UN+Ef7r+k1cuJ2PnPwCZNwpwNk7hcjIL0JmQTGTrIJi5MRJdkEJsgpK15XMghJk5pcgO78UOXGSzdbTtpJV28S+uQVliJecgtJV6+L3We9zXmE5SHILy5FTWBaV3MKVf0vsx/aVzyOvoAwk6x1/o20rzr+wDJlFZTieX4JDt4pwsKAMnxSV45OSMnxUUooPZPmwtAwflJTgg5JiJh+WFuPD0hKFiM+loH2ZlJTgo5JiHCotwV/u3YPu2Qu09TxDh/QErs4euDu74OrsgtvVDZeriwktM3F3wy2L2JaK1u3uhdsVJ7TO3QOXqwed7l7cfyShXN+I724X4+L1ApzPL2U6k11A966KS0EVsplUIquAS2Z+BTLyy3H2TjnOFpRFhdZl5PPPVFRbKcr9xPKZ/DKsJ6fzy0Cy3j7p2VaKM/kk4rfS71aK8hzFvolauiblOHGnFJ/eKsZhORHh45IKfFhcjg9KyvF+cQneKyrCe0WFUXm/uAiJ5IPiInwoywe0f0khvmqyQ/eyDw96X6LT8xQudw/XQ1knE+paZzc6OnvQ0u5Cqc6Iv90pwFc3buHc7QLk5Bchq7AYmfkkJTjDpDjanqX1d0qQFSe0L8Vo7i8pRkZ+aZzs7DfQdSBbTnY6KgVlbOrUswWlOFtYhpOFZTiaX4wDBSX4qLCExcN9UFyG94vL8EFRKT4sLolJUQk+KC5OqA+kO/HyQWExPiwsRJ5Oh+ruHrQ9eYlO6Skk9xO4XSTCRnD7lFA/ZBuWsm1CN2WbSXayo7MLzuYHyK+ux5/vFOC/bt/BuTv5yCooxJnCQpwtLGXJPGcKy1nt3TN0LQtKkUFC9/AOl8w7ZWASva/K+0l9bDmy8suRuYFk5VeAhPbbzP4bHW8r25lNvVOGsyRkg0julOLsnZIVcuZOMU7dKcLJghIcLyzB4Vv5+OjmbXxRUYMMrQln2LSNFE9JsZXKZJ3tgSWBZyK4ZDMQRiJyQjNvlZz0Niz/H+n+EQSXi+EIXg0OobG1Dcb2h9A97kBdZydqXCQu1LjdqJUkvkyfZal1uSCkxuVGjdvDpNolgaSKiZsts3Xy9lq3B3VbENq/1iWtlrhjsP0S7Uvr4valv688bo1LYucePYZif+V+7DzcHtQrJNF3Nv37pO7oedA5lLvcuNb2G/7YaMP5RhtySCwUIG/DWasNGVZqrThrteCspRFnLGacaTTzlpaF0LrGRpxptDA5a6ap+Mw4Z7Oh8MULPPYFMORfxMx8CPNzQfi9IfAYpiDm5wNJj2WiY64vQczNBjA3S20QszMBJnNz9D06pwXM+xYxOjWP9t4XaHR1Qy/1os7Ti2pPD5M6qRe1a0iNuwc1rm5Uu7pQLXWjSupCjdSFWrr+Ujdq2DHoWFxqPL2oSXAsWif2UbZif9oeFflYyv12dVnqQZUsmz+PJ6j2PEHRYw9+cLTga4sT561OZFscONtolfWL9MzM9DGD9NLayJaj+mnh2+hzhqURWVaaV9qCTGsjMmxmXH3SjcfBEPrnApicCWB6xofZGR/mZv1c5vyYJz1QynwIs/MLeDM2jd+6n8LukmB0S6gjO+WRUNPVjVoSugfuXlSz+/aEL5MuuLuZVLu7IaSK6QXpRuqkUupGcqVLPl4PKiUhO/8bdA3oOWHPirsLlS4PKt0eVLgklLk8+PW3h/jW5sQFKj9lsSLTYsVZslHUNlqR0WhBBmtpmw0ZFrJDJi7MZplw2mzGaXPMRglbdcbciIzGRvz0mDzas+j3LWByltsDYRd4y/WEdGUvyNS0Dy/7R3GvwwNTpwsN1CdKEio8HpR6ulAmSShzd6HM3c2uYYW7i9mtWk8PaqWeqN1g+kh2ykX2iW9b2T6R7Ry1e1Nq3L2ocvegyqWUblS5ulY+d64uVHS6UeaSkP/YhW+NjciqqUV2vRbZOgPO6g04ZTCw2EoRX8m9lVv3WAqPJsHlgYqVw+IElxQiyEdyVbhMSqIPXcylcARvRkbheNAOh8uFRrcLeskFvccFnccFjce9WiQXNCvEDY0krS0eCRqlrLfvZre51/t7Hmg9SumC1tO19vlt9m9KErSSBJ1CNOI8RLvOsfg50Xl42LmIz3RuJPUeD27cv49vLTZcbLQiz2pDLssQp3glJygmicco0Wde3oVKukSX5XWZVFfQZmcJPxQkTzFwlFjx+7tNKHvzRq5zGQYlQ1CWdkCOaRPxSsqYSLFO2Sq3b2aZwHVjWYCP5oGW54LmRZN5LChL6KGi2NM+PHzyAlaXB0apCxq6ZpKHCbumbg80QiQPGqIiod4ti+RGvSwNkhsk9ZIUPY44HrWx7/Nl5bb45a3sG//d3ftM12896UGd1IOSR2786LiHry12XLDSPOG8WH80gYwyvx28lmq8LirXkx5m26gephU5bH8br3MZiWA8FMEcK4rOS1QJfUukX1TrlOIthyfm8LD3OWwuCSZ2v9yoo/vpkdDg8aDB04UGqQsN7u6YSN1sHbvmHg975ui5S490oc5D0p0EoeN4ZEnG8cQxumLXjq6fLPXdZJ+6UOvpxq32R/iLowm/t1IFCify5DnBqQB6LEucZ4yz+EuHA8wm2a3cVtltyLSRcBsV1SO5XFGu3Y4rkoRH/gArUeUNrIzDFbqxW20inZz3htA/PIE2qRuNLgk6N+mihGoPiQe1dK8kD2qZcP0k+0XC+iaPBxomsX5N9AvKVuPpwXqilXqQSDRSN0gSbUv2Ol1XL7Qknp5YS8vy7xW2kmw2rWvoIvCU8DeTGZnlFchr0CJHq0cGgaVBz2IrV8ZXijjLrbdKuOyLRECVcVS4TEFZIkbq4Qj6h0fh+O0BHJ2dMLseQy89ht7TAb2nExoGmASZMSHoXC1u6DzSGuKGxu3atmgl+nsrj03r4o8Zv4/4nGhf+m5s+/rnp/Mofht9TyHaHfwu+vv6Lg87D61HQr3HjZttrfjOYsGXFivyqBNms5mQcbbHiWyo5U5dZOTGOnc5oYdqXDKx4csmJ4NLz8Iyxhd5AgUFxwfjkiiSabQTGeJE63zeBXjjxCdDL83E4gtwuHwUhQkJeoJ9uheSC1op7h5KLjTIwl+Q6AWHYLJTIR1okEhi+663HDtO3MuS8sVpXy2LDi1RSx1fNxo83Sh97MIPtiZ81WjFBRuViuFVCzgcEFhyuCTd4y829HKzWqiYukj2oYSebLkUESX0jAaXWbat17u4wnNOtQPj9ZFeiOiFY2R8Fu09MbgkHaCXBfEiS89U9GXD7YFOoo6cOrTdvH90rTlU7Kyl44jfkYzjCdDh10fYRtFquvh2AuNbD9rxZ5sd/2W14ZxcPkhM5UjJO1ROiCCTwJLDJb0U85dgslN8mVpKPnSukCy7HeecTlzzePA4EMTYYgR7DS7j9ZE+z3uDeDUwghaXhMZO3keQLaknYX2nuFcS0z/SQXFtef/C+1St1AmNLCv6HXl/0l8Ooatb2qYjkXZX9Ipz4M4Y3sfFfi//7ew5ZM8sjWZK+LvRhNyyCuTVNTC4zNSrcJms0ey0DouHwzTVY4SVuhwcGYPj/m9wkufS1QG91AGd9Bi6LcFlIuB8+9Yxry55dmVZDdnb+81ajwu1nk7cuN/C4PL3BJd2KyuAHv9mr+zMhdFeq6VOnLyW1KnH4HIJbPpHys710Yw33DOQCPr2wjoGmcEljE978Zjg0u2B2SPBsIX7QNeXXpCopXvGP3dA4+mIrlPeS+XLlFgW31XuJ5bF8Tezr/jO3m7dDMTIc1VGcGlvwldWgksHmyucCvOvpXMbrWeZ4rLnkupc9gCYWIgwuOQea16NgErKJNI/0gfaNjQ2jfaeZ8xzaaTRhBUdtvo5mddDgDCDy9/a8b3Njt9bbSyzm0ZHojaKvWjEeyQ3ryvZDhuDS/Jctvv8GA4tYY4KlK+qGLC31pHn8tUgh0uLq5P1DxvZgmT3IXvbnqzuF7VsVJS/bJE380eDGTklZTjXoOFwaTDgjJGGxbnEMsO37rFMNCyuei5T4LHkUJkALjv5sLhO6oTO3SEPi8c8luJh2W9KvB/OV9vlRn2XCzcVcJnL4JJmM5GNtTDcYkh8E+1acEmdOZX3UXou96oBJ5jwBZYwNjmPh+SpIriU3DuCS9IJraczIVjSNqHrynY9uIz/zn7QufXPkcMlQUXZ40784HByuKSaqeR1TBCOsRFUiu2bhUvhuY7XSwqxoM58aGwK7T1PYHO5YXK7oZdohEGVVFwD7i3rQp3UjZv32/G91cbgMtdGHkmCRyEiTEd8Fq1Yv34bD5cjC/sELn0hvBwcQbNbioaWCdux/nO2Grrelf1XwmWXDJflOK9R4TJZHktxnL7L81EAACAASURBVN33XAq4dBNc8rcv6lDj5V1R/nT+ToLLOk9nYrgkw03egU3AZPw+8XBZ3t+PrsVljIfC+xQun8EqUYzd1uCS7uVGcKi83/E6Lz4r94lfFvts5e/EH2PvfCZI416FcgVcnmdwSR719SEhXg+Vn5lOKobF1/JcxkOl+MzhMijDZS/sLhdMcqz43rl+bxk0sKFWis9NBJfb1wWlXtAyweV5px1XJRce+f0QcLnWi4bQid1u530h9A1xuDSzkKvYC6qqk4mfhZVw2Y0f9WbkllakHC4/qSjDL67HUD2X6fZcuiheJAaX6oOR+MFI9nVR4XLtYS7uuVzE2OQcHvYQXLphklxb8lwm+369/cfjcKmVuqCEy3NJhMscOeZyp3Bp6+xU4TJhHHzybJde8kBPyVEphsscJ5+m9prHjccBP0YXljHrX8Beh8s58lwOjeCeW2K6SC+Yqudyff2LwSUl2XXj71G4pIQeHTIVw+JsFp5owfSdDYt/UlGOn10dKlwKt2ay22jMZQSIxlyS59LFwVJ4Lt/+TnT9ByBdv39juKThpa17CNb2XAJeedaL/RBz6QssYmyKw6XF7VLhMsUwwYdWPUgMlzsfFqehdTFDz1bhkrxUlEAxTMPi3b1Q4TL1NswQB5ffWW340moFHxbful1ay5blOAgubYjCZWhpX8Il9RsqXK6vl/FwGfNcapGt0a6CSxE3uZOWssU5XHaqcJlsqIw/XjgCDI2Ow04JPSpcJsiCX/8BSRZ8rg+X2zfebxNcjk7Nor33KVS4TIdOKjyXHS4Wc/m1zcZqpSYj5jIKl33PWUIPK0VEJYbk8lgbDXOqcJkOHVD+DZ7lTCWbbt7/Dd9ZLfjSakkqXJKtosTDfQuXg9xzKcr5qXCp1J/VyzG47EK9ixJ6GnGuvCrhsHgyknkISpVw+VItRZTa+cWjcNl2X4XLlHuDVj9gAk45XK6R0LMNj6XwDKhwufY1F9debRNdo9TCZR5VMKC5xaNwGV6VLb4eYHp9Idlz2aN6LtNit3gpHaqtSXD5bZrgcmyfeC4p5pISemhYXIXLRPZk9bpVcKk3M7hMlC2eKrgMqnUuUweYUbhsvY8m1XO5S55LCdouCXVU5/I+r3NJpYii2eI7gEuCTBpqIsikUkSV/f3oWVrGWDCCecoWl0sRBf28/Mt6HfpubRMxl6rncrWBTh0Y7wO4HJ/Gg24VLlOnA0p9Sy9cUkIPxVyqcKm8B2/XMsGlmEiEeS71ZuSVVbJSRNk6fcqHxclzqcJlqpJ6IhEsi5jL1vu4q8LlLsAldeIElzTbhoSb9+/ju0YLkgmXonAxwWXVm370LoUxFgzDy4YglxDyLSGkwuUu3Pu93FnsfbgckeHSqib0pEF30wOXFC5Bw+IqXO5l25Csc+M2hiY3UMJlXoMGKlwm16GY3lJEDCwjWIoAA1REPQFcsnqXaRlySZay7sfjcLjUMbikIaf70Rl6kuW5zGKzYvDpH6v7B/B0KYxxGS6D3iUs+JYZYO6WZ3Kjv6v0XD7sfQorlZ5Rs8VTDBSph8vcu441h8XXKqAudIV0IgqXLheMbBav/fj875dzXgMud1CSSoTuiFaE8MTgkqZ/3B/Z4tFhcZdbHRbfNDPIfR+bopXXuaQZenIbNMjS8ekfqYh6sjLFE8VcRj2XYQ5zy/Ic4/G5Kfv9swqXm1bK/WKQN3OeMbikuXtvtLXhT5ZGXLRZQXFpZHCF8d1ea0cGHYOma3M2oX5wCM+XIhgPLjPPJYNL7xKC3r09LE7TAI5NzuJRD4dLggma4SI9Q4Lv4t9JD1zefvVCTuhZGXNJtSwFSCZqV8Cl2wUjK57+Lt6ndP1mgksaXenGjfvt+NZqxUUrn84zk6b9lGV7Nipm46gU0TmHDZepzmUwiJFQGLN+mu5z7VJlifQj3evoZUjM0EMxl2SX1ISezegm7//YDD1GE/LKCS4bkKXX4mwSZ+YRGeYioecXF88W94mYSxUuk+cqZfOKR1TP5e7DSWK4vJBUuLQzuPyq6S40Q8NrwOXSup15uo11/N+j+XsFXNpkT5X+nXwZ2YzBTsY+qYfLnHsO3Hr1AjS3OBX1n4vLFg+sAxRe3wKGJijmshdWFS7T8JJFcNmlgEtbSuCSQnjyZLh8GAypcPnW27iVcHmugsNlpgIuBRgmo10PLiGP5hIb7XdPZfz5q57Lt/5BStTppwEubRwuv1bhMg2dcKJ7vB/XrQGXNFe9XDJmu14q8sazbPF7Dtx89QJdAMa2CJc+vwyXPSpcpucFWYXL+Bde5Wfl3OKq53Ir9i4BXGo0yDToop7LZEClOIYKl2kgZ9VzuZUHIJX7ph4uz1r5sPjXd++hYXAIzxYp5jJ+WFz1XKank06lLiXz2InhkqZ/ZGC4g3CNpMBlYJF7LlW4TNMLkwqXSpiMX6a6qzQs3ur2sJhLdVh8s7ZoJVzmkedSm3q4/NnVCcoWV4fFUwCbKlxuVvlTvd9KuLwux1wmc1hchctU38O38fh7Hy6HJ2bQ3vtEHRZPy4hPeuCSYi7347C4CpfbtYG7C5d+RcylYCJ1WHyHwCkupJotvt2HIlnfi8FlXVcXGFw2xhJ6djoESUOXmTYbcqw2/IGGxYdH8XRhpecyxBJ6VM+l6rlU6vQ+gMvJGbQ/eQqb5FYTelIOmKmHS2W2+BVW5zKE0X2S0KPCpdJ2bGU5Bpf/oISeNHsuVbjcIUjGB3fSZxUut/IApHJf/nCxOpcKuPxSTuih6dBIthvfxuHSilyrVYXLlHfAqdSTdB979+EyfuhR+Znmmh9WwKVJzRZP8fB4euGS17kMsVjc/ZAtrsLldu2TCpeJ+CzZ69SEnney818Nl980NuJLKy9FRGC543JEthhcakdG8TQu5lL1XG7XML7N31PhUvVkK/VbhUvly038sgqXSl3ZynIMLn9UeC4z9FpQjcvTRgNEMk4yWpHQI2IuVc/lrnkut6Ik6r7b64z4wyWKqNOw+LdmDpe5DvuOPJZKb2eezYY/3b0H7ejYqlJEKlyqurtad1MLl+dobvENssXjO3DlZ9VzmW6dVeFSqX/xy2qdy+3qowqXyfZSJjreHvRcbldh1O+t7qzXuiYxuKyXPLjemmK4HBlV4fKd9JCvpX9rrU8dXJI3nuAydydw6ZeHxXt5zKU6LL7WfUzW+t2By/0Sc6nC5Xb1LP1weaCiHL+4Oli2uOq5VD2XKY4n2u6DkYzv8YdL6/GgluCyrQ3KYfEdD4k7eLwmeS6/udcM4/gEXixHMKEoRbSfPJcP5Rl61Okfk6F76x0jdXBJOk2zsOTes+P2q+esiHqiOpfx3qEVn/2LGJ2YwaPep7BLbpi63NB30Tmv95vUbdu/PumBSypzRbpxRXKjI7SA4YUIZllxfXWGnu3fu72s9+mASyNOGo1seP2EQYcDFWW41PEYryIRxOASVEOd5aIk8vzt93Wq5/Kd7BhicFkjSdFscZHQk3S4HJvAy6X9DZcWtzq3eOo7mtTCZZ6T4NKG26+eMbgcXaA5pJfg81HVgg2mImVTQ4YwOj6Nx71P4fBIKlym3HamFy7Z9I+hBQyGCC6X1ekfU35/dwtA0wCXRhNOkpgMILg8SHDZ+RivE8DlfofItc5fhcu39gFa78FV4XKFR2qNKf/E9I/kuVThcj19Sta2/QGXj3qecLj0qJ7L1L5wqHC5np1Sh8W3a3cSwyXN0JO0hB4lXBr1OFBZhl9UuEzdHJebK0W0XYVRv7d5Q6/C5XpGW2xT4TLdz1R64XJsIbxpzyWbc9zLPZcqXKZLL1S4FLYoUatmi29XD9MLl6dMRnxSUarC5VouzmSsV+Fyuw9Dsr+nwmUiYx2/ToXLZOvdRsdLD1zeef0cXYhgbAvD4qQLfm8II2PTUOFyo/uYrO0qXMbbJOVnFS63q2cxuExZEXXZc3nKbATB5YGqchUukwGRax1DhcvtPgzJ/l5iuLxItSkddlbjMhlxl9GEHjXmUk362FT4yT6Ey039rmQ/v+/K8dIPlw+DoX0Tc6nC5Xafg3TDpUGFy7WgMFnrVbjc7sOQ7O+tD5fJmKGH6l2qcJns+/a2H29/waVRnaEnxS9NuwOXQ/skoUeFy+3aw/TC5UmKuVQ9l6mLtyRAVeFyuw9Dsr+nwqVyeGmtZXVYPNl6t9HxVLjcfNz0RtfybdiuwuVatonWq3C5XR2PwSXN0JNbXo5crQZJnaFHMSyuwmUK6lrGezxVuNzuw5Ds76lwuZ7RFttUuEy23m10vHTD5RYSehLEXKqey43u5063q3ApbFGiVs0W365+KeDSYERuWTlydVoZLvXJmf5RAZcUc3mwugKXXGopIsRDYbI+q3C53Ych2d9T4TKRsY5fp8JlsvVuo+OlBy5FncudJvSocLnR/dzpdhUu422S8rMKl9vVr7Xh8pRBD5IdzymugEvyXB6spISeR2qdy2TBZPxxVLjc7sOQ7O+tD5eUzLPThJ7saMzlPZjlhJ7x4DLmfUsIeJcQ9PJWaSz30rLPtwCffxFjU7N42KvWuUzPcG1q4TJXLqJ+59Uz9AIYCy1jbpNF1OlFw+fjpYgeUp1LSYIKl8m0S3TvE4mEek8Xbt5/gG+sVlywWkEx4ZmOmFB893aF7Fyew4FzDgeuSBIeBRYwFALm/Mvws+L6e3eWnjlfCH2DI2julFgdXr3HBa0s6Xlek3n/03ks3v/Vu9z4UfZc5mm55/K0Qcvg8pRxZ4B5ymgCyUmzCSeMOhyopFJEMlxGAIS50Aw98Zz0tnxWi6i/k9me/OGi6R+VM/SIbPHtGmrl93Kb7MhzWPDt3SZYxsfxYnEZY8ElzDGDLcCSZkbZm8ab4NLrX8Do1CzaVbhMceKG6FhILz3QSl0o73DhB4cTX9tsOG8nXbIzqFDq2JaXm2zIuWdD/qtneEJwSfq4FbiUp39s7+mFTXKrcJk028ntkc4jQSl6yQ29RN5LD27d/w3fWC24YLUkGS5Jrxw4b2/CNbcHnTR/PIPLCHsJphfhqPgWwOqdbsJm0cvIZmQn9m/GG8TzgWHc7XTD4nLBKInnSG3XhuuYrjG41BuRV1qGcxoNMvVanGFwqcVpox6nTIZtezBPC7g0mXDcpMXByhJccnG49DK4ZPM+vrVgSYCswmXSDOR+eqBTD5c5TvIIWPDdvbscLpfC+w4ufYFFBpcPn6iey7WNdTL1PrVwSTqZe9eGgr5n6I1EMLpFuPQTXE7OQoXLZN5zOlasw18XLm2phsuulXApj7IIuNwKCG4GLGmfrRwzft8Zb4DBZbNLgtXt5nCpAuYGL8IxXUsLXJpNOG7U4HBlCS67HrK5xX0gryWHS5pc/G3xVMb/DhUuVbiMzi2+Hc+lGEKPH0bnnksrvm9pZnD5fHFp38Gl17fAh8WfPFOnf0zLc5J6uMy7a0N+3zN0hZcxElra/Aw9bFh8ASMTM6CXDdVzmUzAjHX4uwGXuQ4nztkcuNopocO3gJEFYM4blofFlxDwLzOJh7vd/qzC5XZ0UNa1Lg8EXOaUlCJP4bk8bdQxz+Vpo4El92zUnjKu9nBGPZdmM06YtAwur3S043UkDC/4ULgAzHgoe1s+q3CZlk5zOw9BKr/DHzAaFq/zeHYEl2JokmKgxDK13HNpxZ9bm9E4NobnC/sXLh89VeFytz2XuUmIA6aYSwGX3ZEwRrYwQw+BBIVKjIxPg/RBhctk2qe9AZdXUgiXO/VSJgJZFS63roNaKTFc5jY0IMugw1kGlsmBy9MmM06ZzThp1kXh8o0Kl6lx1aoJPVt/GFLTqScXLkVwvRIuhefyL60tsI5zuBxXxFzyYHlKkti7MZfzNJf01CyDCYvbBZPkgkFyQS9Lau7NXtGR3TgP0svVMZfn7HbsFC7Js05weU4eFu9GBKNLkU17Lqlzp+xcDpfP4fCoCT3J0//dg8sshx3Cc3lNwOUiMOvbvueSxWt7Q0xfSGfiwZDWCYnfttnP9DeicOnmw+Jkm+ieUFJP8u7N23WsjeDyTBxcnjEasJGQ5zJeTptMOGMy47TZjFMmPY5WlOJqRzuicKkYGn9bPJXxv0P1XL6TD2Jy4VIJlWL5nNOO8zYrfmhrhW1kFE/8AQzO+jE548fMTACzMwHMzPgxNxfAvCxebxAk8/OxdWIbtbSvcn/lNrZ91o+5TUj89xJ+dy6A2Vk/Riam8VAdFk9TZ5VCuCRvut2KC04rip4/QWcwgFf+ICbmgpidDWJuNrBKd5heKHRuds6PobEptPc8UT2XSbWbuweXmQSXTicu2B244ZLwcNaPV74lTM6GMDMdwPS0HzMkM37MzviYjiS0F5uwO5uxTWvtMzPjg1KmZ3yYmvXh2ZtBNDO4dPEEsy63Cpfr6GYiuMwuLkVOXT3OajU4qW3ASb2GySmdFqd0ug3lhFaL41otTup1CqGSRkacNhhwUqfF0bISXHvUjjfhMOYBLIGyeij0MjWOvHjQ243PKlyuo4hv79tfcuFSDImL+EsqFXLBZsPXNgd+bX+EpsEReCam0TcyiYGhSQwNTWKgfwwDA6MYHBzF0OAYhobGMSzL0BB93rrQsbYr4m9TOzI8gdGRSYyNTeHN0Cjud/WoMZdpeU5SB5csVMNhxQWHBfk9Hjyancbz6TkMT8xidGwGY6Mz7J7TvR8Z4fdf6AHpwvj4NCYmZ9E/PIYH3Wq2eHJt4+7BZZbTgTyHE7+3OXCjw4X74zN4MjmPgZFpDA9PYVi2V4MD4xgcHNuyfVnLjiWyU4n2FftxG8lt4vDwBEhGxqbQ/eIVmh53wuLqZHBJXktNWp7V/erRlHVNEXOZXVSCrNo6nGmox/GGWnyhrcdxDS1z+aK+Dko5VleLY7Wy1NXiszj5vL4On9bV49P6BtDykaoKHC4owI2H7egP85jLJapBpMJl8shaHRbfKw9kcuFSeCsJKmk+8Qt2O/58rxkFnh44h8fQO+fHm7kgxmYDmJz2YXrKJ3sDfJieno/KzIwXe0XovOhchsen0d77RIXLtHRYKYBLuxwLbLMg29qIb5qbUP+6Dz0+H/rnfJggT/osealJfFERejg9NY+pyTlQS+sGRibQrsJlkj3ZuweXOU4HLjib8O3dZlT0Pod7Nog38wsYn/YzO0WeS/JsM++2YpQl0eiHWEejKzTqERPyOnLbFlun3M6X5+ZoJGeliP3F95Xt5PQ8nr4eQDRb3MO9lipcrtfProTLv+sNILjMrqvDGU0DThJY6hpwgkSzWo5rNBDyRUMDSNhnrQbHFfKZpgFfaHX4oq4WR0qKcKq0FJrnzzAaicAPYPkt9lgKL+muey6djzvR6OqEzi2L1Jlkw7Weor2r21bC5Y22NnzT2IjtZIsTWJLHksDynN2Gi1Yr/trcgspnz9E+58PL0DJGFyKYCUXgDYbh81NtS8rAJFlZikOU71gr7khsT0YbDCxBKfHHZOfgX8T49Lwac5kWsKRnUdZLyYPyjs5oncvtxlxSIf8cKrZtsyCj0YRvW5tR/uI52mdnMRBawpgvhBkvzdG8CK+Xx1SKWDiKafNFY+N4uAZto5cNKqqvJvQk03amFy5Z/K3Djmyrhb0Mf9vcisKup2gdn8WbBWAiGMa8dwk+7yITHh++vZq8pEPxspZ9W2+90j6J/eZ8QfQNjaLF7YFNLuqvei430suYrlG2+N91HC5z6utxVtOAU/KQOA2N07D4Gb2eyVmDAWdIFBnkYjYfFm9pMuC0ycAKsJ9ms/wYcLxeg6PFBK61KO/pwZNQCNMAQm+5x1KFy7R1mBsp+25sF3ApoV7y4GZrDC5zHPYVWd/CKylailESyxwsrchzWHHOZsHvrRb80NwCzcvX6Jzzon8pgvFFYIpm5gkswUfi4wbb512AXza8okMXRjPVrTDUa/0d2k7bAoElFS7T/pxI0HoklHd0bAMurchyWJAtS14T1Vrluvn9/VZoBgfQ4fXjzeIyphbCmPEvYo5BJYElzwZn9z3upUepJ6wUUY8Kl3tlWDwjrkqF0jZx+8RffkXIDrV5dhvO2/iL8N/a2lDzqh8d84t4E4pgIgTM+MPwsckeyA4oZfPJh8KGKHVHuSxs0E7aef8Cm6GHwSXVuVQ9l5twTCWGS8oWz9A2yEXUdThl0IEg8azRwCTDZATJWZMRZ2QRJYrEVJG0nrZnGA04VlWNz0vK8BdHE+wTE3gRDmMCYF7LJRkuqcalWucySS7cRMPiqudyd+GyTnLjRmsrvrNY8KXNumLaR5EFnumwIiZ2cMC0Ips6bocVX9ot+KPDhqvt7bAODON5YAlDoTAmgsuY9i9jnskiqG6k8AiJt3mlwd1zy7LnUk3oSaeO0tDeGnBJLzZO0r/Y1H883pegUgZLO83gYsE5uwUXHVb8wenAtUePYR8ew4vgIoYWCCDCmA2QXlK1gq1VLBidmMGjnqewS26YPDSDTDqvzdv6t2Id/mbrXAqIJLgUMd9inWgFUNKoClUbYFBpt+Erhx1/uXsPt10SnKOTeBFcxugSMBkCZv2Az7esgMvNA2Uq7VciCKUZxF4OjqBFzhYnXaQhcXVYfL3nJKZrUc9lcSkYXOo4XBI0igxxAZfUElyeMerlGpg0gw+JDidNOrZ8hkoZ0VB6RTnO19WjzNMDKRDCOMCSeAIAFhlYvr1TPgqvJbXqsHjaPTPrKX66tvFp1ajsC8Hl9ZaWKFxmiRi1FR04waVFBkzeuRNY5lIHbrfi+yYHbnZ0oGloFH2BZYwHI5gK8Hmbvb4lkNBbNoFlKg1wso8dCCxiYsbLimarpYjSp5tbh0sL91jaLUwnz9MLj8OKb5scyHe50TI6ib5gGCPBZUwFw3L5oZUhGRvqDnnZaW7xyRk86lXhcrc9lwIg14NLAZ0EluSp/NJqw1dWK35sbkHt0xfomPFjYDGCqQVgNgDM+yPwsRJEe29e8YRwGViMwiVN/6jC5WZs1Gq45EXUG5Chq2eey1VwaeDeS/JK0rSQvMi6DqdNVA9Th7MmHc7q6nGqphKnS0vw3zY77g6PYTAcwSyABcoOj1CcJXNUyg7L5OWyKIFuLy2rcKnCJW60Elw2snjJjeGSx7Gds1vxe7sVf7nXhLIuD9rGJ/A6uITJUARzwUjUK0TxSuQdUuFyM4ZP3YfiLmNw6WBzi0djLtfwXNIwOL3onHfacNFuwVd2K/56r4nFOT2anMVAMIyJQAQzAZpLnDzofKhzs/NEM/CU4ZKGxR/1PlM9l0m1m7EOf6uey0ynDesNjRNYUuWKryw2fG9z4Hp7O8yvB9BN8bMLwGQgjDnfMry+Zfj9VNuSZO/Bpd+/sGqucuG5bJU8bG5xFS43Yz9jusY9l3okgksx5B3fnpLrYFI9zLMGHTINOmSTx7OiFOcqK1D6uANd815MhCMgT+Uym40HiIS5gFoGmSpcJnXeS3VYfDPKn459Vnoub7Q24zuLGResFijhkow2FysyHBZksKFHK847yANgwd+anKh++gQdMzMYDoMNN84FKGmHhpXIS0md+P6GS0roae9V5xZPrqdqPR1XwqV9Q7ikpB0GlnJ4xlfWRvyjtRmal33weIMYpqHOIOANRBhUitAMrptb8KSz5J4gK6L+WIXLTcS2rXeP47fFOvytwGU2hUg02ZHhXBkmofRYXrTZ8HtTI/5mdaK0081egvsWljG6GMF0IAyvX4AkTzSMgeX2Eng29IAnYfRGeDEJLimhp1XqUuFy0y87MV2Lh8tMPQ2LkzeST/sYP60jfT5LiTsGLfNwZul1yKypwZniQnynbYBzYADD4Qho7nDyVvJiQ/KCDJdymGVSuWoveSuV56J6LjetlPEGcT9/TgyXF62N0ZhLMtBnnUKsOOukYXHuISLP0KX792F49RrSvA/9C8sYC4UxE4zAR0NLLCA+FghPnstYp76FDj0JhnhHxl6OuVThMp26HoPLvzs4XJ6321k1gmyF51IMi2bbrTy+0tqIP1gtuPLgN5j6+9HjC2KYAIKqFPgjsldKORSuXN6ETqpwmWSgFDpFnX2sw18PLr+1WtgLMMVQ0v1ncEmAmQAuaZ8LVhv+aHXgcssD6J69hnvWj/7FMMYXwMBy3reMAIl3CQHfIpPtJvDsyM5s0c7Fw2WbR4XLzb/8xnQtEVzy6R/XgUuDHhnksdRrcba6Ghdr61DU/gDS7CyLraR5wymukjyWYQGYRJn0Ieq1VGMuk07XqudSGNTdbmNwWe+RcKOtBd82GnHRZmZeIPIGUQLPWacVGU4OlpSFm2dvxFeORvz68AHsQ0N46g9idJEC4cOYDZIXIMw78ajnknfa5MVU4XK37/n++Ptajxsaj4Syjg4QXP7ByuumMqBw2pDl5PPWZ1lJVymhzIbzlkb8yWZDAcVXjk1AeKZmQhRHxzN/A6z81RaBUtnpq3CZAriMdfRKqFQu6yU+Heidtvv4zmpmSYe5VEbIGZMcpx0kZLMoFjzHZsaX1kb81dGEgsduNA9P4pl/GaPLZKsimA3yF46AP4IgGwrfgV4odSSFywIolS0rRTQ4glYqReQmm64m9GwMmULnPNgMXB43GXDcpMdJkx5ZZiOyDQZkNjTgbGUFvjWZYHj2AgNLyyxhxx8GQmFgWUCkgEtWLp3/964MiZMHU/VcvuOeyxhcmvClrZF12GSgaRj8jKMRmU4rcppsoCSJb+86UehxoXlsDM+DixhZpPqVwLw8FO73LyPIZOWQkgqX+wPsNjbMqf8d8XD5xzi4zHZakUtityDP2oiLlkb82dmE8t4neDQzxzxTU0vAbAjcY6n0TK1TYmhDz5MKlymASwlKkEy0rJe6oJU8uNPWhu8ZXFqghEtapvJp9EKcTTphs+C/rBb8eO8earqf4OHELF4FwhhbAKZCwBy9+PqXEfCHGVhyuNyE5zqF4Lih7lFZNP/iKmGliGhYXIXLLejmk96gGAAAIABJREFU1uBSlBk6ZdAim0oT1dTiQl09rrfeR/vEFEaXw/BGuLdyKQyEBVhGx8QVZEmw+Y7EW6pw+U6CJQFCzHPZ4JFws5U8lwSXNOzN3/4znBaQUEd+0WHDX1tbUdrVg46ZObymmCUq3UHeykCEGepAFCwJMFfDJQEmj8Pc+4Y8auzVYfEtGO3kgCcvAu1GWcdj5rn8o9WKC3KR/mzmtbQiz2nFeUooo7nrm1ugffkaHhoGXwamlwAW98v0MrJy2FPuoKP3dyvAoMJlCnRhO3DZuBouxSQONgu+tlpx7UE7jC9fo3sugMEQMBqIYMoXwSxL1lliw+BBX+IX4W3pxlb0aJv7JoRLX4jHXKpwuQXdjMFlg1vC33VyQk9DAyjmUjksLrLGM0wGZOo0rBj6NzoDNL3P0BdaxAzAwJLiK8MRAssYUcaWVLhM+hC4MrBTLO/FYXHqzITsBc9Nes6Bw6Xe42FDkLcoW9xsxJfRYXG5tIvTggs2C/7W3Iz6lzxmaSgY5kNLzGNJYMmHlrjHcvcNNhnhpHUQKlxuwWgnEy5dKOt4xODya6piYJe9lU4bWGF0AkuKr2x/iMb+YbwILWN8CZhZALxBcJ0MAEFfBEEfeaj4C4/ooLelHwwueSmijifP1WzxpLyYbx0uL1rNrI4phemQUE3TXJsV5ywWfH/3LgrdHtwbncCzwBJGQsBEgIqiA/M+wDcf5vGV3kUEhLCkw330wquA03kFXFrdLhikd7Ev26rdUcCl5FkbLim20mhAFiXx1NUis7IMV5tb8GBkAhPLYZYJviCXFyKmJI8k8Q0Lr4xE+LJcH1yJl6rnMklF0wVUijYeLu1t9+Ho2L3pH8VUWaLwLH1OD9zt8t+ROFwaVsGlEXl2M3IcNDzeyILnf37wAIb+IfT6ltjQ0kwggjkfxVfy5B0OlwIqRbvSc7mtzlxhRLfy/aR6RxVwScbbJHEDTrFNJO+EruzCM0HPI8HlD3YrvraYWXkh8qCfc9DLjpkV7L/+6BHujoyhL7jM9ZKGwYNgCWVcJwksE8Pltl5AFHUuO57IpYjYc6TqwfafA9HRrw2ZPOZSMSzOYm1jszBReMSXNht+aGlF7bOX6Jjx4XUwjLEQMBXgRdG9rDA64PdFZKhcQMAryzbtzFZsUqr2XQGXLm6b6F68M/3YtmwT1zl9lwcNkgc/yJ7L3IZ67rk06Fih9LMGPTJ1WmTV1eJPBgMqJQ+6vX5Wt5JN3yi8lQqwZPOFy3GWgnmoVf5Trn/bl9MWc0mZUsvhCGjqIyoo+np4GJb792F3u2GR+NRVNH2V3uOCvssdE/osd+bUGjxuGLpU2cw1UF43vSRBKToWAC4xz+Xt+y343mrCVw4zzjtMOG8z4o92C249eojm0XE8Z/ODA9NBiq/kwfBUF46Ko7N5wr1yS0kTzBMQgt9Hsj89AtHzluGSzSXtcsEsw+X2O1MOIrtt/Ffqxcrnaze2kcdF/F2dxHWypOMh/kYJZDYjLjhMuOg0s+W/2i2okCQ8mpzGAJsFKoK5AC81xCsV8Mxwiqnj89fzOeyF1zK+jd7rjXSV6mP6FzA0Mc2K6js8EiwePksP2SSlzdrMs6nuI2y4BH1XTHRdErSyUGIXja4QYN6+fx9/sZrxldWM82wGpkact5rxtd2KXx8+gvX1IHp9Cxhi3kpeZmhWnh2Mz7jDSw5RbdNEsmk92EhP0rh9zhfCi6FR3JM8sMrTP+q63CBR6mP8srBf8evfps/iN1K74neRTkn0MuNBQ3cX/lunQ3ZxIXI0tcjQ1yHLrEO2SYus+hrk1VThkrMJbSNjGKHYSrnEEBVDF95KpSeSnGfMe5ki59x+g9H0wuWyHPgK4NXICMy/3YdVcqPRw+GSdTDxyqCC5LZhmoE6edhouERyQytJsrhBnTgF0Nd73Lh1vwV/tpnxtc3E5LsmO4q6JPw2MYVXwUVeuiMYwRxl3gao85ZLu8hQGZTn4eXlPAgo3wKwpE5CAZd2gkt56In0VGm8Ei0TQK4nib6TrnUC5PZKa1zhEebZ4gSXf7UTUBrwpcOAr2x6/NTihKa3B57pWTbbzkyIivVTXVXusfT6KDOchBI2SNYHy614MKnaAXXm/WOTeNDTy16KyW7RFJBG0ZnTi69sy+hFWSnspVjeri7z68SgPA7MCYy0sgi4JBCghJ6/Wkz4k60RX7GXDjP+cteBku4u/DYxidc0m9aCgMowS9yhaWdpjnA+T7h4AX574HKW4HJYhkuXi+miuH5RyOyWoJdFrHu3W4n1fdouD+q6PfjBpENWcT7OaWqRo6/DOUM9smsr8VV9LSo6O/DU62OxlcEIQAk7fNhbJOaI9u0viL4dsN0VuKRYhb7h4ShcmsnokveC3NzU0ahAueNrsOJtrYs67FiZCgE9tK7W04lbrXfxZ7Me35j1+LHJjsreXjya96J/Gax+Jcu8laEyGASCcjxbyBdGyLeEoHcRQRpmUngF9qMnYNU5y3BJc0k7XC40ul1QgtB6MNggdUIpyutPy7vpvdwrUCnOQ3lNyQbQ9SntaMcP9kb80aLHH60GXPqtGca+F3ju82MktMRm22HF+v1heH28tip50wkseSHsRXi9C3ESgleOnRTtqnu+hueJwaV/AW/GJjhckj7I84sTRDKb5eFDkxQ+oZQVv0/hpRW/P5WtEnCTtaz0NCfj3Ok5EvZKwBEDTDaSRZ5LCQWtrfjBbMK3Jj2+s5nxc8td1D97Csnnw+DCMiZp9qXAMnwBPqJCoyoxj6XQCRpZWWmnxOfN6sFu7RfvcafPs/4F5rlsljyw0csvu14xOBeQvtlW30Ne4+1/f699l9nZVb+Hj4xoCC67JPy3SYfMoju4qKlBXl0lLtRW4u9mI6wvX2J4eZkVRA/JsZWsVmU041uAJbUqXCa6BmmFS0rTpwKji5EI81xaHjwAxbLR8BI9GOQFiBcyzEbq1FXZ/DWQPUHUCRiow4sLLdBLnTDK6zVSJwrb7uGS1Yybbc0w9b1ElzeA18FFjIaWMRMkg031KymeMoyFABDyAwtMwgj6FrlQJq5vIbacoHRGIgO5m+vIM7mRjE3N4vGTp3B0utDo6mTQwHSSrqnoFMWyolWCp+g4V7Tiu8LrJb9QrdiHhrjkuKLo31LsL/YV+4hWrF+rFd41ph9KXZGXkwUhmz2OeObZ/tQZeFwof/gAv9ga8ZPdgpLOh7g7PIhnfj/GFrhOzgdouj4uHDJpmTyV63ssKSZX6ByBgljeqPX5F5nncmB8Cg97n8DpdrNRF7PkBolJFlom6BTCtiewa+I3J2y7JJjeITF0S1ghPR4YSLrcaOz2wCC5Udzagn+YDEwnSjse4t4IxYH7MBAIYSpAIQtL7P5TmE5MKLmPi7i/Qf8iSBhUirhL794P3xHnT/ZKLM94g+gbHsNvXT1wuNywyEPjaz33a60nu7HWtrdvPYVgeNioXa2rA/8w6HC++A4uVBbjG20Nyh4/QMfkOMaXl1nSDoXxrYyaVEKlWFbhcs/AZSgcxovBQdju/wbro0dofPwYlo4OmDs7YOrshIk6cVcn/9zRAZMqW7oGxo4OrJLODhgUwrZ3dkD3+CEqWptR3tYCx6uXeOr3oz+wgGHfAia8C5jzkgdoEf75RQTmFuGflZfpM1u/AN9cAL65YEzmg/BRAkSKZX4+yDxRG/0d5qVKcE70/Y2E5pImuGwi4+1ywejqhMHdCYOrA/p9KsbODkTF1cl+E/2uqCi3p2HZpPwb7k5oXR0ov9+K204bajsfoX1kGH3kofIHMDrvx+R8AJMzXkzN+DA7F8DsXBBzc4EE4sfcnBCfYlms23w7O+fH5Mw8Xg2N4nHPU9xzuZk329rZCYuLS2NnJxo7uR0jWxYVsmWyTRO2ba2WvOPvklCoCcUyx3t62QscXUNXJ/SdHShtacEdp4ONbLkmxvE6GMSwP4ixOT9m5gPsOZ6Tn2fvXBAk82w96YUfs7M+zM74MDfjw7ws3lk/hMzP+rEbMje7eR2Mt1Wk/y8HhvGgqwdNLhdspDsSv550TTcU2anDrr+7k9kEk7sT+1HIdm3mvA2dndC7XNC5XKh//Bi/aBvwTVkRLjUaYHzWg76FICuITkk7DCrpPyVdygk8PNZShctEUCnWpc1zKf4gZVSFFhfRPzyMu+3tLKmnkaYSbG2BvqUZupZmNDTfY6JpboYq278G2uZmMGlphpbmW25thq6tFbpWpbRA29oCm6sTj171wd3fj+43A3j6ehB9r4bwmqRvEG9eDWGgj2QYA7T8ehiDb4ZZ2/9qCG9e0T6DePN6iMnr10NIlYi/oWzX+lvKfcRydN9Xg3itOGexXbS035Nnfbj/2IXGtt9gbGuD8f5v0Le1Ra+htqUFGhKqt8j0t4XpsK61he1D61bKPWjYulY0tLSgobmFtewY8rHYetompLUFDUmTVmhaWqGVRddKv0UpsW1iHzo3Wl6pN2I/+ffL586+s0K/Vn6PH5OOFzumtq0VQjRtrey31jTfQ31bG+719jKdfDI4jGeDQ3jWP4gX/YPoezOIvtcDePV6kMnrVwN4/Tomb94MIiYD6Kdtrwbw6lU/E7Y/fUfWgZUt3ze2zwDevBlC36sBdPc+x2+PXXDeb4el7TeYSCdIWrkYWtugjxP2W0k/NiPsuojrs/NW10L6SLZ1b4g4H37/V/8+8RyQvmtbSS/aoGltRW1zM/TtD9H69Cmk/gH0vBnE01f9eNHXz+5L36tBvHozhFfieabPJH10z2P3OWqnaD9m17gNWHn/07eOnaN8ruudA/0GIbQffe9l3wDc3U9w9347GptboW9ugY7ZIa5r/Fq3QkfPriykg5p7zVzu3oPmbjM01N5rhpZE6Kj8ObpebN+jLf2GBvZ7FL9F8RvE9vq791B/j/rB+6hvbkGx2YyqpiY8onnBlxYZWAblpGMlUzLApBXRIumqt1Iw3Vpt2uGSToT++f1+DI6P4/XYOF6Pj+ONLK/prXRyAq+nJnlLy6ps7xpMTIBdT2onJ/BqYpxJ///P3nt/t3Fk66LnH3u/vLvuPe+Ee+aceWfdmSPJCpaDrGAFkpLT2HMm2J6xZctynrElkQSYc0YkFWxZEkkkUhQpijkj50h+d+3qLqLRAEiQBAGIaq71saqrq6sb1bt3f71r1y67HXMOO2btawzzTieWPR6siFh1e+BwuuGye+B2eOFx+gQ4fPA5BWyWifucDi+cziLC4YXD4UlBtmvi9fj1uly+jNfudgdA+xZXnZheIVm1Y27NsQ2oztq2oLZywfSaHfmG9LzTq3b22+j3MUiua3bNwa6R15Eel898tt8373TBEQjB5Q/B6fHD4SX44PT44Pb64fb44HL74M4Cj9sHDi+r44XL5ZGAtn0ZIK/nYecg65fT5cXyqgNLa04srDlBfSTFDPWZHHYnZhxFgt2J2RLDTKb+oDIJpsX89JoDU2sOzLs9WPB4seT1Y9ntBbmrrNndsBMcHtidBC+c7D774XYTpPfWC7dLosu4TnNK6xQ774fLlQvE6yTrvcuPpRUHFlYdmKd+sjsxT5EUKLU7MSeDdD/JrVSfcTlmZeLxvJ1ST6W/g1//5m+X/E76jfR8Tq2s4dnyGp4uLmPZ64N/Y0OIXcnXBScLZUoMIcGCKZ0dno1UKeUC8S4auaT7FkkkEF5fZ4hubGCviJBVVAHrA+rLyPoGIokNRNeFvmXblF/fQEyKxAZiEiQSG1iPb2AjIYK+1rbBOh2zvgGW0nEZhw/4MELppOQHnIhj87r59Qu/R1AoceqzBASI/ZfWh9L+zCFPFvyUe5DDMYWuTyHD4gW+TuprOif1D+UpfBndC5JFHieX9pGspSrxXGRKfkw2OU3W4+FF6DooBAmBZo0KfQNE17OD1hkm0ExTBdn7gPqIJnnKEaMyei5IFjbofbGBaHwD8fgGEvF1xGMbiMWobJ2B5IX0GKVMF8lTrs9kaca68mNLaTuxAaajRXmkPhH0N+moZH+wfEJ4B1Dfsf4jPU/PNC1ZyFK+LdFHsvK9vpcLcTz9Ful5pDxAWs5+s6hrma5h+kYgkqRf2SI764KFMoVdEtNk77SkbkjVP0q5vD+KQi75RTBFzV5gSWXNlXZaKlHoafskbbAJQzRp6AUHOSLHaAIVU7ZC/9KLkMr4S1KeUr9SGRFJNjMuU5rgn3aZ62xHQvO5fz2xPenl59tJXX4M/3AVR0NYl8j7bLfbPE4apdlABJ327fYcz/NxvH/EgQ5+K7ZNNz9qMsguu6+5fPRIPqTo44N9gNBzJBIbSvnLnD1j4nMlz0uJp3yfsi3oIiLqCepjyXPA7yGVS0H3YYPrH3r2E8J+Rvbp/SABHcfb2UwzyAQb5sxUN5OcSOSC64j9SBmJEc/FCU6m8+z1+ebdsdd2SuF49r7L4Z1P10rysPknzfNCkUimCKUooJy7KOn2ZLro5DKTYHJFk2mfUrYzsiFVuFyRSxU25Xl/8zQrsSSFJyp1aR2m8LmmEh/MTMrweSvjukaa8j6iVJHF/PSBtE95fpMQSF7y0vuQuj9d0aUJ9ZYEQn58OjFhJDNBFm4Bm88QERwZpM8ckUjptpJP7Q/qO/bhJ+oVpkvYShuCrsm2DyLJZPeDrNiJ9RSsr6/LLNt0jzN/EPN7ul1aEvpL8jzkon+4WqY0l/oHvQ7pF5IVph+YPCQjovMA6ExQuCKSpQqplOvK7NtFJZfCMFeq0LObLz5AlD/owr7vv4/M/uLwIhvaS6xnHDKSvqylxFGaF5TrBjZImcsgrUf5klDEW12HRElLf7s0LyUzPM/3c52z7/fvgD8DvB95v+4uTVdwmV4QmdtOPzZjPdGCyS2ZW6WbxFNmeVPK0y2RvB+l+oITR2kZzwt6RiAEpIOYewTTRevYIEK5iUz3lY5LJ5i87ZJPZTprz+9HySgWtcUNdtL0oOk3RiCZ0PEfLHQqkUbuAkP5TPqDyhRymXsfFJVcKjcq9xv1fPVVuuWHP6+lkx7Uvj8ov2snMrSfv3kn16HU3dvzvZ/3cau2lfuW/b5t1W972VfoPt/LtSrH7oZ/KORS+Rp5Tr7G8qWMFEWxG0WhHJMv+VPayU5k8t03uT7r+T7vQWgv174rlXrSPi+Va3qxr0Mhlwq5fE7IJT2oUgWyk/yL/ZArxFC5/4oM5EMGdqJznse6+egjpQ3lWRNkQCGXCrk8wORSUXSKolNkQJGBF0kGdkNqX6T+UX5rofSBQi4VcnlAyaWiRAqlRJTzKLKmyEApycBOCGYpXbdyLQfpOVLIpUIunyNyqSifg6R8lN+iyLMiA4oMKDJwMGVAIZcKuVTIpSIDigwoMqDIgCIDigwoMpA3GVDIpSJMeRMm5Qv0YH6BKvdVua+KDCgyoMiAIgM7kQGFXCrkUiGXigwoMqDIgCIDigwoMqDIQN5kQCGXijDlTZh28lXzotTNtAINWyUEmVfEkK6OoeTz3EcZn3VaCU5YnYNkUlmFQ7HOvCi6Sfmdiqzvpwwo5DLjC2d7oaPlALe7MXzJQJ5uV1/Zv32/F6+PcpuBKaxpLSwxt0ksNwUgySiJOIrLIytpAfqCVv2jPpf/EZ/k94ntExl98eQst2eA1s7OvH52bsfLf1+u7eVaj9rfSV359eR7m+7tVm3ya81XutW5Mu3Ldt5c62aqR2XydrPVU8p399wo/Za93xRyuQdyuZXCkr/E+PbBEEY50couYKX9e+W/Y6sXUKa6srIM6xYzK2UmE2SSZ2Zc0zfTIUrZ3iyZ/BmUp9SvRDDZjeAslG3nU67lsrWOjQ1CQgYqy+d5lbby1Z9yokbb8XicQb5vp+eUH8+3M7XD90nTTPWoLJc62Y7deXkmeZbLN20/7zIu/53P++/ZHx1xAMklf+HTgyV0WiJBX/mUF/bxcr4tTfmLR1qWKb9dPb4/U7rzh3Z/bn7qdfB+26+U34/9aj9f7Wbq6yxtrwMb24EsYxLLXDb++SKV52qxzXefcBJJKf1xPsmvh+/f3JdI6oxMOmDvZdQ+vZikyCJrWVanIl2WCdmuTV43Wz3SDdK6udfL3mfS9iifuc3U8/JjMtXl+6Rpsl6yHdL/HNK62fKCXsx0H+iadw4pweN5eTu8XJ7K6+VzW3gKdvc/2c/SfqK+kcpytjx/And37mxH7bxvpNeens92HqGcaw+eiqUS+eDHJ/tq57Kz899UOuc4YOQyVUD4OJhwczc2FYygaGg7FaRs+M1MxDfAIS3n+3m6tYJKtsfrl2Ka7TeUWnnp9Z0gb+vrwHpCAJHNxDoQWwei6xsIxNdhjyTgiCXgoHxiHWuUvsBYi60jF+Szj6jvBdB9EOBMJGBPJLAmpvZYAvZwFDHBq0Egn1lIHX9h8BdIsVJ+HfI00/XI6/DtXOvK6/HjM6U7qZvpeHnZTtqT1uXt8OczJaUPQ/H+8mNom/54eXqaWafz4zOlmfSWvJ5wnvS25fV2ui0991bHpv/Orfogqe9S+5MIveCu8XykyQ+QtHddYkPQ6ezjLffflOzvbP2Xfo+TxxysfQeAXGa7iWDkMRqNw+PxYWVlDUuLK1hcXMbCwjIWF1dYSnmORSoXsby0ihQsr4rHUxsrWFoSQHWobSmojO9/HtKU3yn/3bvdXl7F8vIqVpZT+4b3E+2TI1tdfsx26WZ7OV7zEtVLu44VLC8vp2KJyuR117Cy6sTqqhMryw6G1WUnllfcWFzzYnzRDt3wCCq1A/iyU4drhC4dPuvU4dMuHa52HjB0aXE1B3zapcWnHZqckEt7VIe1uU36SZcWH3dp8GFXLz7s7MXH3Rp83KPBR4RuDf7S1YernT2oHLiHR3MLmHP7YPf44fb44Hb7mA7xeLxIgdvL9tH+rUH1MsEDt9stQ6Z66WU+XwAcfl8QAb8Aym8LfxB+Qg51qV15PTqvtIyfW15XqJe5rvR4eV7anrzNlLrib+b1036TuD8YDCEYDG8iEAiBkCyjfBJ8f75Sdl28z8WUnz8UCoOQvJbUPN+/H2k4HEE2hEIRcNA7VI5IOAY5opEYotFckN6evP2dbkciMUQikR0iikgkO3K9hlgsDjmkx8bjCRDIqHVQiWSm3/Wck8utiSU9HERYpqZmMD09h4WFJZFcLrE8badgfhnzc7lgCfNzhMXN44m0CsRVaHN+fpHtpzoHG0uYm0vHzMw8Zmc5FjA7KwffJ0/l9bbblh8/j5mZuTSkn5/alR+bqYzqUPkiZmYWNjE9M4/pOaF8bm4FszPLmJ5ZxcTcCh5NzKDaeBdXfqjES598hl//9XP8+ydf4FefXMf//uQL/OsnX+DfPv0Sv7r6VRqonCPT/tIs+xq/uloc/NvVr/G/P9se//rZ1/jHT75g+F+fXAPhHz/5DP/4yVX8f59+hn/97HP85/XruFhThxbrKEzzK5ik+zq7jJmZJczOLGJuVgDlpbJA+enp+W0wi+np3CDoK6GuPM+3p6bmNs83O7MAju2uhdfjabbr5vt5mlJvah78/DPT85vnprqb5xfr8Hp0PG+LpyltSvqP7+dptnp0Ll6H0s1zS9rix0rr8TzbNzWPaQ7xOL5/ZnoB9Ps2601Tn+8MpIvS9MyMREdNz2Fmeg6zM/OYm1sAvTcopePS5GVqFtNTs6w9aV3K0/HUDl0fpazNNP0mnldSh9fdKk27flm7SX07i5mZmRxA9dJ19F7KhGukvs4XknqfdP/WoLrCeYX7IvKM+SV2H8bHn2Jycgp+f0Ahl5lYaGmWpZNLMv3H4+vM0sAJnsPugsfjh98XQsAfRjCQGQF/BLkhjICf2krC5wuBIC17MfLUF+n9lmJh2MJCku8+onub7zYFmYkiGEjCH4jAF4jA74/C74vB70/A5V/HxKoHbQ/N+HNLB85VqXHyRhVeuqnGkcpaHK4i1DEcqazHkcqGNBy+VQ/CEUKG/ftXRuer2yUKfa2p/XaoqgG54LeVdfhtZS3Dbypr8JtKNQ5Vq/FSTR1ONDbgdEcr/jjQj/5VO2aCMdi9Ebg9YXgZQvB6ginweILIDQHR8sktoFunZOX0eQOb4M8SldEoDEGwlPrhdu8c/Jq3O5bX83gCW54nWS8It1tS1+WHmyBeo7Qe5Xm5PKXzpdaVtbnZ3jb1+PldfghtUn0RdJ0uP1wuH1xOEZSXg++j1OWFy+XJK5xONzjkbfNyntJ7jIOXbaYO9+Y+XsfhcG22zeql1aFjssNud4GwturYxOqqHYS1NUcW0L7tkO3YYpc7sbYmhQtra7lCOM6+5gJhdcWBp0+ncP/+Q9y5fQ9W6wh8Pr9CLkuTSGbyR5CQS/J7W99gpnp6GOhLhiyJpKgDjExGEZCQAylRUPKRrIQ7nYhT3STJonwoGJOB+jrMhp740BIfGmLETxyWYkNDgTBCwci2SL+O1PZpP2+Hn0uaZiSckuvg1ylcN7WdBP+90t8ZDMYQCBAS8AfWRWLpQ/3dR/h9bTPOVqpxslKN41U1OFpdj5dUDXhJ3Ygj1fU4UtWAw1WNW+JQVWNOhCkXUpV7nXocqtoNciN3wm+i35UrdtBuZSMOSZFCOIXzHVE1gHC4uh6Hq+twRFWL43WNeK2lDed6e1Bh0OKTX+7jJ7cXizHAHUwgEIgjFEwgFKQ0Vc5JBrhsbJ3u5PkS5JrLO39GaJvLaFLWU69Hfn3K9tb9Ew7HwRBKvbeZdRq1tb2eyledcCgKOaRtc/mQlu08n0l3p/ZZmPomFEUoFBNB+SjC4Vg6WD1hv3BM9nzG4zO1mWPZdufLvJ//JjFlzzjJws5AfcRBzxx9hNJo1+CjYTx6NITHj5/g2bNpBAJBhVw+H+QySSzJWkmOxfRFz4cU6MuKvvQFgkGWylRCpGzvZ3/s7GXKFeVuUk4gd3Ns5mPSybMgK3EEAzL44wiEAGcIsMzZcUN3F++qG3GuqhavVtXghKoOx9SGWEK7AAAgAElEQVQNjFgeVTcKBJNIpqoBh6ob8V8vHJpwSNWSE/6ruinn/jlc3YTDVc2pqG7E4U3Q/iYcrhbI5aEqIpYNOFrbiFNtHbjYp8VlvQGXDTp8cv8+7rt9WIoDntAGI5fCfU9/Xuhj1e8n6/V2CMPvD4m6SPR3lPngcTnONQ0Gsslp+nUqum5nfUIEQUoWkiSdyFhuBFOqW/gx0jLK8/LipDvrk2CAPqQyfUxlKttp24Wuz3+LTJ+n6PcEgoHcQKNX9IyRHiD/e7N5BPfu/QKTycoMXGTkInKpDItLptIXn2QmCeRWs9nIsZhM9eSjQhMvBGtliFnjSFkrirjQD2/hyCVX0nLFnds2Xacc2foqqYjImkXwBdax6I1iYGwan3doUFZZi1O3avBKdR1erq7HCVUDjqkaQcTyiIogkBvKM+KjasJhjupGRjiJdBKSxCh7ntfNtT5vU3ocz/N9+5vS723JEc059QH13xFVM46oWmSgchHV1Bblhf4/WtOElxva8HpbFy5odKgwGHGlvx9X+vX4+P7P+Mnjw2IO5DJ30rYfzwO1mU1WlfK99k2SUKZa8kJBIphbI12nyHVMcnu7tvZv/05JoUDIQgEalRL0nzBqQyM38ecIdL1yrLPRJxqBSmID/kA6fIENpGIdbn8MTm8Y07MrePTIgsFHFkxOzmJlxcHcEoiTKOSypIglDYNnJpc8pALtJ/JIQ+B08+xrTrZNwwlELgRiSVZLRRHvVdnu7Hjq78x+rfkqp2FubuXZfZu5y0WIhsD9MXj9cfhCG/CGgVlXGL3mcXzc0o03b9XiNZFQHlc1guOYugkvqYn8SMhOHvJyEpjv9venvWa8pG7FS+q2NKSTw+377KXqJhC2JZcq4R4crWnGsdoWvNrShbNdWlzQ6FFm6EeFcQCX+wdw2SiQy7seLxbiG3AH6SWaL6KW6ZmgMjlyfW5yl92dPbv5+r1KO89jvxN55NdNOo+sleGg8GHt95Mb0DqCYcAXBTxRwBkFVsMbWIpsYCWKomE1BuSKlRhAWI7uAjFgMQLMh4HFKLAUA566g3g0Pg3jT49gtj7B6rILHlcADgdFg/CyyDHKhJ7ngFwSsSRSSSEEaOibZk9SKB2vxy8SGrmy5tvJh4Y/PEq6n33C+73U00x9wIdNpCl9nSfgDW3AGd7A6LIX9feG8Pv6dpyrbsAr1fU4LvpVkm/lMRFHRXIpJ5i0LUU2Mietw/PZ6lI5r7NVmu34rY7J374WvKTOFal9lHYNqma8JBJ1oU1OXMmKKZB5fsyxulacbGrHqfYeXOgzoEw/gArjbZQbKSUYUWHU4S8P7uOO24P5+AZcoRj8zFKTL39t+bOQSfbkdbbaznS8Uqbo9d3LQAq59McR8scR9JMepJGaBDwhwBHcwPiaD/3j02h6ZEHtQzOqH5mgGrSg+hHlzVBtCxNUD01Q5wVmqB9ZUZMD1INWdp3sWgeFa61+ZIFqcISh+tEIqh/ZRFBehkEbVEOEEVQPjeCb/rv4sKkNN/W3MTy1gCWHH06nMFmMkUuXD8vLa5icVIbFS8zhNJPlcgM+X5CF96HQBTSbjfyZyG8laQXY/cOlKKYXve8ERSr1rxSGwEmxbsAe2oB5yY0fDD/jSlUTzlQ34iT576kbcETdiMPqJhxRN4FIpUAsk4RPTng48aGU75On0jo8L6/Dt/n+7VJeX5pud0wp76ffIVwfJ5etojWzCUdrWkDE8kRDG0539uKixoByw21UGO/gcv8dkVz24/ImufwZdzxuzCWS5JITTEU3vOi64eD//hRyKfFBJGLpjgALgQQeTq3g1sAv+KChDeeranC2qhZvVNfh1eoavFKlZni1So1XK9VgKeVleK26Bq9X5RN1eL0qN9C5CZvXVFmD16oaGF6tqserlZnxWmU9Tqsa2HlO3lDh/1z7Br/6+Cpe//EmGkbGMO4LY9Edgt0ZgItZLr0sIsHKihOTkzMsFm3xXQ0zTYzen7ISj3MpkEs2YWcdiISjWF2xs5heFBDd4/Yx/xdF6R98pVe4e5xOLn3BdbgiG5j3xXB7fB5f9g6gvLoRZ6oa8IqqiflVspng6iYcJqIos0ruhJglidLWVjspMeT5XM/D60vTXI8t7XoCuTxa08ZIpUAs2/BKUxfOdGlwUWtEuUG0WBoGWL68nyyWBjYkXm7U4KNf7uG2x41ZGhYPk7U6umm9LJwMKs+z0tfFkQFOLskdhH1UB+PwBNfhCANPyQ3INokvuoy4VNmAV2/U4GRVHY6zaBj1OKKqx2F1XRoOqeuw/6jHIXXDtjisbsBhNV2nDDWNOFzTJEMzDteI+lzVhKM0GnKrFv//1z/gnz65jn+79i2OVdbgrZ5eND2bwuNABPOeEByuoEgufRJyqVguS9JyScswkn/dwvwSm+JPoYZom60gECzOQ6gov4Pa7+RflJwlSE7r7uAGZrxR9FjG8XFrHy5U1uNUZT1OVjduEstcyCUnc9kIGt/P02z1qJzX4elWdTPV58fxdLvjS3k/kUjhN1JKBLOVkcvjdW2b/pVlun6Ui/6VFUYhX24wgpPLCqMeZcY+fPzgZwx43Jghy6VCLjf97xR9d1D1XervCvOZz8EoPME4XKEEFoPrGFp0ofZnE/7Y1I2LZNm7VYfjVfXM/ecQRb/Ygtj9l7oBpYJDNLrEiKQ8FYgkkUnCIQmOiPrlNz/W4J8/+wb/9OmX+M9vfsSphnaUdWvxlkaHuqlpWP0hLFJsXFcILif5XHJy6VCGxUvFZEvxKvkfLetEvpW04gutppP0raRQDulxuhQlmKoslP7YWX+EgwmEQ2AzwSkouiMIjKx4ofp5CO/Xt+FcdT1erRa+1o9tDscKX7dkscxmteQkjqeZyBrfJ00z1XuRy6R9I+SlFl6BXB6tacWJ+ja83tqDN3v0KNORtfKO6FtJeSKXZMU0omKAJvQYcbmftrX4+Jefcdvrw2yCLJfrYixTmsiwMzlSnjulv0pZBgTLpNwqH2HLUPqDEbhDUbiiG5jxR6F7MoNrvf0or27A6cp6vF7ViJfZh3UzjrJRmkbmEvSSxL+8lHUUXbMUdK2HKYIHRfSg0SeekmtTrbDvP76/hf919Sv887Vv2WIYZ9p7cL5biws9WpRrtKiZmoEtEMW8JwyHk8hlEC6nHx53AMvLdoVclgq5pAk7RDApaDCtzU0hhohgSgMK0wxhhVwqCjxfCpwr2yDFrvQL1soVfwKDM2u4eechrtS14lRVHU6wGIl1OMz8LJOkkobDD6tbcCTLZBVhRjNZHAVkU75y8pStXrZybsXLtv95Lpf3TaZt+v00DH66Q4MLGiKMgn8lTd4RJu7IySWVE7nsR4WeZovfZ+RyLgE2eYt8b4XQK8qzlq9nTWmn+LLE9R1P6Z4E2KpjIbhCUaxF1jHm8qF50Io/NHfhXGUt8zV8pboRJ6rJFagZx1QtQrrpY96Mo6qW4kFGGqUEcrs8D1PGRqA2F1qox29v1eBfvvwb/gct3/vdj3i5oRVnOnvxZq8O53o0ONfTi4t9fVA9m4YtEMO8JwKHK8Isl0QuaRUohVyW0EzxWCwBh8MtWCvnl9hSZ8KEHWmYDgpmK49BRv5yxX9wlWt4Xu5B0r+SCATFawsE1+ENbmDJE8O98Tl83WNEhboJb6ib8DL55KhoiKcRh2qESSRkqRSIJQ2ltOCwuhVHxKFZGp7NHGJHam1LzcsJ0/NMBvN97fK+4ds8LBOd72QThRnS45KWwgvdFS2WUmKpkEtFPz0v+ml/rzPkj4GHG6LVxny0ukw0gbXoBoZXHLhx+ye8V9eMs2ySS60YuzdJLIlIHlO14mjKB3V6mLFMocfyXya4xuxW58jJ5aHqevzH327hf179Ev947Wv89pYar7d141yPlhFLIpdnu/twtrsXF3pTyaXdGWbk0u0SZo0TuXz6VPG5LJrPpTBpZx3BYAiLi6uYm13E6oqTrQcuKEPpbHAhr5DL/VU+B/8lRMo1jrA/DhoO9wcT8IY3MOMIQmsexyetPbhYXYdT1Q04XiUE4D6kasR/iRN36GuYlBkfDierZbrlMmmt5FZLIkXZlCAnTDzNVi/Xct6ONM312FKrJ/0N0jxdJ/lXvt7aizd7+lGuv4fL/feEUENsAo8QyzKT5VIIRSRM6qnQUyiiB7hHsXPjG/AEyfdWsVwefD3wIurRGML+BIJ+YflaTyABRyCOSbcffaPjuNrViwp1HU7fUuHVShqxqcexaloQgoaURb9mVSsjl0QwKRQYuaMcrWkvAmgCH507F0hJKM/T6l20JGw9W6KXrJX/fP17/L9/vYZ//ep7vFTTgNMdPaK1UishmFq82dOHC729zHI5EoxhwR2Bg5HL5LA4zRZXyGURrZfxeBwOh4MFQ5+bW4LT6WXLKfl8tNJO5odfIZeZ+yVbfynl8v4SLJdEMIlYuqLrGF/zovWBBX+ub8f5SiEwumCxpJngTZvEMlfiJSVB0rxwPJHMVAgr+fAVfRrT9svr72471Vqa62/JT73U35v9+tOvUdp/PE/XdLy+HafaNDjfN4By/U+oMPzEhsNpEg8nlJf7pdbLpM+lQi7lz4Sy/WLoSdJ9woo09EHtCK3jyYoLqrv38Tt1HS5WqfFGpQqvVKrxcmUtjlfW43h1E46rWhmEIfEWHFe14ARDK06oiwe6juOq5m1xlGLjiosvbKa0cldVPVuW9zc/qvAvX3yHf/zsK1D+NMXF7dEJ6NUzYsmtl+f7dDjfq9kcFn8cimPJE4VTtFzyYXEhFNG0EoqoUH6XZKmkcyUS66AVdSgQOq0LvkozwX3kT0nCLzjSZ1tIPhyiyRepkNcNBqkN0foQTCCwFdiw6DZ1tjo+T/uCZDGRYcvrztN583mOjEuC0YondD/YPaH7Itxf8vuRK/RMHw75LhPkSyCWzmAM1sVVqO78jPdrGvFmpRpvqGrxqroeJ2gIXEVrgwvEiEJS0GSe3YNmmQtLQwop5fcXR8lH9LlCIwv9QX0th5SQnmhox+lOWm1nAGX6uygz3MMl/R2UGShAOk3iIVIpEEuaGc5R0d+PcsLAAMqMBpQb9SDL5V8f/IKfAiFmuXSRNZvrjs21lQW9RLKTb3l8kduTP//KdrpO3EufSH0r6Z3oD8bhpRBDoXXMesO4MzGN7/oMqFDV4izpvio1XquiUEO1LNzQSVooQtWEk6pmvCwBbb8igvK5owkn1Y35gXhduZybrp1IMvmMEiGllOIR07D3v3zzPf7H59fxT19/h+MNLTjbpcG5bi3OdWvY5J3zPWS17BNB/pZ9ONtDizL0oXZqFqPBOBYl5NLp8MHl9EGxXBbYaknkMhaLw+P2Y3p6HpNPZ7C0uAaPJwifLywiAp8vuiN4fVFw0LG0ZJXXF4NPNP9T+rzA64ujVLD3PovD5Y0wuL0ReP10T+je8nsdhtcbgtcbZKm0PFM+WZfqS2Um2V6m46RlXl+YyYrDG8bg+DP80NWLt29U4ewPt3DqVjVeuXELJ36sxLGb1Th+syY33KrF8W1Rg+O31Aq27IMaHLtVy3D0hhqEYzeFsqOVtThSWcvWbH+lqQNnu7V4s8+Ac716nCH06XGOrApaA8ObGh3e1GhwXiuHDm9qNXhT04c3NeSY34OPfv4Zd91eTEcSWPVH4RH1j5dk1ivXR0lZE+RWkMVkPrQp38kyeR1lW943Hk8AUsj3821pHZ7n++Qp389T+X6+zffzlJc/zyn9FppYwn+TxxtienjFG2EjNV1DNnzU2Io3f7yFV29U4+Ufq/Dyj5UsPfFjNU7cUGVADU7c2AvUOHEjn8j1Wmpx/GYdjok4cqMWv/mhGv90/Sv8P59+in/54QccbW3FG719ONOjwVkRwuQdgVDSJB4CEUsCTeipm56DLRjHgoRckuXSqZDL/YnQvpUVNBaLYXl5BSMjYxgatMA0bIPV8hhm8wjMJo5RmE2Pc4d5DMPmMQyJqck8BsLQ8BhMpnGYzOMwWyaEPG1LYGb5J6B0r5C2u9v8sOkJOHbbRjGPs5gnIIfZ8gQmDusTmG10Px7DYhmFxfKY3X+SAcpzmM2jyAS+n6fSOkJ71ObWGDaNYtjyGH3993DtVjWuXLuO01ev4bVrX+GV69/i+PWvcez6N3jpi29w+NrXAii/FXi9LdOvcPjalwq26IND177GoS++Scf1b/Db69/i159/jX//4lv8+tsf8Ou/38Sv/vajgL/fwK9+uIH/+OFH/Pvff0jih7/jV3//nuHf//43/PsPf2f7/uPHv+M/fvgbw3/+8D3ONNRBZbGhf2wSD6xPYLI+gcUiwCqmFvOYoJPMpK9IPkdgMafLGtNlpM8U7KgP5M9ttv5L63PxXmSqn3ObMp2Rqa3nvcxkHsWDIRs69XdxXd2Iiuvf4PWr13Di2pd46QtRz0n11/VvcDgN3+Lw9e92iW9x+Ivd4ci1b5ER1F4u1/PFdzhEuP49Dn/5N/z2+nf49edf4ddffYv/qqrCy21tONXbgzN9ZJUUSCQnkzwlQnmmt5vhbG/3luRSsFw6FJ/LrchgPveR1TIUCmF6egZjYxOYmJjCxMQ0w9OnM0hiFk+fzmXHxCwm0jCH8QkRT2j/PMaezGH8yYKIeYw/mceTJ/MYG0ti4sk89gJqU4G0D6jP5/DkySxLKf/4yTTGJmYwNj6N8YlZBuG+0/0XMD7+DBy8LD0VZIXLTHqabC/9WMm+pzMYHX8G3d37qGzvwPdt7fiysxPXurrxeXcvror4rLsXHJ/39iEbPuvtw2e9GlzdFn242qtgqz74tLcPf+3RpOCTHg3+0tOHP3Z243JjC3NbOFZZjUOV1fhNlYD/U1UNwm+rVTJU4TdVlTIIZb+trsLh6kocqbqF8vY2NI8/xf3pBVgnZvFEpl/Gn0xjEyTHEnndKr+lHIqyr9SRPJtKn2zqxB3JxfhURpkkHcnfq+MT03hoHkGzxoC/t3Xi265ufNHdjau9vbjap8HVPm0KPuvTITO0+Kyv8Pi8Tws5cr8OHT7t1TP8tUeHD5racVFVg4vNrTjf2YGzPZ0409vFiOO5Hpod3rMJbqnkxJLSrOTSEWBxLjm5pOUf/f5A0SZM55O/5dpW0ZZ/DAaDWFhYxMqKHV5PAD42JErDolLQUKk4HEVDUiL8NNwtAx8+pyFwGkr2+ONwBxJwhdbhDnJsSPK8LJl6AuvYDZLtJ9sqRpkrsA4K/L1jBPJ/3eSvxuEOrcMRSGDVG4YrGIOHQl74BfcFny8Cvz/MEPBHQCCfW5IHShloP8/7wqwOr8tT6X7e3nYpDYs7vEGMTM3AOGxCn9mETrMJbWYL2i1WtFts6LBY2XaryQQBZrSatoDZglbLHkFt7BZ7PXcJHN9iMqHZbEGz2ZqCFosNzRYbas0WfHX3Hv6sM+DdPi3KtVpc1GlxQafDeZ0Ob+q0OK8VcEFPZRoBkmFxGiZ/U0PH6XBJp0W5TovL2j58+uAX/OwLYDa6DnuA5DTGXGu4vgn4Y0hClF2JbJLcpsmuKN/byeNO9zMXDzqfT3xWMp1Hcm0pz4hSnqJTDlLfcJ0oTZlsibrT6w9jemkVP9keQ2uyoIf0HXvmTGi2WNFitclgQYtVBhvV2z3oPPlEztdisaHFMopmyyjqh2z43ngXf27rxDvtHSjr7MD57k6c7SWCSWkXI49ne7pBkJJKnpeTy3lPFC6Kc6mQSxSNXJLlcnFxCXa7C+EwLbmXvtpOyuQccqCXgcKEhFi4kARbUYXCKbiC61jxxfHMGYRp0Y5HSw48XHIVDQ+WXNgJHi67kA25tJPt2EKXP1h24gH9lhWCE78srmFoaQ3TgQjs0Q24QzSRRpjQk8lRnU9uyLQvX2U+fwQufxij07MYMFugs1rQY7Wg02JBt9WGHgYruq1WdNksDJ1WM5KwoJPqbwkrOq2ZkOk4aT0bOq27hbSd5zhvG0HXiAS2EXTYRtBkseC7e/fwkU6H32m1eItNyDGirN+ISwwGXDLqZdAltw16XDTocUmvZwHUaW3xt/qNeMugw7XBQfwSDGE+DjhDCfhDwuQ6QRcpk3j4c6mkz68sBEIxzK85cf/xE+gtVvRZrei2mNFlsaDDamXPWKdtBAJs6LRZMsCKTtteQO3yc+Qjze1aOphOpfONos1sw48Dd/FhSxvebW1DRQeRS9F62UPWS8GCyYlkpjSNXLojCrkU5+8UhVzyYfG5uXkWLJ2Ty8wEU3iIw8EYOCLBGBgoRiGbVb0BTwhwRYBJVwg95nF82WPE+w1teKupHW+1dqGipQPlGXC5tROX20RQfjvwujmmFW2dKM8XWjtQtg3KWzuwY2S7vt20JR5zqakdZc3tKGtpQ3lrG97r6cH1O3dxe3kNM7ENOCJx+EPZyWW+CORW7dAMSpc/JJBLkxl6iwW9RB4tJhmG0W4dkoHKTNvDYkY7A1lDJZAd22E1ocNKdSV1dpy3MWvr3trYy/nzd2ymF1eXzYYuspZYLPj+J7JcavCuToMrRiPKjf241D+AS/2UZiKXcrKpR5mByCXNFDegYsCIy0YdPh8axINgmJFLRzAOnzhbfCs5Uvbld2az0p/57U8ejYM+CKhv/cEoI5c/2UZgsFigsdFHtZl9WLMPafqYLjLoOvbzWqjtdrMZNwb68afmJrzXTuSyXSCX3Z043b09sSSyqZDL7PN1ikIuacyeLJezswK55EJPgp/ti5gTS0qJWEaDcUTZOtDr8Ic34I4BY3YfmgZt+HNLFy5U1eA1CgBbXYuXVfU4oarH8Qw4oW7AcXU9wwl1PatL9TMhWxuZ2t1L2TFVHY5VS0DbIvbSbrZjU86V5bzJ89dl7Edp28dU9ThaQzEaKShtHY7XNeBMewf+YDBCv2rHzAawFk3AVwLk0s0tlyYzjDb6is9ELolEEpmUIwdyyUmknGDy8rR0rwQzfwSvmCQ1I7kUX3jNZtMmuXxHp8FlgwFljFwSsSTr5e7IZYVei88ePVLIZYbQYArhyy/hK1Z/+sntiJNL6wj7oC5VckkEVzrqk0/CS+Syw2Jh5PKPTQ15I5c0W9zlCivD4hsbxR0Wn52dEyyXIeGLakfkMkAkk8IKxbDsj+HnZ4v4QX8PV2oa8cYtNV6trMFJIpVqWlWAFqTfHrSuKNXNBtqvILc+OFLThOONbTjZ0oFTnT24oNHij3fuQrfmxLMEJ5cJ8K/qYilbjz+MsZl53DZbRHJpQbfFhC4RzIppNaHTZs4D+PASDeFQPlub0nq5DPfstH4ubZZeHXq5dNtsaLVa8Leff8KHei3eJV9JIpcGIy4aOdKtlOnD5OmWS4VcHgwCVSxdUurn5bqWk8t7thHmCtRnIzcgM7qtlBbfaplPEpmtrf0kl9Ig6skJPcryjwWbzcQtl06nB+GQ4HO5E3JJFkx/KI45tw+60Qlc7dKirLoepypr8UplLU5Uk4WtAccYqWzCYVoXejvIVkuRBmsudF5YZosCvCbBroECeWdDMa9fdk0nmzrwRqeGxR68oDWgwtCPP/Tfhm7Viak4sBZOwEtB1YtsJfEEwngs+lwKlkuBXKYQzIKTSynpzIXkUX0imLnUfX7r0LA4J5c0LE7k8j2FXKYtQFDqJEe5vuKSePK5XLC7cFckl73kT241o8tKafHJJRE/KfbjmgpFLpU4lwUOoM6Hxedm50HkMhLZnlzyyT1BtspLHJ5wAlNOL1oeDuH3DS04V1WH19UNOKmqwys1jXi5phEnahpxjFZXSVn/ObkW9GFV0+a60Icoz1ZgSV92bi/L3hE5pFUA8gJa6q6mJQ15aXsP10grHMhxqq0XF/qMKNMN4JLWgMuGfvy3cQD6VRfm4oAjtAEfrSxUTHJJM9cDYYyI5NLAhsX3y3IpJ39SAplLXkoKqS1OKKXHSuscvDy9ZKTk8s+i5bIizXKZn2FxZzAO/+bKPIUjBPRMyEGEjJf5yW+OrW4VYynlfUEB5Me8VxD52Cv2eg0leXxQ8Fcky9/WoBVw+L0hGYrDR/67Yhmt7pRE4eSKG2+yk8vSI5j7QSypzR4acrdYcHNgAH9qasTvZD6XZ3bgc8lW6NkMoh6B0xmCyymEIiJyubrixORTxXJZMMtlJBLD3OwCnE43wuHUmXfcv5L7XwZDpDgptFAcFNZmJRDD8NwKbhnv4Z2aJpy+VYNXqurwiroRJ9RNOE5DshIcq27AVniJ1hZVNbC1RY9WN2A78Pp0jBRUvt2xz/t+sgRLcVRNfVCPl2obcby+Ga+1drIlsy6xdZ3F9ZwNRlzRG/Hfxn4YVh0CuQxuIBBIFNXqQkrWReRyZhZ3rDbobVbQV3z3lkPWUjKn5LMP7e+lb+REXCDK/EXTRsPiP93DH3UavKPXolwkl5cMRmwibbZ45qHysn4DCDSp57Jeh8+GhvEwFMZCfAMukdCFCvgBJCyJKhCS5BKqUfgCUXgDEXjDcbjCcTgCcTiCCbZ8nz20jrXwOlYjhEQa1iIJ7BT2SAK7xU7PRfVXw/GSB422SLEq297cF1nHWmQD9giwGgaWAxtY8lN/bsAbIb23jpB/HUGm/5IuYYWw6NI7lZbfXVhz4t7ICPpoljj5mWd10Tk4++h30vA/RQQhctltsaBy4DY+bGrG+22pE3rOdndlDT8knzVO5LJmZg5Wsgi7Q3A5QvA4AnA6vGxlpNVlB55NTCPoDxWMX+Uai3I/6xVtQk84HMXs7AIcDgpFRBN5kpN55OSSSICXlF0wjim7FwMj4/i6oxdvVapx+mY1XqtUg62BqmrACRnYRJPqWhzbAkdVtWDYoo78+M1j+LGqrc8hP/653VbX45ia3A0EELk8VtuIk02teKOzB2/2UYiXfpQZ+lHOYARZlq4Y9Pi9wQDDmgOzMcBRQuRydHYed2w25n/EyOUItwweHMX6/L080i2vGcmlIY/kUqfD58MmRomA0+sAACAASURBVC4Xi0gu+XrmArlMwBtaZ2GRFnxh2BZXMTD2FN2WMXTanqBrZBydI+PoePwU7Y8nMqLj8QR2gs7HE8gZoxPooPOL6BwdZ8dmOl/7yDikyFSnFMt4v7aOjoPQ8lhA8+NxNGXD6DgaR2n/UzSPTqJnYhpmhw/LRDCDQMi/gbCfPq5LgFy+AMSS9F8auTTnh1yel5DLRZFcup1Jcrmy4mDLWwcUcpl9ank+We5OyaUrFMXkkgM9Pw/i65YOvF+lxpVqNS6oanBOXYezqjqcUdXjbE09zsjwhroGAtR4Qy3glFqNUyoBr4vpGyo1OE7X1EBBah+8UcP7sQana+twpq4ep+sb8EZTM852dLJJO5cMBlw00LCkgVmUyKpUYdDjskgu9WsOTNOweHAD/iJbLmloy0mzxYlcWm3QcculQi5LwJJRHHJ5raDkUjo8KuR9gQRzFyGXESKVnjDgjAFPPSFoR5/im14d/ru2CVfU9bioqmO4oKrDeQX73Af1uKBuwHkJ3lQ3YCucr2nEhbomXG5qx0caI7omZvA0EIczDASCQDBA1kuFXBbqw7fg5NLpg8vlByOXtEJPQLFcFsR0u1NyueYNwjwxjbbbP+OWrh/fG/rxpbEfX/QP4PP+O/i8/y5Lr/XfwbX+25v4vP82rhqNuNpvwNUBA0s/7ddjE0Y9rhr1+Myox+cSfNFvxIuMz/uN+HwgFZ/1G/GpwcBwtZ/6tB8fGw14r68PVzQaNqxIcQP5zNxygx4ETi4/MBigXbVjKgbYS8DnknzXnBTnUkIu2cxJhVwq5LIglksiFuRvLiAQiMMbTLBVxJy0qlVkAyuRdZhW3GgctOKj1m6UV9Xi3E0VTlXWsImLNHnxleo6nCwkqurwctXW56T9HCe3qVvQa99DP71S3YBXqxtlaMCrVel4paoBr6ubcK6xDWXtPfi9th8tT+cwHtnAahTwhYBgcB3kBlGI4XB+jozD4orlck/D4mmWS2cIzHLp9MHp9mN5xYGnk7PwKZbLwlsuyf9yq2FxeiBc3hAeT83hjuUx+swjaKclqkZG0GgdQYN1FI22x2gaGUPTyGgaGm1WNNosaBqxosFmRr3VjAabhZWxcpsFzTYLWiRospjxoqPRaoYcTTYrmmw2NNpsqKM4YY8G8cnAbbyv0+MtvR6XjRRzUPBvoyDVLFC1aLl8n8jlmkAu10qNXIrD4gq5LBVXgMJZLsv7DSyY+mWdDoW2XBKhJJAVn+AObsARAiMg0/4YBp4t4Bv9Xbxb14pzt2pxuroeb6gb8Up1I15WCTihaoSCfPdBE06o5GjBCVUqjqtacKy6OQUnalrxWkMnTrf24GK3FuW9evy+/x4an83jSRRYiQJehVwW/AO2UJZLmtDjdAbgcAnkckkhl4UhlXxoXWq5zEYupb6XHl8EY9MLuGMZgdYsLM1Hy+N12Gxol6BjxIaOEWsqbFa026xoGxHQKqZsm8oV5NQHHTYrusXl+DpHRtA+MoJakxmfGo34QKvF2zrdJrm8aNSDQFbMNMslDYuHN+Av8mxxbrl8PLeA2zQszhy9Bd8cWn2nUMM1ynkyEdrCkUuytjPo9QX1uaTlbIlY0hA4kUpXUFhlbDWygRF7AK2mMfylQ4MyVRNOVwrWsZPVRKKacJwRnyShOq5qhIK99cExVSMENEmie7TgGBFIVSuOqlrxkqoNL6naJaAyAYerm3G0thUnm7pwulOHi5p+XNINoFw/gPeMd1A3NYexmPDhQOQyoFguC6pjC0kuaba4Qi6LEIaICKaUXFI+k+WSk0tKN8mleQQ6sxBKgBz8ifAQceQQiKUFHSMS2IR68rqbx2yzn9d70VOKo9hrs6GHluFjJH4EdSYzczv4PZFLieUyG7nU0bA4J5fF9rkUh8UVcpmJ3BW7rPDkkvyCCzmhJ+wXyKUnSBN2gLUQsBQCfp5exXe6u3i3pglnK2vwOhtWJuIkhDQ7QrFvVS0gqxmHQIA4Ecqc0jFH1Qq26oOX1C1IgsLSJbePqFtxWN2WgkOqFhymOjWtONHQidfb+nCuz4hL+rsoN9xFufEOKgy38a7xNmqnZjEWE4bFFXJZeP1SKHLpUobFmWtlSc8WTyGX/gjG2LA4LVklkMtuMWg0kcZNSEkl+c4x/zlhGSleR0oSqYwHn6a8dJ+ST+0P6icilhRrkJFL2wjqhk3MB/MDjYaRS7IA0bD480MuwyByKZ0tTkpIsVwWXvmnWnCTzyV/PvdltjhfW5xCERWYXIb8MbZ2uTOYwEpoA8/cEWhHp/FZhx6XbtaxEGuvVvGlawVrGsXNpbi7ZEU7rmpLwTFVG7bCUbK6qRVs3wetIqmUxzwmokn7pGjG0ZoWvNzQgVNtfTjfR5EyiFTeQ4WR0tuoMAzgHcOAQi6L7NtZMHLpSPpcKhN6imC93LnlknwuZ3HHYmXroVLImB5aWWAkB4irDtA6pZxgSkklf3kpafoLXdon9HJn8cGoP5nlcpSRy6sGI5jlUqdjQ+DZyOXvjUbo7Y6SslxSnEspuSSfS4VcFptY0vnTZXE/yCW5bfCJZ4UklxQQ3eePwh1KYDmUgGXZhdq7j/Dfta24eKsep2/V4dXqBuZXyYZq1dKh2uZNiyW3XPI0FwumUiezZTe1X7IvfCFdyOJEbQtea+rE2Y4+XOw1okJ/RySVd1FhvCOEZNMb8LbeiLrpOTyJK8PiqR+RhdM1BSeXPM6lEoqosD6X5Ge5XZxLbrmkCT1uNqFHIJc6ixm9FAw1Z3KZXNYq00tLKUt/kWfqE3q5d4voYtbiEdQODQuWS60Wb4nkkl7YSculEJKIhSJ6XsilTbFcFusFkDxvukzmTi6TEQt45IKtUpp0xqIa6HT4wmzZ1ziXbJWdYBS+YBSucAJz3iDuTEzhuz493qcwN7fUeOMWLWFbh5Mqslo2sGVsycdSjoM0iafU/UU3/TE3F+loxsn6Nrze0oULPXqUaQZQrh3AZT1ZKm+jjGEAl/QGlOn1bFSndnoWT6Q+lyFltnjyed9/kpkbuWzH2e5O7CSIetpscUcIXiWIOgo+LA4AGxtgPpe0Qg8Loh5K9bnkYRN4SuTS65NZLsVo+7kLJwXGVrDXPtgkl6LPpZRcXtHp2EuaLJdlBh3KxJVTKNblZYMOguXSyUIRrQXX4fUnl/3k97qQKU3o4ZbL2xYrNCYT+kZo0pISRD3352q/Xgo7IZckb0JsVYqvKiDzijyZSOZmVAOdDl9arBgMR7AQW9+fFXpCcfii63BG1/HE7kHrQxM+bGjBxR8rca5Sjdera/BKdS1bxvZlVR0IJ9X1eJmhAS+rBVDZKzUNxYG6nl0TXUPeUNuAkyWJRpysbWLLCR+vrsex6jq2rPCrze043dmH8706lGn7UaETiOVlfT/Kjf24SNAbcMFAi0pocUWvQ83MDJ7ENrAWBTwULSNU+OVvlVBEkhV6JEHUf9fWgoqONpzvbsPZ7nac6+nC2d5uyFfjybSdiVzSCj1uinPp9mNl2S4u/6jEuSxAnMs8kEuLsJRT8V+C+/VyLcV2kxZgPqGHk8v3tYICJQuQYAkioklWSyN78SvkshTvZylf007JZe5kMhvBrNDr8bXFhqFIFPNRmsFNE26iyOfyj7Ta2LLHjwcTz3BLY8AHVWpc/PEmzt2sxBuV1XhNVYNXVbUpeE1dh9dq9g+v19ThdXUdTu0AVH87UHtUh13/Vuk+/ra991sDXqsR8Kq6Aa/VNeF0SwfO92pxUWdAmWEA5Qx8RTJOLo2b5PIiI5da1MxM40lsXUIuKQxVEdYWly//WGRfyEK9w7eyXArkslUkl20419O5Z3LpEsnl8rIdT9na4gq5LAC5FGaL78lyqZDLgoZxEBSAQi4LpQiV8xSeXF4mcmm1wRSNYWGfyKXLE8DI5DSaDAO43tSKj5tb8Me2NnzQ3oZ3W1vxTns73m7vYHirvQOEtzsInWng+/OR8nPuR7rd9e3HOfPXZhfebu/CW+1dqGjrRFlHN8p6+1BBw9304dxPZHJAyLMPaSMuMculQi5LTYcp5LKwro8FHxanMETr6xsIhSKYnZ3f/bC4Qi4VcrnHr35lWFyxXHIrJlnbiVx+Y7XBHIlhMZqAR7Rc5stVg4Yk7S4fhsYm0PvLQzTfv4+6Rw9RPTiIyqFB3Bx6hFvDg7jJMTSIG0OPktu8fHiQ1aO6u8XmOSRt7mfZdtdJv59QVVIYQtXQMCqHhnFjcAjXf/oZf9Ab8A7F8xVHaC4ZjSgzDuCSwZiEQi6L8G7aXpcp5PKAksv19fVNiygjl0GFXJbal93217M3y+UHBj10qw48i25A8bncXhlufz8OchvFsVx+Y7HBEolhaZ/IpcMdgGXiGfotVvRazOiwWtA6YkPL4xGGtscj4GgdHWH7NtMRm7A9YkMb83mmBSN2jnbxeGojF9D1pUB6jZQfTaJ9dASZ0DE6gi1Bv8NmQ2cpYmQEbTYbbj54iA8ZudSnkst+gVxeNIoEUyGXCrl0BKAMixchDBGf0EOWS6fTjbA4oSccioO+7uWWgowTehTLZREe4CS5pLBOtDLSTnwuiVxq15Lk0qdM6CnCPXxeCGmRyWUk/5ZL8q+ze/wwP30Gg9mMXrOwClSHzYK2EQHtNgtoOxfsZXJeLu3ns85errVYx3ZZSd9Z0G21gO7LzQe/4EO9Du/RYhF6mrBIfr5Ji+VOyKU3tAF/SPG5LOQHtGK5PKCWS77so5AmJ/Qo5PJ5ednTde6NXL4vI5d+hVwq5DLrZILikMtvraLlch/IJblhrHn8ME0+g85sRo/ZhC6bGR0U+koE5Qv5wlXOlb2/iYwwiPfmxoOfRXKpw2W9ViCXkuHw7chl7cw0xsUJPQq5zN7v+yWTCrlUyKViuSzZF4xCLvdL8Sntyl82hSeXV/R6fDfyWBgWV8jlC09ytySXLNSaPulnaTBCIZfyZ7i0thVyqZBLhVweZHJpTw6LK5bL0lK+pUVwC08uaULPt7aRfSWXdm8Aw08nmeWSfC4Vy2XpPgNbkcsrGcjl5qSeLD6XiuWyuPdaIZcKuVTI5QEmlzq7c3NCj0Iui6tsS4tMyvuiOORyvy2XCrmU3+fS3c5ELj9iPpc6ZCaXBsGSmY1cTivD4sXUOQq5fEHIpbD8Y3ooIvlkHtqWTui5bbaCLf+oTOgp+LAVLfnIl+Db1YSefiMYuYxtwB5YR0DxuSz4PSymct/Zubcml9//dA9/0GnwjkGLcm5FMu48kHq50YCyfgPKjAYWiuj7kcf7FoqIfC45udSbzGy2OPUJ+Vly7KyPSpeYHbTf0WYzg3wuP9Jr8R4FRecyt+lzKa4MRdvGfoFk6g24qBdW6HlLr0WthFz6QhsIlMiEnu6SNWbkV753Qi7ZEpA7WKFHPTMHWzCGRXcIbkcItEIPzRZ3u/14YYOoU4igwkMIoj4zMwe73YlQMIJggBBFwB9JA5V7vEGMPpvBgMkMrckkOMNbTOiwKihEHwgvCws6LQI6LBa0WW1QDw7hE70e72s0uKLTopxmUep1KNdTXo9ycW1dcoB/32hA36odkxSKyJ+A3xdLu9eZ7v9+lfn8ETj9IYzOzmPAbEHf8DB6adISvewVuSpyH1hYmB4K1cPBZa/VYsa39+7i99o+vKPXMFkjmbtk2BnomAqKV0jLlRr1uKzTgcilKRzFQiQBdyAKfwZ9tFt5JHmjCT3D40+hGxZ0GMlZmyJrRZa1rd8h7VYTWqzDuHH/Hj7U9eE9nQZXaEIPyZzeIIDLHm1TMHXSezo9Lul0KNNp8LZOg9qpKTyJJrAa2YA3uA5/IJZX+cpFLuldSh8586sO3LXZWMSCrhdE/jotJnRZTOgmw5TFgi6TGbf6B/Dnxib8rrUZFe0tON/VirMMHTjb04UzOeB8Xy9U0zOwBaJYcAXhtgfhdvjhdHgZwVxaWsPExBR8vmARuFYx+J1wzn8oPLGkEyvk8nkjL1nJ5aNBhVy+IMq5sDKbJJWFJJd/22dyafcEFHL5nD0vjFxahnHz/j18dBDIpT+ikEuFXO470VXI5XOm6Ar7gk9+0SvkMtkXxboHL9Z5808uuYVyM5VaLmmFHp0O+04uaUKPYrksaUul/Dnj5JIsl887uSTrJlnjBcvliGK5VCyX+0YyFXKpkMucFH2+yGXv6poyLK7IXA4yVzxyORyK7NuwOPO5VMhlDve/dD7miFy2Wk344ac7+FDbi/f0GiHO5XM0LO73hTddkBRyqQyLF2LEWiGXyos+J0WfmVxad+xz2buikEu5ZUTZzkQkCkAuDRKfS6nlkpHLuOhzmdkPPBf/Nnkd8rlUyGWme13aZZvk8t7tPZHLmqkpjIk+l57gOnzBwvlc+hRyCcXnsrD+lwq5VMjlrshlu9mMNqsVNTuc0KOQy9J+kZYO0d1/cllu1Ccn9HByaXsMcyiKhXAMbjbhIopgnib18Ak9Q+NPoRcnJVJ/KxN6SvuZyAe5fEungXo6lVx6FXKZ07snXzpJIZcFJpeJRAKFxzpCoQimp2extuZAMEAme8FsT+Z7OcgC4PYEMDI5jf5hE7TDw+gxDaPLPIwOi4JC9EGn1YROqxmdZgEdRC4tFtSIE3p+p9Hgso7PoKQZ45TXs1mTl/R6VNBscYMBvcureBpZx6ovDp83mnav5fd+P7e9vjAcviBGZubQbzKjb2gIvWzJN5MiV0V/rszosKSCy16r2YRv795hs8Xf1muYrF3S63DRsDUu0VrQEtDa0OWS7QryubSOwhSMYD4Uhcsfhc8XQSCDTtqNXJK8rbp9GHwyDr2ow+jZbSt6Xys6dCsd2m4ZRqtlGD/cHWCWy3f1GqbPmMyxcEOGpOzRtkGcQa7T46JOh0s0u5zI5dQzjEXiWAutwx1IwBMg+Up/3+1GtrY7xusNbepaOufcih13rDb00nv0BZG/TrPAGbrNJnSbzegaNuFWfz+bLf5eazPK21vwZlcrzjB0sJnip3u6sB3epNniU9Owki+rMwDXWgAuuw8Ou4fNGF9cXMX4+DN4vYEicK1i8DvhnP9QeGJJJ1bI5VbKrBT3KeRSeQEXVi5TiSURTYVcKjJYWBkU+ns/yKWnmOTSH1HIZQHJ5dKSnZFLn0IuC8F0FXJZDCW5l3NKyWWXxQLFcqm86PciT9sfq5DL7ftIkcFC9JFCLg+GnBXacrm25maWS4VcFnR4PD/kkoSlEMpFOccw0silxYxWiwWqrMPiNDQuDg+Jw+IfsGHxFWFY3B+HxysMO9JwIQ3VFGqIiA8h0fmc0mHx4SH0Wmj4XxkWL77M559c0jB4KgwoNwjDmBcNetCw+A/WEZhlw+JcXvaakrytyYbFOy3DIPJC/c3T4ve9olel9yCFXOp6sd2wOA+sflFnwAU2LK5ls8tVkmFxTyAOTyDG3C72Kle5HO+TDov7lWHxnIbFu7twRsRWQ+Pn+rolw+JBOMVhcfuaRwyibsfE+DReOMtlPB5H4ZFAMBjG1NQMVlftCPjJH0TwCaGHQA56eFxuP2xPp5jPpWZ4GN1ELM2CQqaHX0Eh+sCEdouZgVZJabFYUfngIT4xGPG+Roe3WNxAWpmCVuihVSqMuGQwoMygY/6YHxgN6FlYwtNwHKuBOJy+GJz+MFy+EDzeEMgvSH7vt9uWK9bt6kv3ezxBOL0BjE3PsZWfaFnRHrNpU65IvjgU+SqEfEnPIcgZlzdKyVpOaDGb8M3dO/hA04u3dX1sBZRLOi0u6rOD9tPqUakQfIIviP6atIrUDZsNtkAY86EYnMEYPN7wjmVSKmPy/KrTi8GxJ9DRalCmYdAHMskW+V2SXx+liqyVVh/QPWmxDONv9wbwJ20P3tX1oVynQZlOi0vMr1KflD22Ko8Bl3RGXCAwn0wdLhv0qJycxONwDKvBONy+KHyBGLw5yhfpRg65TGXalutF2ibfYarr8YUws7yG21abMHfBSnr94L9PSZcL1ksTumjuwLAJN439+FNDI95raUJ5WzPe7GzBGYZ2nO3qZDjT1QmO092dkOKN7k6c6elE9bNJWH0hLDhDsK8F4LD74bD74HT4sbjowMTE7KbPZSwWQzyekKAYHGz/z/kPhSeW9KMUcvl8vkBSyWWzVSSXek4uablHWu5MsFoK5JImUQjk8g/GfvTNL+JpMIqVQBxr/hgceySXcsVKhFFettW2yxvE46lZtvwjLSsq/WjhxJLS5/N+Pc/XXRhyWW40oow+gPRavKPToNI2gpFAGIuhGFzB3F/+W8kY7eMfTkQuh8ZoQo9JmEwhjr4o5LJ0ZXWn5JIslhdFYknkkj5eaJnRmxPjGA1FsRqIweOLweuLwuuN7EhfbSdnfH82cknlLk8AzxZXFHKZI7nkJJNSIplycnm2tyuVXNqDmcmlR5jQk+RcnGDuP9FLnrNw51LIpWIp2AFxMqHNLBBMslw2WyyC5XKTXHLLkLimOBuG1KFCr8Hb2j78pb8f+tl5jHsCmHH4MefwY8npw4rDgzWHh82uoxl2mUDrtGaCy+ljQw/Sfbxsu5SOWXV4YJucYrPFFXJZSi/4wpBL+hC6rNfhSl8vfq/VotY2ilGXHzMOL5ZW3VhddQuzPkW5tNs92Am4LNMxlF9YdWJwbBwGsxl9ZhN6KAKDzQwKd0MhiRTLZSnJoHAtuyGXAqk04Lxez8hluUGHH56MweoLYsEZwJo9gNU1H9bWPCDfvLU11yYyyReXI55K9R0vo1RanpZfE3TomsOHibklDIiWSwrRo1gu0y2XZzo7kAmnOzvwBqGrA6e6OkDD4pUT4xi0u/F00YW5BSezVpLFcmHBjmfPFmCzjWNl2YFIJMpmjMfjZL0sHNErxrkUcqmQy12TyyazWRwW798cFheGHSn0kAEVBgN7cROx/JNBh5uPBvHT/BLGVpwYn1/D5Nwqns4u4enMAqZmFjA9vYCZHWJ2ZnHHx9A56Fxzc0uYmV+C6fET6B8NondoSLFclszzsP/ksoJIpU6HdzRavN+nwXf3H0H/bB4jy05MzK1ganYZs7MrmJlZZPJCMjM1NbcjTE/NY2pqnrUxN7uEydkF3LfaoB0cgkYkl10KudyBDio8+dw5uSRCKYDI5XkazTHo8N3oCB4RAVlwYHpmFc+mlzEzvZST/iI5YiD9OCNDms4knZgBUwuYnVnG/OIaHk/NwWAyo5tcM5Rh8YzD4pmIJS8jgkk41dmBs10d+LvNhp8WVmB9tognTxcwPj6LJ0+mMTLyFA8fmPHL/WHQu4pCMApEj8glx8EkmQq5LJmXaeGV5m6GepnlksW4NIPI5a0HD/FXQz9+p9XhiqhEiWCSj9HbRgN+ZzDgL3duQ00P39IqJn0hzLtDWHWHYHeFsOb2s0kOTpcPrl3Bv8vjhPPZnV6MPpvBHasVzOfSovhc7kYu8n9Mfskl+WPSC55A8smJ5e90evzZYMSPw2b8tOrChC+KJW8EdlcQTlcAHk8I5GrhdgcYdiejgqw5nV4srjkx+PgJe7FryMeX4qoq5PLAkkuBZOpAAft/nBiHzR/GkjsMpysMhysElysIl2t7HUayw8FlkMtkLqnHHYDXHWCWTdJ5kwvLzHLZazahSyGXGcmldDg8W54I5oW+HqgnJ2HxBDC16sX8khsLi05MTS1ibGwKk09nsbhoRyjErZacTEYRjxP49sFKFXKpkMsdKfY2NsnFDFqhp9lixs2HD/GxwYh3KYC6QYuLRi3KjFq8bdTjfb0eXz14iM5n0xh2+zDjC2PFH4HDF4FLhNsfgdeffaY49yHiqdcTxHbI5G+UqYzadLj9GJ2axW2LFVoLrTmrkMv8E8XdfDjln1xeNOpZsGsil1e0WvxOo8Wnd+6hfmQMDxxuTIbiWAol4BR94WiyxeYkij0Gu6Z2iKQu2V3CsLjJDPZiF6MTKMPiu5GRwhyzF8vlRZospteyYP0/Pp1gE3rs/gS83gR8FOvSG2GTGWlCIwf3z+U6L1+pX5wwyX0u79jECT0vyOTY3U7oyUYsqfx0Vzsjl6qpKTahZ8YRwMy8A8+eLWJ6ahEry07QWu7RaALxmNzH8oCTS5q5VHjEEQiE8OzZNFZW1uD30SQMYSJGJuJADxdZtmxPn8E4NMxWUukyDaHdNIQ2s4JC9kGraRDtJhPaTCY0mU248eABPiIrpbYXl/S9uGDoRYW+D+/pNPju0SPo5hfxJBDGbDiOZSKW3jCcIlzeMJu5uJUyzSQP+Syzu3zMcjlgMrNhyk6JXJF8cRSyj5Vz0TMt+PdKU5I7QrNpGN/cuY0P+nrwFsmdtg8XtRpc0GXHeZ0G5+njR6/FW3o93u3V4NOBu2gfn4TFHcBUMI4Ffxxrvjjcngi8njC8nlDGD5ndvuxJbpftbjwaG2ezxdnkMfHjlmaKMyj6rOR0eqt5CM3mIfztbj/+pOnGO9pelGn7cEmrwUWtDhcIXPa0OlaWLNeyfWV6HYhc0oSeFSZjMSZnbk8Ybm8wCU+QfYTkU8fxtnzih7nT7Rcn9FjRPTwEqc47yLqHdHmHiX7vMDpNJnQMDeOGwYg/1Tfg3eZGlLU24VxHM04ztOFMZyfOdHaJqeB/yYfDT3d1MGJ5qrMV53q7UPVsEsNuPx7PrODJxCymp5fYTPFoRLBGxqJxRKNxxGIEzrkiiMUIfPtgpf9QnB+mkMvn9iEeHkQHJ5cmIpe/4CO9Du9qe3BZ2423dD346M4A1KOj+HnVgSlSpqE4Vn1RRipdpExFeOgFvk34Ia4Yd5Lu5OVPlks2W5yWf6RQFQq5LJGXe37JJb38L+m1qNBqmAvH9Ts/o2tyFqPuIBaCcSx743B4iVjG4dmGXO5EFnldLpPLjiS5pOVryUpMljGFXJaukWCn5PKSVocykWSe1wnkktwwbk1OYiwcwxrF+CU580YFXVhgckmWSxoWv21VyGVu5FIgmMzHUpzEhwdtzgAAG5RJREFUc6qzDae72nCmux3nezvx49go7s4tYnRqCUsrbmatJEIZj4lD3YxUvmDkMhqNovCIwe8PMsvl8vIqCy7q9QSYlYB8Q+QgBe1wemGdeAbD4BB6BwfROTyItuFBkCVNQeH6oG3oEdqHh9E6PIzm4WHcun8ff9Vq8UFvNz7Q9ODzn+6iY2oKFpcXs/4oVvxEKqNwu8Nwu0PwyMBfvlulcnnYbnurtuT7OLmkNet7h4fQIZErki8ORcYKJ2NCXw+j1ZSKtuFhEJqHh/D17QG839uNtzQ9uKTpxUVNHy5os4P2X9b24XdaDb57OAjj3DLG/REsBGJY88bgdMfgcsfgccXgcYdFOQ2m6aLtZC/bfi53guXyCTSDgsWIPjKJvGxC0Wclqc+bTYP4/o4Rf+zrwjuaHpRpenFJ04eLGi0uELjsabSs7BIr0+I8WTc1fbii06JqfAJjwQhWfRQ/lSyXUbjcIRYaiAgfg+jbm02OdlruZv6cflDqIZDfpduPyfklDFgs6BoaTNF5B1nPkS5vJ+MI0/PDaB8cwg29AX+UWi7bm3GaoRVnOjpwpqOT4XRHJ051tjO83tkGslgSuTzV2oQ3muvxzcNf8GB+CSueEEKhGGJR0QpJaTSGSDiGaCSGaJTAOVcY0SiBbx+s9B8ikQgKiyibju/zBTA5OYWlpVV4PYLQk+DTQyAHldsdHlieTMLwaBB9jx6ha/ARI5hEBhQUrg/aBx+iY3AI7UNDaBkaQvVPP+OLvj5c7etF1dAj9C8u4rEvgDlvCEs0aYeUp4vuqwDKS5GLspTLw3bbubTJ6/BhcXK36CVFO/QIRKBbh4WU8nybyhQUqg8G0To8lIK2/9vemT63cVxbHH/ne/UqqUriSHHKsiU7sa0kdmynXlKpSlJ5TuxIsrxIlMSdABcAXCRZC0lsXEQCJAFww77Ngh38dF7dnhlgAIIiRQIgbd0Pp3pmMD1L9w/dp+9sPh9IQz4vPn/8SJjL3zqn8I7TjrfJXDoduDLdkOjwhQGw412nHZ8+nMPt1Rd4ksohVKohRoMf9QA5uQa5SRqzGqf0sIWm47hr97uR1+AtkZHhCWzA6dEGyNSZj5jFjF24/9jIkgdDPjf+8+QRPnVM4oP6gIa4c+rS+XM6haEkU/kW3arhdOKaw4Hr0zMYCIYRLteQLVLE8gCSUoMkHuihNrHBGU23Y+mky8zbkqQCSPRaNoUkF0EP9ISicTyi72t7PU1t3o+5fROBEZ92vjZqS7xefDUzg08fPMCHQwO4OjKEX1uHcUloFL+y2UCm8rIwlvRkuBVvTFhhmMs3hgfwX7dv4mdf38LA2hoi5QrKtQMcVHWRaawdoFY9QLWi+R56FVHDb1VRq5F67cF6s78emstG4VarB1CVAra395FI5ITxkKQiSLJ0+I9Ff5ZkWsZ6cBtPvEsiejnt88FBn+vz0Stk2ot+/zHqqPPt9nKHz4tpuo/StyREr1OZcLnx4MlTOF6sYSWeQrRYQaJQQSpfQkYpIadoDSc1alSPUovO2pCetMFttx51+IfMJUUrKXrEnfwFKAOqh4bIWI76fBhY8uJfjx/h43rkUjOYmsm048q0HVdm7OJG+/ecU7g+bcdfHs1hKLABn6Rgt3SAZPEAafHULhlJs+jp3VLHODV39MRgkt5z6d/AjMeLSa8HY0sekHkZ1kXTzN7FKgOqk8ElD248e4I/Oe14306Ryym8TZxRxNLp1KOY2vRb0w6Q6J7M9+x2fDIzh5veZTxPZhErHyCTpy/O0ZWcKhS5XB94GwPwdm3VWZeJqKVuWnNyAeFoHI9XVgSD43Q16jUZRNP/jc6VNOr14sbMDD7pJ3M5jGsjw/j12CguWUdxyTaGS7ZxYTAv26y4PGnFpUkrfjExhjesw/h5fx/+5/YN/OrOt7i5OA9/Pg/l4ADkbQ4qmrnUjGTD97Q3kWwuO+CuG4VsmMud7QiSSVlcgtL+ZMYfrdlgCnOZkbEZ2oXvRQBe/yY8W0G4gkEssnpWBu6tIHxbISwFw1jSU89mEL6dXexkJaQKZe1zjvmyeAo71zIaF8ZSKYrLMnRphnRhzOXSshiI2JY1c8kG82J18GS42ppLh9bRXxURTDKZmq5N2/Eb5xT+4JzCP54+xvhOGC/UPPbLB0gUasiqtfqrYBptD7U/9AqiZkbPwinxTdszTGaCXkVkMpfUybG5vHismQ2+YS5vCnPpwAcOu24up+qRchE5p4fGhNkkY+nA9ZkZ/PXxEwxshLCQVhAq1JAo1ZBRq8ipFUj0miu5DFUySVzhae7/zmosKb9hLmlArV0Wj4sPR0zRFUA9mve6XKFpnKcPN2dn8NlAv24uR/Dm2BguWclYWnHJasMlq1UzmuNjuDxuxc+GH+C/b9/AT//zBf487YBjfw/BUgnZgwPkyVyKyKThdXoTIWxvWs9/35ZqtYreqIZqVRO9SFSR89gO7yOZlESDLkslaKLopRbGp5S+MkBfLIjGU9jejWI3kkAslUMsKyMqKawelkEsp4AeSCAlspSqSNC8rCKrFiGpRchKAQoZR9PlGKM+c1IBNGo2y7hkY6zTy5Qa3YyUx3p4V7yFgCK/YkSrR49GfG6wLk4ZUKRhxOtFv88jIpcfTU3gffskrjkm8Y5JNP++YxIfO6fwxfwzOHd3sabmsVesIq6UkREGsgJJKkOqtztG+1NCJzklvol3etsFpYm0BPf6hrgCMOFxY8zrxrDPLS670qVXmmbmLlYZUJ0M+ty49ewpPnPY8SENaByTeNs5iStOu9DbdN8vRSudDhGt/Gh6Gv9edGNqJ4oVuYRtur83X0OqUEVGKSOr0AC8LPo8JVdCXeLqXaP/61R7KC6Jmy+LR+J4tLSECZcLNq8bdLvTqPdilXu3/geN8/Ti1qx2Wfz64BCuDg/jzbFR/FKITCZdFqenxK24PDqMX9zrw0++uoF37vXhG48Hy6qKaK2GTK0GpVZDuVZDpVpDuUppr3zVxd3PhTaXuVweyWQWkUgSe5EEkqkcMvQZNamAjFzQXsCtFpFh9aQMshRp1G88p9GvQtMUmZHyUCTVpDxkidTcSHay027d9mnmzeZSPCjm84rOvluNGm/3bJ3XSczlVcck3psaxydOO75yLeL7SAybagGRfAlJpYRMrgg5V4QilYSx7Jm51CP19Xsu3R6wuTwbD736Pxnm8qZuLt+f0gY0wlxO28XDPNecDrzrcOC98Un878PH6FsLiJfyb6hV7FPEUqWIZQ05hV6rR9Fxuv2it+aSopfU5tEghx7oofvMX0dz2eBGN5f9D3DYXI7istWKNymKOfAAP719C5e+vo2/z87hYSSKcKWCeK0GqVpDoVZDicylMJWawWRzWYWlUqGnm3qhKioVTeVyFbKkIhzaE/dcUsRSyhV1FUCmMptVEI+lxKexotEU0hlZ/CnoZmQj8kX3y5klDCeZTlZXyoDKXc6RkdRvDtcjy1KOvmnbqsPfAs9SvUom5fKirg99A/eI74i/bD1ipp1a85jXod9SOQUvQjvi8490iWjM48Kwl3URy2DE48Gwx4N+rxv/9+ghPpocx2+nJnDVPoG37RMiennNPoE/zs6gb3kJC4kUgkoREaWIJA1IswXksgVIGeK4iJyuRttDbZDe/pg5pTbnFEwSX5TPaLOorYplJLjW/XC43LC5XRj1uDDkdWFQF01fxLJ/nY+J6mTA68KNp9/j06lJvD+pMXfFMYEr9HCPw47f2O34vcOJfz53wRbaxYpSQKhYxb6qfZEnI1chSRX96pwWJaeBDbEnZ03KaVfrWtuts85Tuy0kFbQHeiJxzHq9sLlcsHo0Dkdeu7bPgxsz0+Keyw+GhnBV3HM5ot1zOTaCXw4N4I17d/CL2zfx4eAA+ldXsK6oiFWrSFerkKtVlKu6p6lUUapUUdbVG0/VC992+n1YyuUyeqMKyvQ0VbkiXqAu5RQEg7uIxTLiD0aNPokugadSOdB3eLe3I+JpcqORNhuDttPUCbC6VwbUWVLk+JSium2n027vrPmIq1RGFq+4euj1YcrtFg0tdaRGZ08pd/gXw/CYzeU/52bx+wkbfjNhwzX7ON51TOC9SRs+m53B/Rdr8GUk7BfojQVlpKkTz+QhC6mQMipyaQXZjAIpqx4ScdUpTmk76ZymVE5FJJUR5tLp8dTNpcHbgO98WSNzcV66yOaV/v/9wlw+wSeT4/hgchzXaFDjnBQDm3fHbfhsZhp3l1fwfTyFgFrCnlxCVC4hmSshnS0hmyUjScaxYR5FH3bKtvQ0bZ/BdCqrYGs/hll6HRbdmqHXO9VBJwymERk8bZ0a+c3pabd1VL4RutfZ58WX00784X4fPhBPiw/iLesoLo+N4NJgP35y8wu8+c0t/Pv7R5hPxLFTLiNVqSBXqUCuVFAoV1DUPQ15qFLPvFSvPNvZ9nOu5jKkm8ssRRNyRWQzecTjGRGtJHNJrynKpOUjzcxZR3Oc/3B08bgyOU2jdpHzJFMSVrfCmHV7MEWjeLfWwFKHYjaYrY1Urw3nkGcRg7pouvV4fizzVK7mc6VzHnAvCA256TcP7nvcIHP5hwkbPpi04f2pcVy3T+BvT59gbDOIVUnFnlJGQi7rHXsROd1Yyplmc9ltNg1zScaStJ9Ma5FLs7k0RS/bcdXKopnL00y328ePhZ9unMeQ1y2i5eJVRJM2fDhhFQOZ96Ym8DvHFP72+DHGNjbhS+cQypOxpEh5EWkKmGS0SLkk+rjD7W23+TNvn1ik28rIXG7uRTHnM5lLMpZHmEvxn9QH2SeZ7nQdmPdJ2zabzrNNG5HL+/hw6AGuDvfj10MP8PO73+HnX3+Fj22jsG0FsK7IiJXLSJfLkMsVqOUK8uUKCiVNbCrbm1BLqVRCb1RGqaSJXqCey8rY2toRkUsylckERStT2A5HEIkkxGVx449BEYZ2Mn7n9PTRxFctu3b18ENdRkaaXg2zshkS70+1C3O5iGH3ojA4A2RsdENHjRqZHsPYGdOcamXS6XIwDGVT6iKj6UKfexH/mJ3Gx+M2XLeN4aMJGz5/+gT28A5Wswp25RLi2QJS6TzS6TwymQIyFK3MKHXRoJXUbXYzGQXprCbq1HfjaSyu+eGgKLlrESNujTdhousDiAUMepo14FlAp2QepJjrzVj+uqXmMmg3Pehxo9/jxs0nj/GnSSt+NzEqDOZHDju+nF+AM7SLgFzArlxENFdAIkPM5UWwRErnoal9G91p/o5qz2k/xGKGBjmGuXR7MeF2YcytcUgs0m0aZzWH7crwNMsG9UEl8Xia/C/PQ+25GzecDnx6rw/XH/ThnXvf4pdf38Rb336Nz79/hCeJOELFIuLFEjKFEuRSGUqpDLWoKV8sg1TsmYfqlVfrzH4sxWIRvVEJxaImeoF6NiNhc3NbGMpEPIud7Sh2d+OIx9PI0P2VObXe+B/dEVDncFa1Gtezbu91y99aftq8UWedTNNpGZ0UNbbxZBYrG0HMuTyYWlyEdXEBw64FDLm0aFm/ETUzRQ1f3mg1GsJed9InPa4fwnrUsRzWIgbdLhG5/PzhHD6z2fDnyUl861rEk0gUW0oeEbmERLaApDCWCtJpakdImrE0OnNzJ2wsa03N67Sbbl2/3bwwlxkZSV07sSRcurkcN3XsVCfEi2Yg5zHgaWjQM4+Oq6V8m0y8zvzrtOwwawZ/NKBZRL97EbceP8RfbGP4ZHQYf3XacW9lFQvJtLivd9+IVhrGUr/Nq367V0brz1rbw5NyVV8v196kGr+3Y9BYRvumgQ6xuLEbwZzbA9v8PMZcCxglY0kDHWr7Wtg4qmxe1o5QHjM/R22j3XLK1++ar4vm261nXvayY2n9jfJR+z64uCDM5Sf37uLdG1/iys0v8JfxMUxsBrAuy4gUi0gXS5CKJSiFEpRiCWrhsAo981C98mqd2c+5mkv/+iYC/pC49zIU2kM0kkI6LYmoJT3QI/4MaUlLUznx5Dg9Pa4pg3TKpHQWadY5lEFrvWj1Q/V48ZVDNJ7Gsn8Tc4suTC0swLo4j+HFeQy55jHomseAWxNNi0ZXX07zvdQAHcsx6uXx9HpfVB9Di9QhLOLewjz+NT2Nf9gd6HO5MU/GUlaxn1MRS8tIpRXxijN6zVkqJeuSkE7l6kyaO/l2nJp/f9Vp2p6Rhx5EpOg4KZHOIRxJYGFtHfaFRVifP4d1YR6ji5o07p5jyPVMaHDxKbqjZ4Jl4rlJVMavodqxrJWLC+JWDLdLDGpuzc3i79YxfDk3g6mAHyuZLMJKHntSHjG6t5YMJEUH0zSo0QfCxJyhE7eJxKnGKgVaDJk5NfgyUvNvgj9TPiO/6FOFuZSwsbuPh/SVqPkGfyPEoWsBI+4FDJvUxIjODBm0o9ojKk9zHrMJPG7anM88fVw+2udRx9NuOXE+sPAcn9vG8OF//o0/fnMbfc+eYCmTxn6phGSphFxJM5T5QglCxRIKbdSb4FxnDF8vj9VSKBTQa+XzBaRSaayursHrXcbamh9+/yY2AlvY3AjWFQhsYSMQbK+NIDY2tlgXogwO1xHVXWd1eB8GK0cyorNz1Hp0fCurfnz/bBETs48w7JzBwPQ0Hkw7cZ8048Q9oWn0zU6jb8bZpLszTvRWDtydeZl6fTzd3d+daTsM3Z22467TgbvTM7gzM4NbExO4O/cQzqUVuANbWA4E8SIQxHpgC35/0KQQ/H6SsYx+77Y2D+1j3b+J9cAmfC/W8fDZPKwzsxhyOjHodNTV73Tg/rQd93T1Oemcp3DHMSVSmjaLlt9xTIrfj1rHvH7zNG27WXecdpyXvpu2o6PqyLk4cMfZ0K1xG75x2DHl9WI+FII3vIOlrTBebIaxvhGGPxCCfyMEfyAIf2BT08YW/BtbCFB/FQgJBeosGm0a9XOHFfBv4Ui1tq/+w/nN2xTboX1sBrHm38Bzjxdjs3MYcNjxQNd9hx19jkncFUwRV4am8J2jWd86pvCtY7KNaLkmI48xf5LUyNOaHp+33bEcXvYNHbNzUmtXZuz4cmwIX1pH8CjgR1iWkSgWkSoWkS0WIReKyBeKKOQ1iWmaF+q9b+q1Tzvr/iz5fB7nIVmWsb8fwc7OHqLReJMikRi6oWg0AVZvyqA79dfMSSs3p5mn4wxt72EjuI1AeAf+7R2sb29jLRzWtB3Gi3AIq6yel8FKOIS6QkGshEJYDoWFloJBrO3sIBiNYTcSx14kjv2oWQlEYskmRWNJxM5FCcRiCcTiCUSicQR3duHfCmKdFGzWi2AQqyFNK6Eglre2sLS1heVg8EjR70Kbm9q6x6x/1LaWglvwtYiW9UKt++3EfKePe4WY295BOJEU2kmmsJ9IIRJPCkXjSZA07uKIxBo8RkTfk0Q0qikWTYIUjcQ1mfpAo+2s/2asc8I0sh9Dq4y2UXAYSyC8t4+1YBDE21ooVNdKcBPLJtH8anALdO7nqePqkpg+yfHRdnzBDSyFNkVK0/7IHmKKgkyhgGyhAKlQgJwvQNWVVwsoqAVQUOw8vNIPdZ8WVVVxHqICUxRVSNt/HqpqyLy8k8dnbJ/TRll3qyw6WW/GtpqPVVGa51/1nIw/LeWTZRUKMZnPQ87nIamaaJpEy41lnHavLGSqC5Je5uY6EfVi1A/Vhz5N69N6qknGMiM/pUZ9n3dKxyYpqsaTfh50LvXzMc7LOFe9PAwWjZQ4zOmc0rSx/LQp7T/XoqOO6bT7OCrfRfpPCf4MDs0p9Vc6YwZXxFw7ngwWm9ZT88iTzHn0Ze3aLrGukecsqXl/+jQdX1ZWkDNzeARDxjkb53TWlLZ3ZBnr/2Wj3LqRSqpab19kVUVGlpCTFSh1//GyfsXoizg9zjdaFEXBRRBFMjUp4gXrsmSkqj7fmir6+ka+49OLcJ58DKfnrcHI8XV9knVb60KmzkMm7mQoJGpwFI0zqc5nZ/Z9kuN7ndeRFAWvLlUzbdRhtpGoX31Aawxse57SIEZWQcfSqvqx6OvQej1V01e29C9u9eoY2u37LMte5bjpP26S0S6oioLjRHXWyhXNt+OvXr/HMGjutEUeOpdj8pzmd/M507Rx3uZUnL+sQu20FBXqy9Tp/TVtT4EqU91SuertPc23yFwOPN2ej5eVywU0l53rvF924vzbq8PyOpRZawPD84cb3Z6USduOXYaqSE1SFNlkQs2d+mFzelQH2n2u25iDps6uC513B7ffbYPbceOin/uJjls3GCdhwODeWNcwZ4cHQWYOG9OnMYDdzGOcT1PaYjK7Zi47yOer89Mwl3TuIpBgGlwY9WrUM6en8wqWixIdkSQJJON4jAo15nuRGvvk9HQwmcutF/XVrX2IxsaIXkpyI5JpWta6Ds/r0d5ulpEsQZFzTZJlCRRVztWlmKYby88/8kwR8GYpEnVsF1utx9y1ef1/RlcNOqaW8j762E8X0GjmrsGaxiJx2JAkK5DE1bhmBtodkyTJMKS1ccfnabed45YdarOOuDpzLKNk0Fp1Ybk2tVOyNi28R7390Orx/NuL0zHZrT7xNNu1GKbudU+Nwnvdy4HPXxvkcDlwOTADzEBnGWiYRsM8dnb73akvmYI+uR+R9EDWD6Hsf8jHaMlms2BxGTADzAAzwAwwA91kIIdstlXd3B9vm3k+PwbYXLK55sEFM8AMMAPMQNcZaDWWNH9+nT/vm8u+mwxYMpkMWFwGzAAzwAwwA8xANxnIIpNpVTf3x9tmns+PAUsqlQKLy4AZYAaYAWaAGegmA2nxZTr6Ol1D3dwfb5t5Pj8GLMlkEiwuA2aAGWAGmAFmoJsMpJBMtqqb++NtM8/nx4AlkUiAxWXADDADzAAzwAwwA8wAM9AJBizxeBwsLgNmgBlgBpgBZoAZYAaYgU4wYInFYmBxGTADzAAzwAwwA8wAM8AMdIIBSzQaBYvLgBlgBpgBZoAZYAaYAWagEwxY9vf3weIyYAaYAWaAGWAGmAFmgBnoBAOW3d1dsLgMmAFmgBlgBpgBZoAZYAY6wYBlZ2cHLC4DZoAZYAaYAWaAGWAGmIFOMGAJh8NgcRkwA8wAM8AMMAPMADPADHSCAUsoFAKLy4AZYAaYAWaAGWAGmAFmoBMMWILBIFhcBswAM8AMMAPMADPADDADnWDAsrm5CRaXATPADDADzAAzwAwwA8xAJxiwBAIBsLgMmAFmgBlgBpgBZoAZYAY6wYDF7/eDxWXADDADzAAzwAwwA8wAM9AJBixra2tgcRkwA8wAM8AMMAPMADPADHSCAcvq6ipYXAbMADPADDADzAAzwAwwA51gwLK8vAwWlwEzwAwwA8wAM8AMMAPMQCcYsPh8PrC4DJgBZoAZYAaYAWaAGWAGOsGAxePxgMVlwAwwA8wAM8AMMAPMADPQCQYsbrcbLC4DZoAZYAaYAWaAGWAGmIFOMPD/mB/INKByqL8AAAAASUVORK5CYII=;" vertex="1" parent="1">
                    <mxGeometry x="29" y="64" width="570" height="307.78" as="geometry"/>
                </mxCell>
                <mxCell id="95" value="" style="rounded=0;whiteSpace=wrap;html=1;strokeColor=none;fillColor=#FFFFFF;" vertex="1" parent="1">
                    <mxGeometry x="185" y="47" width="214" height="60" as="geometry"/>
                </mxCell>
                <mxCell id="96" value="&lt;font color=&quot;#000000&quot; style=&quot;font-size: 14px&quot;&gt;past frames&lt;/font&gt;" style="text;html=1;strokeColor=none;fillColor=none;align=center;verticalAlign=middle;whiteSpace=wrap;rounded=0;" vertex="1" parent="1">
                    <mxGeometry x="116" y="84" width="123" height="20" as="geometry"/>
                </mxCell>
                <mxCell id="97" value="&lt;font color=&quot;#000000&quot; style=&quot;font-size: 14px&quot;&gt;future frames to predict&lt;/font&gt;" style="text;html=1;strokeColor=none;fillColor=none;align=center;verticalAlign=middle;whiteSpace=wrap;rounded=0;" vertex="1" parent="1">
                    <mxGeometry x="334" y="84" width="150" height="20" as="geometry"/>
                </mxCell>
                <mxCell id="98" value="&lt;font color=&quot;#000000&quot; style=&quot;font-size: 14px&quot;&gt;Video model&lt;/font&gt;" style="text;html=1;strokeColor=none;fillColor=none;align=center;verticalAlign=middle;whiteSpace=wrap;rounded=0;" vertex="1" parent="1">
                    <mxGeometry x="216" y="143" width="123" height="20" as="geometry"/>
                </mxCell>
                <mxCell id="99" value="&lt;font color=&quot;#000000&quot; style=&quot;font-size: 14px&quot;&gt;BERT like model with the missing parts to predict&lt;/font&gt;" style="text;html=1;strokeColor=none;fillColor=none;align=center;verticalAlign=middle;whiteSpace=wrap;rounded=0;" vertex="1" parent="1">
                    <mxGeometry x="102" y="222" width="343" height="20" as="geometry"/>
                </mxCell>
                <mxCell id="100" value="&lt;span style=&quot;font-size: 10.5pt ; color: rgb(0 , 0 , 0) ; background-color: transparent ; vertical-align: baseline&quot; id=&quot;docs-internal-guid-7bf8467d-7fff-63e6-b97b-020090e704f6&quot;&gt;General case of self-supervised learning with the missing parts and cropped known parts&lt;/span&gt;" style="text;html=1;strokeColor=none;fillColor=none;align=center;verticalAlign=middle;whiteSpace=wrap;rounded=0;" vertex="1" parent="1">
                    <mxGeometry x="52" y="307" width="496" height="20" as="geometry"/>
                </mxCell>
            </root>
        </mxGraphModel>
    </diagram>
</mxfile>